G04 #@! TF.GenerationSoftware,KiCad,Pcbnew,(5.1.0)-1*
G04 #@! TF.CreationDate,2019-12-07T09:56:38-05:00*
G04 #@! TF.ProjectId,snowflake,736e6f77-666c-4616-9b65-2e6b69636164,rev?*
G04 #@! TF.SameCoordinates,Original*
G04 #@! TF.FileFunction,Soldermask,Top*
G04 #@! TF.FilePolarity,Negative*
%FSLAX46Y46*%
G04 Gerber Fmt 4.6, Leading zero omitted, Abs format (unit mm)*
G04 Created by KiCad (PCBNEW (5.1.0)-1) date 2019-12-07 09:56:38*
%MOMM*%
%LPD*%
G04 APERTURE LIST*
%ADD10C,0.100000*%
G04 APERTURE END LIST*
D10*
G36*
X150365679Y-169184762D02*
G01*
X150402219Y-169195847D01*
X150435896Y-169213848D01*
X150465416Y-169238074D01*
X150489642Y-169267594D01*
X150507643Y-169301271D01*
X150518728Y-169337811D01*
X150523075Y-169381953D01*
X150523075Y-170830877D01*
X150518728Y-170875019D01*
X150507643Y-170911559D01*
X150489642Y-170945236D01*
X150465416Y-170974756D01*
X150435896Y-170998982D01*
X150402219Y-171016983D01*
X150365679Y-171028068D01*
X150321537Y-171032415D01*
X149372613Y-171032415D01*
X149328471Y-171028068D01*
X149291931Y-171016983D01*
X149258254Y-170998982D01*
X149228734Y-170974756D01*
X149204508Y-170945236D01*
X149186507Y-170911559D01*
X149175422Y-170875019D01*
X149171075Y-170830877D01*
X149171075Y-169381953D01*
X149175422Y-169337811D01*
X149186507Y-169301271D01*
X149204508Y-169267594D01*
X149228734Y-169238074D01*
X149258254Y-169213848D01*
X149291931Y-169195847D01*
X149328471Y-169184762D01*
X149372613Y-169180415D01*
X150321537Y-169180415D01*
X150365679Y-169184762D01*
X150365679Y-169184762D01*
G37*
G36*
X147565679Y-169184762D02*
G01*
X147602219Y-169195847D01*
X147635896Y-169213848D01*
X147665416Y-169238074D01*
X147689642Y-169267594D01*
X147707643Y-169301271D01*
X147718728Y-169337811D01*
X147723075Y-169381953D01*
X147723075Y-170830877D01*
X147718728Y-170875019D01*
X147707643Y-170911559D01*
X147689642Y-170945236D01*
X147665416Y-170974756D01*
X147635896Y-170998982D01*
X147602219Y-171016983D01*
X147565679Y-171028068D01*
X147521537Y-171032415D01*
X146572613Y-171032415D01*
X146528471Y-171028068D01*
X146491931Y-171016983D01*
X146458254Y-170998982D01*
X146428734Y-170974756D01*
X146404508Y-170945236D01*
X146386507Y-170911559D01*
X146375422Y-170875019D01*
X146371075Y-170830877D01*
X146371075Y-169381953D01*
X146375422Y-169337811D01*
X146386507Y-169301271D01*
X146404508Y-169267594D01*
X146428734Y-169238074D01*
X146458254Y-169213848D01*
X146491931Y-169195847D01*
X146528471Y-169184762D01*
X146572613Y-169180415D01*
X147521537Y-169180415D01*
X147565679Y-169184762D01*
X147565679Y-169184762D01*
G37*
G36*
X150498085Y-159838408D02*
G01*
X146396085Y-159838408D01*
X146396085Y-155736408D01*
X150498085Y-155736408D01*
X150498085Y-159838408D01*
X150498085Y-159838408D01*
G37*
G36*
X158148085Y-159488408D02*
G01*
X154546085Y-159488408D01*
X154546085Y-156086408D01*
X158148085Y-156086408D01*
X158148085Y-159488408D01*
X158148085Y-159488408D01*
G37*
G36*
X142348085Y-159488408D02*
G01*
X138746085Y-159488408D01*
X138746085Y-156086408D01*
X142348085Y-156086408D01*
X142348085Y-159488408D01*
X142348085Y-159488408D01*
G37*
G36*
X176124343Y-145224400D02*
G01*
X177835525Y-146212351D01*
X176034525Y-149331775D01*
X176034524Y-149331775D01*
X174360258Y-148365137D01*
X173088305Y-147630775D01*
X174889305Y-144511351D01*
X174889306Y-144511351D01*
X176124343Y-145224400D01*
X176124343Y-145224400D01*
G37*
G36*
X123965929Y-147422070D02*
G01*
X122602636Y-148209167D01*
X121019710Y-149123070D01*
X121019709Y-149123070D01*
X119218709Y-146003646D01*
X120691819Y-145153146D01*
X122164928Y-144302646D01*
X122164929Y-144302646D01*
X123965929Y-147422070D01*
X123965929Y-147422070D01*
G37*
G36*
X189013493Y-146477263D02*
G01*
X189050679Y-146485934D01*
X189091086Y-146504241D01*
X190345885Y-147228700D01*
X190381938Y-147254536D01*
X190408044Y-147282409D01*
X190428209Y-147314837D01*
X190441659Y-147350572D01*
X190447880Y-147388254D01*
X190446631Y-147426419D01*
X190437959Y-147463607D01*
X190419653Y-147504011D01*
X189945194Y-148325799D01*
X189919360Y-148361851D01*
X189891485Y-148387958D01*
X189859057Y-148408123D01*
X189823322Y-148421573D01*
X189785640Y-148427794D01*
X189747475Y-148426545D01*
X189710289Y-148417874D01*
X189669882Y-148399567D01*
X188415083Y-147675108D01*
X188379030Y-147649272D01*
X188352924Y-147621399D01*
X188332759Y-147588971D01*
X188319309Y-147553236D01*
X188313088Y-147515554D01*
X188314337Y-147477389D01*
X188323009Y-147440201D01*
X188341315Y-147399797D01*
X188815774Y-146578009D01*
X188841608Y-146541957D01*
X188869483Y-146515850D01*
X188901911Y-146495685D01*
X188937646Y-146482235D01*
X188975328Y-146476014D01*
X189013493Y-146477263D01*
X189013493Y-146477263D01*
G37*
G36*
X108116585Y-146273528D02*
G01*
X108152320Y-146286978D01*
X108184748Y-146307143D01*
X108212623Y-146333250D01*
X108238457Y-146369302D01*
X108712916Y-147191090D01*
X108731222Y-147231494D01*
X108739894Y-147268682D01*
X108741143Y-147306847D01*
X108734922Y-147344529D01*
X108721472Y-147380264D01*
X108701307Y-147412692D01*
X108675201Y-147440565D01*
X108639148Y-147466401D01*
X107384349Y-148190860D01*
X107343942Y-148209167D01*
X107306756Y-148217838D01*
X107268591Y-148219087D01*
X107230909Y-148212866D01*
X107195174Y-148199416D01*
X107162746Y-148179251D01*
X107134871Y-148153144D01*
X107109037Y-148117092D01*
X106634578Y-147295304D01*
X106616272Y-147254900D01*
X106607600Y-147217712D01*
X106606351Y-147179547D01*
X106612572Y-147141865D01*
X106626022Y-147106130D01*
X106646187Y-147073702D01*
X106672293Y-147045829D01*
X106708346Y-147019993D01*
X107963145Y-146295534D01*
X108003552Y-146277227D01*
X108040738Y-146268556D01*
X108078903Y-146267307D01*
X108116585Y-146273528D01*
X108116585Y-146273528D01*
G37*
G36*
X162504225Y-145339191D02*
G01*
X162653525Y-145368888D01*
X162817497Y-145436808D01*
X162965067Y-145535411D01*
X163090566Y-145660910D01*
X163189169Y-145808480D01*
X163257089Y-145972452D01*
X163291713Y-146146523D01*
X163291713Y-146324005D01*
X163257089Y-146498076D01*
X163189169Y-146662048D01*
X163090566Y-146809618D01*
X162965067Y-146935117D01*
X162817497Y-147033720D01*
X162653525Y-147101640D01*
X162504225Y-147131337D01*
X162479455Y-147136264D01*
X162301971Y-147136264D01*
X162277201Y-147131337D01*
X162127901Y-147101640D01*
X161963929Y-147033720D01*
X161816359Y-146935117D01*
X161690860Y-146809618D01*
X161592257Y-146662048D01*
X161524337Y-146498076D01*
X161489713Y-146324005D01*
X161489713Y-146146523D01*
X161524337Y-145972452D01*
X161592257Y-145808480D01*
X161690860Y-145660910D01*
X161816359Y-145535411D01*
X161963929Y-145436808D01*
X162127901Y-145368888D01*
X162277201Y-145339191D01*
X162301971Y-145334264D01*
X162479455Y-145334264D01*
X162504225Y-145339191D01*
X162504225Y-145339191D01*
G37*
G36*
X190413493Y-144052391D02*
G01*
X190450679Y-144061062D01*
X190491086Y-144079369D01*
X191745885Y-144803828D01*
X191781938Y-144829664D01*
X191808044Y-144857537D01*
X191828209Y-144889965D01*
X191841659Y-144925700D01*
X191847880Y-144963382D01*
X191846631Y-145001547D01*
X191837959Y-145038735D01*
X191819653Y-145079139D01*
X191345194Y-145900927D01*
X191319360Y-145936979D01*
X191291485Y-145963086D01*
X191259057Y-145983251D01*
X191223322Y-145996701D01*
X191185640Y-146002922D01*
X191147475Y-146001673D01*
X191110289Y-145993002D01*
X191069882Y-145974695D01*
X189815083Y-145250236D01*
X189779030Y-145224400D01*
X189752924Y-145196527D01*
X189732759Y-145164099D01*
X189719309Y-145128364D01*
X189713088Y-145090682D01*
X189714337Y-145052517D01*
X189723009Y-145015329D01*
X189741315Y-144974925D01*
X190215774Y-144153137D01*
X190241608Y-144117085D01*
X190269483Y-144090978D01*
X190301911Y-144070813D01*
X190337646Y-144057363D01*
X190375328Y-144051142D01*
X190413493Y-144052391D01*
X190413493Y-144052391D01*
G37*
G36*
X106716585Y-143848656D02*
G01*
X106752320Y-143862106D01*
X106784748Y-143882271D01*
X106812623Y-143908378D01*
X106838457Y-143944430D01*
X107312916Y-144766218D01*
X107331222Y-144806622D01*
X107339894Y-144843810D01*
X107341143Y-144881975D01*
X107334922Y-144919657D01*
X107321472Y-144955392D01*
X107301307Y-144987820D01*
X107275201Y-145015693D01*
X107239148Y-145041529D01*
X105984349Y-145765988D01*
X105943942Y-145784295D01*
X105906756Y-145792966D01*
X105868591Y-145794215D01*
X105830909Y-145787994D01*
X105795174Y-145774544D01*
X105762746Y-145754379D01*
X105734871Y-145728272D01*
X105709037Y-145692220D01*
X105234578Y-144870432D01*
X105216272Y-144830028D01*
X105207600Y-144792840D01*
X105206351Y-144754675D01*
X105212572Y-144716993D01*
X105226022Y-144681258D01*
X105246187Y-144648830D01*
X105272293Y-144620957D01*
X105308346Y-144595121D01*
X106563145Y-143870662D01*
X106603552Y-143852355D01*
X106640738Y-143843684D01*
X106678903Y-143842435D01*
X106716585Y-143848656D01*
X106716585Y-143848656D01*
G37*
G36*
X158553032Y-142439771D02*
G01*
X156039825Y-143890772D01*
X155488824Y-142936411D01*
X158002031Y-141485410D01*
X158553032Y-142439771D01*
X158553032Y-142439771D01*
G37*
G36*
X150368687Y-141244764D02*
G01*
X150405227Y-141255849D01*
X150438904Y-141273850D01*
X150468424Y-141298076D01*
X150492650Y-141327596D01*
X150510651Y-141361273D01*
X150521736Y-141397813D01*
X150526083Y-141441955D01*
X150526083Y-142890879D01*
X150521736Y-142935021D01*
X150510651Y-142971561D01*
X150492650Y-143005238D01*
X150468424Y-143034758D01*
X150438904Y-143058984D01*
X150405227Y-143076985D01*
X150368687Y-143088070D01*
X150324545Y-143092417D01*
X149375621Y-143092417D01*
X149331479Y-143088070D01*
X149294939Y-143076985D01*
X149261262Y-143058984D01*
X149231742Y-143034758D01*
X149207516Y-143005238D01*
X149189515Y-142971561D01*
X149178430Y-142935021D01*
X149174083Y-142890879D01*
X149174083Y-141441955D01*
X149178430Y-141397813D01*
X149189515Y-141361273D01*
X149207516Y-141327596D01*
X149231742Y-141298076D01*
X149261262Y-141273850D01*
X149294939Y-141255849D01*
X149331479Y-141244764D01*
X149375621Y-141240417D01*
X150324545Y-141240417D01*
X150368687Y-141244764D01*
X150368687Y-141244764D01*
G37*
G36*
X147568687Y-141244764D02*
G01*
X147605227Y-141255849D01*
X147638904Y-141273850D01*
X147668424Y-141298076D01*
X147692650Y-141327596D01*
X147710651Y-141361273D01*
X147721736Y-141397813D01*
X147726083Y-141441955D01*
X147726083Y-142890879D01*
X147721736Y-142935021D01*
X147710651Y-142971561D01*
X147692650Y-143005238D01*
X147668424Y-143034758D01*
X147638904Y-143058984D01*
X147605227Y-143076985D01*
X147568687Y-143088070D01*
X147524545Y-143092417D01*
X146575621Y-143092417D01*
X146531479Y-143088070D01*
X146494939Y-143076985D01*
X146461262Y-143058984D01*
X146431742Y-143034758D01*
X146407516Y-143005238D01*
X146389515Y-142971561D01*
X146378430Y-142935021D01*
X146374083Y-142890879D01*
X146374083Y-141441955D01*
X146378430Y-141397813D01*
X146389515Y-141361273D01*
X146407516Y-141327596D01*
X146431742Y-141298076D01*
X146461262Y-141273850D01*
X146494939Y-141255849D01*
X146531479Y-141244764D01*
X146575621Y-141240417D01*
X147524545Y-141240417D01*
X147568687Y-141244764D01*
X147568687Y-141244764D01*
G37*
G36*
X182213634Y-139329244D02*
G01*
X180162633Y-142881681D01*
X176610196Y-140830680D01*
X178661197Y-137278243D01*
X182213634Y-139329244D01*
X182213634Y-139329244D01*
G37*
G36*
X120444038Y-140621975D02*
G01*
X116891601Y-142672976D01*
X114840600Y-139120539D01*
X118393037Y-137069538D01*
X120444038Y-140621975D01*
X120444038Y-140621975D01*
G37*
G36*
X163575980Y-139539771D02*
G01*
X161062773Y-140990772D01*
X160511772Y-140036411D01*
X163024979Y-138585410D01*
X163575980Y-139539771D01*
X163575980Y-139539771D01*
G37*
G36*
X143469086Y-139409575D02*
G01*
X143508450Y-139418754D01*
X143550872Y-139437975D01*
X144482910Y-139976087D01*
X144520768Y-140003217D01*
X144548396Y-140032715D01*
X144569736Y-140067031D01*
X144583972Y-140104856D01*
X144590554Y-140144723D01*
X144589232Y-140185111D01*
X144580054Y-140224472D01*
X144560828Y-140266904D01*
X144532653Y-140315705D01*
X144532651Y-140315709D01*
X144398026Y-140548886D01*
X144235224Y-140830868D01*
X144208089Y-140868735D01*
X144178592Y-140896361D01*
X144144276Y-140917701D01*
X144106451Y-140931937D01*
X144066584Y-140938519D01*
X144026196Y-140937197D01*
X143986832Y-140928018D01*
X143944410Y-140908797D01*
X143012372Y-140370685D01*
X142974514Y-140343555D01*
X142946886Y-140314057D01*
X142925546Y-140279741D01*
X142911310Y-140241916D01*
X142904728Y-140202049D01*
X142906050Y-140161661D01*
X142915228Y-140122300D01*
X142934454Y-140079868D01*
X142962629Y-140031067D01*
X142962631Y-140031063D01*
X143097256Y-139797886D01*
X143260058Y-139515904D01*
X143287193Y-139478037D01*
X143316690Y-139450411D01*
X143351006Y-139429071D01*
X143388831Y-139414835D01*
X143428698Y-139408253D01*
X143469086Y-139409575D01*
X143469086Y-139409575D01*
G37*
G36*
X156553032Y-138975669D02*
G01*
X154039825Y-140426670D01*
X153488824Y-139472309D01*
X156002031Y-138021308D01*
X156553032Y-138975669D01*
X156553032Y-138975669D01*
G37*
G36*
X144406586Y-137785777D02*
G01*
X144445950Y-137794956D01*
X144488372Y-137814177D01*
X145420410Y-138352289D01*
X145458268Y-138379419D01*
X145485896Y-138408917D01*
X145507236Y-138443233D01*
X145521472Y-138481058D01*
X145528054Y-138520925D01*
X145526732Y-138561313D01*
X145517554Y-138600674D01*
X145498328Y-138643106D01*
X145470153Y-138691907D01*
X145470151Y-138691911D01*
X145335526Y-138925088D01*
X145172724Y-139207070D01*
X145145589Y-139244937D01*
X145116092Y-139272563D01*
X145081776Y-139293903D01*
X145043951Y-139308139D01*
X145004084Y-139314721D01*
X144963696Y-139313399D01*
X144924332Y-139304220D01*
X144881910Y-139284999D01*
X143949872Y-138746887D01*
X143912014Y-138719757D01*
X143884386Y-138690259D01*
X143863046Y-138655943D01*
X143848810Y-138618118D01*
X143842228Y-138578251D01*
X143843550Y-138537863D01*
X143852728Y-138498502D01*
X143871954Y-138456070D01*
X143900129Y-138407269D01*
X143900131Y-138407265D01*
X144122963Y-138021309D01*
X144197558Y-137892106D01*
X144224693Y-137854239D01*
X144254190Y-137826613D01*
X144288506Y-137805273D01*
X144326331Y-137791037D01*
X144366198Y-137784455D01*
X144406586Y-137785777D01*
X144406586Y-137785777D01*
G37*
G36*
X139279813Y-136950306D02*
G01*
X139319177Y-136959485D01*
X139361599Y-136978706D01*
X140293637Y-137516818D01*
X140331495Y-137543948D01*
X140359123Y-137573446D01*
X140380463Y-137607762D01*
X140394699Y-137645587D01*
X140401281Y-137685454D01*
X140399959Y-137725842D01*
X140390781Y-137765203D01*
X140371555Y-137807635D01*
X140343380Y-137856436D01*
X140343378Y-137856440D01*
X140248191Y-138021308D01*
X140045951Y-138371599D01*
X140018816Y-138409466D01*
X139989319Y-138437092D01*
X139955003Y-138458432D01*
X139917178Y-138472668D01*
X139877311Y-138479250D01*
X139836923Y-138477928D01*
X139797559Y-138468749D01*
X139755137Y-138449528D01*
X138823099Y-137911416D01*
X138785241Y-137884286D01*
X138757613Y-137854788D01*
X138736273Y-137820472D01*
X138722037Y-137782647D01*
X138715455Y-137742780D01*
X138716777Y-137702392D01*
X138725955Y-137663031D01*
X138745181Y-137620599D01*
X138773356Y-137571798D01*
X138773358Y-137571794D01*
X138942840Y-137278243D01*
X139070785Y-137056635D01*
X139097920Y-137018768D01*
X139127417Y-136991142D01*
X139161733Y-136969802D01*
X139199558Y-136955566D01*
X139239425Y-136948984D01*
X139279813Y-136950306D01*
X139279813Y-136950306D01*
G37*
G36*
X161575980Y-136075669D02*
G01*
X159062773Y-137526670D01*
X158511772Y-136572309D01*
X161024979Y-135121308D01*
X161575980Y-136075669D01*
X161575980Y-136075669D01*
G37*
G36*
X140217313Y-135326508D02*
G01*
X140256677Y-135335687D01*
X140299099Y-135354908D01*
X141231137Y-135893020D01*
X141268995Y-135920150D01*
X141296623Y-135949648D01*
X141317963Y-135983964D01*
X141332199Y-136021789D01*
X141338781Y-136061656D01*
X141337459Y-136102044D01*
X141328281Y-136141405D01*
X141309055Y-136183837D01*
X141280880Y-136232638D01*
X141280878Y-136232642D01*
X141146253Y-136465819D01*
X140983451Y-136747801D01*
X140956316Y-136785668D01*
X140926819Y-136813294D01*
X140892503Y-136834634D01*
X140854678Y-136848870D01*
X140814811Y-136855452D01*
X140774423Y-136854130D01*
X140735059Y-136844951D01*
X140692637Y-136825730D01*
X139760599Y-136287618D01*
X139722741Y-136260488D01*
X139695113Y-136230990D01*
X139673773Y-136196674D01*
X139659537Y-136158849D01*
X139652955Y-136118982D01*
X139654277Y-136078594D01*
X139663455Y-136039233D01*
X139682681Y-135996801D01*
X139710856Y-135948000D01*
X139710858Y-135947996D01*
X139883730Y-135648573D01*
X140008285Y-135432837D01*
X140035420Y-135394970D01*
X140064917Y-135367344D01*
X140099233Y-135346004D01*
X140137058Y-135331768D01*
X140176925Y-135325186D01*
X140217313Y-135326508D01*
X140217313Y-135326508D01*
G37*
G36*
X184179107Y-131630551D02*
G01*
X185735525Y-132529149D01*
X183934525Y-135648573D01*
X183934524Y-135648573D01*
X181867533Y-134455195D01*
X180988305Y-133947573D01*
X182789305Y-130828149D01*
X182789306Y-130828149D01*
X184179107Y-131630551D01*
X184179107Y-131630551D01*
G37*
G36*
X116065929Y-133738868D02*
G01*
X114592819Y-134589368D01*
X113119710Y-135439868D01*
X113119709Y-135439868D01*
X111318709Y-132320444D01*
X113014169Y-131341570D01*
X114264928Y-130619444D01*
X114264929Y-130619444D01*
X116065929Y-133738868D01*
X116065929Y-133738868D01*
G37*
G36*
X164818241Y-132504664D02*
G01*
X164855427Y-132513335D01*
X164895834Y-132531642D01*
X166150633Y-133256101D01*
X166186686Y-133281937D01*
X166212792Y-133309810D01*
X166232957Y-133342238D01*
X166246407Y-133377973D01*
X166252628Y-133415655D01*
X166251379Y-133453820D01*
X166242707Y-133491008D01*
X166224401Y-133531412D01*
X165749942Y-134353200D01*
X165724108Y-134389252D01*
X165696233Y-134415359D01*
X165663805Y-134435524D01*
X165628070Y-134448974D01*
X165590388Y-134455195D01*
X165552223Y-134453946D01*
X165515037Y-134445275D01*
X165474630Y-134426968D01*
X164219831Y-133702509D01*
X164183778Y-133676673D01*
X164157672Y-133648800D01*
X164137507Y-133616372D01*
X164124057Y-133580637D01*
X164117836Y-133542955D01*
X164119085Y-133504790D01*
X164127757Y-133467602D01*
X164146063Y-133427198D01*
X164620522Y-132605410D01*
X164646356Y-132569358D01*
X164674231Y-132543251D01*
X164706659Y-132523086D01*
X164742394Y-132509636D01*
X164780076Y-132503415D01*
X164818241Y-132504664D01*
X164818241Y-132504664D01*
G37*
G36*
X132314840Y-132306123D02*
G01*
X132350575Y-132319573D01*
X132383003Y-132339738D01*
X132410878Y-132365845D01*
X132436712Y-132401897D01*
X132911171Y-133223685D01*
X132929477Y-133264089D01*
X132938149Y-133301277D01*
X132939398Y-133339442D01*
X132933177Y-133377124D01*
X132919727Y-133412859D01*
X132899562Y-133445287D01*
X132873456Y-133473160D01*
X132837403Y-133498996D01*
X131582604Y-134223455D01*
X131542197Y-134241762D01*
X131505011Y-134250433D01*
X131466846Y-134251682D01*
X131429164Y-134245461D01*
X131393429Y-134232011D01*
X131361001Y-134211846D01*
X131333126Y-134185739D01*
X131307292Y-134149687D01*
X130832833Y-133327899D01*
X130814527Y-133287495D01*
X130805855Y-133250307D01*
X130804606Y-133212142D01*
X130810827Y-133174460D01*
X130824277Y-133138725D01*
X130844442Y-133106297D01*
X130870548Y-133078424D01*
X130906601Y-133052588D01*
X132161400Y-132328129D01*
X132201807Y-132309822D01*
X132238993Y-132301151D01*
X132277158Y-132299902D01*
X132314840Y-132306123D01*
X132314840Y-132306123D01*
G37*
G36*
X156402045Y-130990255D02*
G01*
X156439870Y-131004491D01*
X156474186Y-131025831D01*
X156503684Y-131053459D01*
X156530814Y-131091317D01*
X157068926Y-132023355D01*
X157088147Y-132065777D01*
X157097326Y-132105141D01*
X157098648Y-132145529D01*
X157092066Y-132185396D01*
X157077830Y-132223221D01*
X157056490Y-132257537D01*
X157028864Y-132287034D01*
X156990997Y-132314169D01*
X156839047Y-132401897D01*
X156475838Y-132611596D01*
X156475834Y-132611598D01*
X156427033Y-132639773D01*
X156384601Y-132658999D01*
X156345240Y-132668177D01*
X156304852Y-132669499D01*
X156264985Y-132662917D01*
X156227160Y-132648681D01*
X156192844Y-132627341D01*
X156163346Y-132599713D01*
X156136216Y-132561855D01*
X155598104Y-131629817D01*
X155578883Y-131587395D01*
X155569704Y-131548031D01*
X155568382Y-131507643D01*
X155574964Y-131467776D01*
X155589200Y-131429951D01*
X155610540Y-131395635D01*
X155638166Y-131366138D01*
X155676033Y-131339003D01*
X156041022Y-131128277D01*
X156191192Y-131041576D01*
X156191196Y-131041574D01*
X156239997Y-131013399D01*
X156282429Y-130994173D01*
X156321790Y-130984995D01*
X156362178Y-130983673D01*
X156402045Y-130990255D01*
X156402045Y-130990255D01*
G37*
G36*
X166218241Y-130079792D02*
G01*
X166255427Y-130088463D01*
X166295834Y-130106770D01*
X167550633Y-130831229D01*
X167586686Y-130857065D01*
X167612792Y-130884938D01*
X167632957Y-130917366D01*
X167646407Y-130953101D01*
X167652628Y-130990783D01*
X167651379Y-131028948D01*
X167642707Y-131066136D01*
X167624401Y-131106540D01*
X167149942Y-131928328D01*
X167124108Y-131964380D01*
X167096233Y-131990487D01*
X167063805Y-132010652D01*
X167028070Y-132024102D01*
X166990388Y-132030323D01*
X166952223Y-132029074D01*
X166915037Y-132020403D01*
X166874630Y-132002096D01*
X165619831Y-131277637D01*
X165583778Y-131251801D01*
X165557672Y-131223928D01*
X165537507Y-131191500D01*
X165524057Y-131155765D01*
X165517836Y-131118083D01*
X165519085Y-131079918D01*
X165527757Y-131042730D01*
X165546063Y-131002326D01*
X166020522Y-130180538D01*
X166046356Y-130144486D01*
X166074231Y-130118379D01*
X166106659Y-130098214D01*
X166142394Y-130084764D01*
X166180076Y-130078543D01*
X166218241Y-130079792D01*
X166218241Y-130079792D01*
G37*
G36*
X130914840Y-129881251D02*
G01*
X130950575Y-129894701D01*
X130983003Y-129914866D01*
X131010878Y-129940973D01*
X131036712Y-129977025D01*
X131511171Y-130798813D01*
X131529477Y-130839217D01*
X131538149Y-130876405D01*
X131539398Y-130914570D01*
X131533177Y-130952252D01*
X131519727Y-130987987D01*
X131499562Y-131020415D01*
X131473456Y-131048288D01*
X131437403Y-131074124D01*
X130182604Y-131798583D01*
X130142197Y-131816890D01*
X130105011Y-131825561D01*
X130066846Y-131826810D01*
X130029164Y-131820589D01*
X129993429Y-131807139D01*
X129961001Y-131786974D01*
X129933126Y-131760867D01*
X129907292Y-131724815D01*
X129432833Y-130903027D01*
X129414527Y-130862623D01*
X129405855Y-130825435D01*
X129404606Y-130787270D01*
X129410827Y-130749588D01*
X129424277Y-130713853D01*
X129444442Y-130681425D01*
X129470548Y-130653552D01*
X129506601Y-130627716D01*
X130761400Y-129903257D01*
X130801807Y-129884950D01*
X130838993Y-129876279D01*
X130877158Y-129875030D01*
X130914840Y-129881251D01*
X130914840Y-129881251D01*
G37*
G36*
X158025843Y-130052755D02*
G01*
X158063668Y-130066991D01*
X158097984Y-130088331D01*
X158127482Y-130115959D01*
X158154612Y-130153817D01*
X158692724Y-131085855D01*
X158711945Y-131128277D01*
X158721124Y-131167641D01*
X158722446Y-131208029D01*
X158715864Y-131247896D01*
X158701628Y-131285721D01*
X158680288Y-131320037D01*
X158652662Y-131349534D01*
X158614795Y-131376669D01*
X158445665Y-131474316D01*
X158099636Y-131674096D01*
X158099632Y-131674098D01*
X158050831Y-131702273D01*
X158008399Y-131721499D01*
X157969038Y-131730677D01*
X157928650Y-131731999D01*
X157888783Y-131725417D01*
X157850958Y-131711181D01*
X157816642Y-131689841D01*
X157787144Y-131662213D01*
X157760014Y-131624355D01*
X157221902Y-130692317D01*
X157202681Y-130649895D01*
X157193502Y-130610531D01*
X157192180Y-130570143D01*
X157198762Y-130530276D01*
X157212998Y-130492451D01*
X157234338Y-130458135D01*
X157261964Y-130428638D01*
X157299831Y-130401503D01*
X157653892Y-130197086D01*
X157814990Y-130104076D01*
X157814994Y-130104074D01*
X157863795Y-130075899D01*
X157906227Y-130056673D01*
X157945588Y-130047495D01*
X157985976Y-130046173D01*
X158025843Y-130052755D01*
X158025843Y-130052755D01*
G37*
G36*
X168007851Y-127310300D02*
G01*
X168046521Y-127322031D01*
X168082160Y-127341081D01*
X168113400Y-127366718D01*
X168139037Y-127397958D01*
X168158087Y-127433597D01*
X168169818Y-127472267D01*
X168174383Y-127518623D01*
X168174383Y-128594847D01*
X168169818Y-128641203D01*
X168158087Y-128679873D01*
X168139037Y-128715512D01*
X168113400Y-128746752D01*
X168082160Y-128772389D01*
X168046521Y-128791439D01*
X168007851Y-128803170D01*
X167961495Y-128807735D01*
X167310271Y-128807735D01*
X167263915Y-128803170D01*
X167225245Y-128791439D01*
X167189606Y-128772389D01*
X167158366Y-128746752D01*
X167132729Y-128715512D01*
X167113679Y-128679873D01*
X167101948Y-128641203D01*
X167097383Y-128594847D01*
X167097383Y-127518623D01*
X167101948Y-127472267D01*
X167113679Y-127433597D01*
X167132729Y-127397958D01*
X167158366Y-127366718D01*
X167189606Y-127341081D01*
X167225245Y-127322031D01*
X167263915Y-127310300D01*
X167310271Y-127305735D01*
X167961495Y-127305735D01*
X168007851Y-127310300D01*
X168007851Y-127310300D01*
G37*
G36*
X166132851Y-127310300D02*
G01*
X166171521Y-127322031D01*
X166207160Y-127341081D01*
X166238400Y-127366718D01*
X166264037Y-127397958D01*
X166283087Y-127433597D01*
X166294818Y-127472267D01*
X166299383Y-127518623D01*
X166299383Y-128594847D01*
X166294818Y-128641203D01*
X166283087Y-128679873D01*
X166264037Y-128715512D01*
X166238400Y-128746752D01*
X166207160Y-128772389D01*
X166171521Y-128791439D01*
X166132851Y-128803170D01*
X166086495Y-128807735D01*
X165435271Y-128807735D01*
X165388915Y-128803170D01*
X165350245Y-128791439D01*
X165314606Y-128772389D01*
X165283366Y-128746752D01*
X165257729Y-128715512D01*
X165238679Y-128679873D01*
X165226948Y-128641203D01*
X165222383Y-128594847D01*
X165222383Y-127518623D01*
X165226948Y-127472267D01*
X165238679Y-127433597D01*
X165257729Y-127397958D01*
X165283366Y-127366718D01*
X165314606Y-127341081D01*
X165350245Y-127322031D01*
X165388915Y-127310300D01*
X165435271Y-127305735D01*
X166086495Y-127305735D01*
X166132851Y-127310300D01*
X166132851Y-127310300D01*
G37*
G36*
X145593224Y-126746506D02*
G01*
X143891224Y-126746506D01*
X143891224Y-125044506D01*
X145593224Y-125044506D01*
X145593224Y-126746506D01*
X145593224Y-126746506D01*
G37*
G36*
X153213224Y-126746506D02*
G01*
X151511224Y-126746506D01*
X151511224Y-125044506D01*
X153213224Y-125044506D01*
X153213224Y-126746506D01*
X153213224Y-126746506D01*
G37*
G36*
X161199890Y-125155090D02*
G01*
X161238560Y-125166821D01*
X161274199Y-125185871D01*
X161305439Y-125211508D01*
X161331076Y-125242748D01*
X161350126Y-125278387D01*
X161361857Y-125317057D01*
X161366422Y-125363413D01*
X161366422Y-126439637D01*
X161361857Y-126485993D01*
X161350126Y-126524663D01*
X161331076Y-126560302D01*
X161305439Y-126591542D01*
X161274199Y-126617179D01*
X161238560Y-126636229D01*
X161199890Y-126647960D01*
X161153534Y-126652525D01*
X160502310Y-126652525D01*
X160455954Y-126647960D01*
X160417284Y-126636229D01*
X160381645Y-126617179D01*
X160350405Y-126591542D01*
X160324768Y-126560302D01*
X160305718Y-126524663D01*
X160293987Y-126485993D01*
X160289422Y-126439637D01*
X160289422Y-125363413D01*
X160293987Y-125317057D01*
X160305718Y-125278387D01*
X160324768Y-125242748D01*
X160350405Y-125211508D01*
X160381645Y-125185871D01*
X160417284Y-125166821D01*
X160455954Y-125155090D01*
X160502310Y-125150525D01*
X161153534Y-125150525D01*
X161199890Y-125155090D01*
X161199890Y-125155090D01*
G37*
G36*
X159324890Y-125155090D02*
G01*
X159363560Y-125166821D01*
X159399199Y-125185871D01*
X159430439Y-125211508D01*
X159456076Y-125242748D01*
X159475126Y-125278387D01*
X159486857Y-125317057D01*
X159491422Y-125363413D01*
X159491422Y-126439637D01*
X159486857Y-126485993D01*
X159475126Y-126524663D01*
X159456076Y-126560302D01*
X159430439Y-126591542D01*
X159399199Y-126617179D01*
X159363560Y-126636229D01*
X159324890Y-126647960D01*
X159278534Y-126652525D01*
X158627310Y-126652525D01*
X158580954Y-126647960D01*
X158542284Y-126636229D01*
X158506645Y-126617179D01*
X158475405Y-126591542D01*
X158449768Y-126560302D01*
X158430718Y-126524663D01*
X158418987Y-126485993D01*
X158414422Y-126439637D01*
X158414422Y-125363413D01*
X158418987Y-125317057D01*
X158430718Y-125278387D01*
X158449768Y-125242748D01*
X158475405Y-125211508D01*
X158506645Y-125185871D01*
X158542284Y-125166821D01*
X158580954Y-125155090D01*
X158627310Y-125150525D01*
X159278534Y-125150525D01*
X159324890Y-125155090D01*
X159324890Y-125155090D01*
G37*
G36*
X171839780Y-125344213D02*
G01*
X169237780Y-125344213D01*
X169237780Y-124042213D01*
X171839780Y-124042213D01*
X171839780Y-125344213D01*
X171839780Y-125344213D01*
G37*
G36*
X166339780Y-125344213D02*
G01*
X163737780Y-125344213D01*
X163737780Y-124042213D01*
X166339780Y-124042213D01*
X166339780Y-125344213D01*
X166339780Y-125344213D01*
G37*
G36*
X153213224Y-124206506D02*
G01*
X151511224Y-124206506D01*
X151511224Y-122504506D01*
X153213224Y-122504506D01*
X153213224Y-124206506D01*
X153213224Y-124206506D01*
G37*
G36*
X145593224Y-124206506D02*
G01*
X143891224Y-124206506D01*
X143891224Y-122504506D01*
X145593224Y-122504506D01*
X145593224Y-124206506D01*
X145593224Y-124206506D01*
G37*
G36*
X156895772Y-122551312D02*
G01*
X156934442Y-122563043D01*
X156970081Y-122582093D01*
X157001321Y-122607730D01*
X157026958Y-122638970D01*
X157046008Y-122674609D01*
X157057739Y-122713279D01*
X157062304Y-122759635D01*
X157062304Y-123410859D01*
X157057739Y-123457215D01*
X157046008Y-123495885D01*
X157026958Y-123531524D01*
X157001321Y-123562764D01*
X156970081Y-123588401D01*
X156934442Y-123607451D01*
X156895772Y-123619182D01*
X156849416Y-123623747D01*
X155773192Y-123623747D01*
X155726836Y-123619182D01*
X155688166Y-123607451D01*
X155652527Y-123588401D01*
X155621287Y-123562764D01*
X155595650Y-123531524D01*
X155576600Y-123495885D01*
X155564869Y-123457215D01*
X155560304Y-123410859D01*
X155560304Y-122759635D01*
X155564869Y-122713279D01*
X155576600Y-122674609D01*
X155595650Y-122638970D01*
X155621287Y-122607730D01*
X155652527Y-122582093D01*
X155688166Y-122563043D01*
X155726836Y-122551312D01*
X155773192Y-122546747D01*
X156849416Y-122546747D01*
X156895772Y-122551312D01*
X156895772Y-122551312D01*
G37*
G36*
X120986524Y-121113393D02*
G01*
X121135824Y-121143090D01*
X121299796Y-121211010D01*
X121447366Y-121309613D01*
X121572865Y-121435112D01*
X121671468Y-121582682D01*
X121739388Y-121746654D01*
X121774012Y-121920725D01*
X121774012Y-122098207D01*
X121739388Y-122272278D01*
X121671468Y-122436250D01*
X121572865Y-122583820D01*
X121447366Y-122709319D01*
X121299796Y-122807922D01*
X121135824Y-122875842D01*
X120986524Y-122905539D01*
X120961754Y-122910466D01*
X120784270Y-122910466D01*
X120759500Y-122905539D01*
X120610200Y-122875842D01*
X120446228Y-122807922D01*
X120298658Y-122709319D01*
X120173159Y-122583820D01*
X120074556Y-122436250D01*
X120006636Y-122272278D01*
X119972012Y-122098207D01*
X119972012Y-121920725D01*
X120006636Y-121746654D01*
X120074556Y-121582682D01*
X120173159Y-121435112D01*
X120298658Y-121309613D01*
X120446228Y-121211010D01*
X120610200Y-121143090D01*
X120759500Y-121113393D01*
X120784270Y-121108466D01*
X120961754Y-121108466D01*
X120986524Y-121113393D01*
X120986524Y-121113393D01*
G37*
G36*
X166339780Y-122844213D02*
G01*
X163737780Y-122844213D01*
X163737780Y-121542213D01*
X166339780Y-121542213D01*
X166339780Y-122844213D01*
X166339780Y-122844213D01*
G37*
G36*
X171839780Y-122844213D02*
G01*
X169237780Y-122844213D01*
X169237780Y-121542213D01*
X171839780Y-121542213D01*
X171839780Y-122844213D01*
X171839780Y-122844213D01*
G37*
G36*
X130900324Y-121211269D02*
G01*
X130938994Y-121223000D01*
X130974633Y-121242050D01*
X131005873Y-121267687D01*
X131031510Y-121298927D01*
X131050560Y-121334566D01*
X131062291Y-121373236D01*
X131066856Y-121419592D01*
X131066856Y-122495816D01*
X131062291Y-122542172D01*
X131050560Y-122580842D01*
X131031510Y-122616481D01*
X131005873Y-122647721D01*
X130974633Y-122673358D01*
X130938994Y-122692408D01*
X130900324Y-122704139D01*
X130853968Y-122708704D01*
X130202744Y-122708704D01*
X130156388Y-122704139D01*
X130117718Y-122692408D01*
X130082079Y-122673358D01*
X130050839Y-122647721D01*
X130025202Y-122616481D01*
X130006152Y-122580842D01*
X129994421Y-122542172D01*
X129989856Y-122495816D01*
X129989856Y-121419592D01*
X129994421Y-121373236D01*
X130006152Y-121334566D01*
X130025202Y-121298927D01*
X130050839Y-121267687D01*
X130082079Y-121242050D01*
X130117718Y-121223000D01*
X130156388Y-121211269D01*
X130202744Y-121206704D01*
X130853968Y-121206704D01*
X130900324Y-121211269D01*
X130900324Y-121211269D01*
G37*
G36*
X132775324Y-121211269D02*
G01*
X132813994Y-121223000D01*
X132849633Y-121242050D01*
X132880873Y-121267687D01*
X132906510Y-121298927D01*
X132925560Y-121334566D01*
X132937291Y-121373236D01*
X132941856Y-121419592D01*
X132941856Y-122495816D01*
X132937291Y-122542172D01*
X132925560Y-122580842D01*
X132906510Y-122616481D01*
X132880873Y-122647721D01*
X132849633Y-122673358D01*
X132813994Y-122692408D01*
X132775324Y-122704139D01*
X132728968Y-122708704D01*
X132077744Y-122708704D01*
X132031388Y-122704139D01*
X131992718Y-122692408D01*
X131957079Y-122673358D01*
X131925839Y-122647721D01*
X131900202Y-122616481D01*
X131881152Y-122580842D01*
X131869421Y-122542172D01*
X131864856Y-122495816D01*
X131864856Y-121419592D01*
X131869421Y-121373236D01*
X131881152Y-121334566D01*
X131900202Y-121298927D01*
X131925839Y-121267687D01*
X131957079Y-121242050D01*
X131992718Y-121223000D01*
X132031388Y-121211269D01*
X132077744Y-121206704D01*
X132728968Y-121206704D01*
X132775324Y-121211269D01*
X132775324Y-121211269D01*
G37*
G36*
X156895772Y-120676312D02*
G01*
X156934442Y-120688043D01*
X156970081Y-120707093D01*
X157001321Y-120732730D01*
X157026958Y-120763970D01*
X157046008Y-120799609D01*
X157057739Y-120838279D01*
X157062304Y-120884635D01*
X157062304Y-121535859D01*
X157057739Y-121582215D01*
X157046008Y-121620885D01*
X157026958Y-121656524D01*
X157001321Y-121687764D01*
X156970081Y-121713401D01*
X156934442Y-121732451D01*
X156895772Y-121744182D01*
X156849416Y-121748747D01*
X155773192Y-121748747D01*
X155726836Y-121744182D01*
X155688166Y-121732451D01*
X155652527Y-121713401D01*
X155621287Y-121687764D01*
X155595650Y-121656524D01*
X155576600Y-121620885D01*
X155564869Y-121582215D01*
X155560304Y-121535859D01*
X155560304Y-120884635D01*
X155564869Y-120838279D01*
X155576600Y-120799609D01*
X155595650Y-120763970D01*
X155621287Y-120732730D01*
X155652527Y-120707093D01*
X155688166Y-120688043D01*
X155726836Y-120676312D01*
X155773192Y-120671747D01*
X156849416Y-120671747D01*
X156895772Y-120676312D01*
X156895772Y-120676312D01*
G37*
G36*
X145593224Y-121666506D02*
G01*
X143891224Y-121666506D01*
X143891224Y-119964506D01*
X145593224Y-119964506D01*
X145593224Y-121666506D01*
X145593224Y-121666506D01*
G37*
G36*
X153213224Y-121666506D02*
G01*
X151511224Y-121666506D01*
X151511224Y-119964506D01*
X153213224Y-119964506D01*
X153213224Y-121666506D01*
X153213224Y-121666506D01*
G37*
G36*
X166339780Y-120344213D02*
G01*
X163737780Y-120344213D01*
X163737780Y-119042213D01*
X166339780Y-119042213D01*
X166339780Y-120344213D01*
X166339780Y-120344213D01*
G37*
G36*
X171839780Y-120344213D02*
G01*
X169237780Y-120344213D01*
X169237780Y-119042213D01*
X171839780Y-119042213D01*
X171839780Y-120344213D01*
X171839780Y-120344213D01*
G37*
G36*
X159856000Y-120285800D02*
G01*
X158654000Y-120285800D01*
X158654000Y-119083800D01*
X159856000Y-119083800D01*
X159856000Y-120285800D01*
X159856000Y-120285800D01*
G37*
G36*
X162656000Y-120285800D02*
G01*
X161454000Y-120285800D01*
X161454000Y-119083800D01*
X162656000Y-119083800D01*
X162656000Y-120285800D01*
X162656000Y-120285800D01*
G37*
G36*
X145593224Y-119126506D02*
G01*
X143891224Y-119126506D01*
X143891224Y-117424506D01*
X145593224Y-117424506D01*
X145593224Y-119126506D01*
X145593224Y-119126506D01*
G37*
G36*
X153213224Y-119126506D02*
G01*
X151511224Y-119126506D01*
X151511224Y-117424506D01*
X153213224Y-117424506D01*
X153213224Y-119126506D01*
X153213224Y-119126506D01*
G37*
G36*
X131839527Y-117013335D02*
G01*
X131878197Y-117025066D01*
X131913836Y-117044116D01*
X131945076Y-117069753D01*
X131970713Y-117100993D01*
X131989763Y-117136632D01*
X132001494Y-117175302D01*
X132006059Y-117221658D01*
X132006059Y-118297882D01*
X132001494Y-118344238D01*
X131989763Y-118382908D01*
X131970713Y-118418547D01*
X131945076Y-118449787D01*
X131913836Y-118475424D01*
X131878197Y-118494474D01*
X131839527Y-118506205D01*
X131793171Y-118510770D01*
X131141947Y-118510770D01*
X131095591Y-118506205D01*
X131056921Y-118494474D01*
X131021282Y-118475424D01*
X130990042Y-118449787D01*
X130964405Y-118418547D01*
X130945355Y-118382908D01*
X130933624Y-118344238D01*
X130929059Y-118297882D01*
X130929059Y-117221658D01*
X130933624Y-117175302D01*
X130945355Y-117136632D01*
X130964405Y-117100993D01*
X130990042Y-117069753D01*
X131021282Y-117044116D01*
X131056921Y-117025066D01*
X131095591Y-117013335D01*
X131141947Y-117008770D01*
X131793171Y-117008770D01*
X131839527Y-117013335D01*
X131839527Y-117013335D01*
G37*
G36*
X129964527Y-117013335D02*
G01*
X130003197Y-117025066D01*
X130038836Y-117044116D01*
X130070076Y-117069753D01*
X130095713Y-117100993D01*
X130114763Y-117136632D01*
X130126494Y-117175302D01*
X130131059Y-117221658D01*
X130131059Y-118297882D01*
X130126494Y-118344238D01*
X130114763Y-118382908D01*
X130095713Y-118418547D01*
X130070076Y-118449787D01*
X130038836Y-118475424D01*
X130003197Y-118494474D01*
X129964527Y-118506205D01*
X129918171Y-118510770D01*
X129266947Y-118510770D01*
X129220591Y-118506205D01*
X129181921Y-118494474D01*
X129146282Y-118475424D01*
X129115042Y-118449787D01*
X129089405Y-118418547D01*
X129070355Y-118382908D01*
X129058624Y-118344238D01*
X129054059Y-118297882D01*
X129054059Y-117221658D01*
X129058624Y-117175302D01*
X129070355Y-117136632D01*
X129089405Y-117100993D01*
X129115042Y-117069753D01*
X129146282Y-117044116D01*
X129181921Y-117025066D01*
X129220591Y-117013335D01*
X129266947Y-117008770D01*
X129918171Y-117008770D01*
X129964527Y-117013335D01*
X129964527Y-117013335D01*
G37*
G36*
X166166231Y-115568484D02*
G01*
X166204901Y-115580215D01*
X166240540Y-115599265D01*
X166271780Y-115624902D01*
X166297417Y-115656142D01*
X166316467Y-115691781D01*
X166328198Y-115730451D01*
X166332763Y-115776807D01*
X166332763Y-116853031D01*
X166328198Y-116899387D01*
X166316467Y-116938057D01*
X166297417Y-116973696D01*
X166271780Y-117004936D01*
X166240540Y-117030573D01*
X166204901Y-117049623D01*
X166166231Y-117061354D01*
X166119875Y-117065919D01*
X165468651Y-117065919D01*
X165422295Y-117061354D01*
X165383625Y-117049623D01*
X165347986Y-117030573D01*
X165316746Y-117004936D01*
X165291109Y-116973696D01*
X165272059Y-116938057D01*
X165260328Y-116899387D01*
X165255763Y-116853031D01*
X165255763Y-115776807D01*
X165260328Y-115730451D01*
X165272059Y-115691781D01*
X165291109Y-115656142D01*
X165316746Y-115624902D01*
X165347986Y-115599265D01*
X165383625Y-115580215D01*
X165422295Y-115568484D01*
X165468651Y-115563919D01*
X166119875Y-115563919D01*
X166166231Y-115568484D01*
X166166231Y-115568484D01*
G37*
G36*
X168041231Y-115568484D02*
G01*
X168079901Y-115580215D01*
X168115540Y-115599265D01*
X168146780Y-115624902D01*
X168172417Y-115656142D01*
X168191467Y-115691781D01*
X168203198Y-115730451D01*
X168207763Y-115776807D01*
X168207763Y-116853031D01*
X168203198Y-116899387D01*
X168191467Y-116938057D01*
X168172417Y-116973696D01*
X168146780Y-117004936D01*
X168115540Y-117030573D01*
X168079901Y-117049623D01*
X168041231Y-117061354D01*
X167994875Y-117065919D01*
X167343651Y-117065919D01*
X167297295Y-117061354D01*
X167258625Y-117049623D01*
X167222986Y-117030573D01*
X167191746Y-117004936D01*
X167166109Y-116973696D01*
X167147059Y-116938057D01*
X167135328Y-116899387D01*
X167130763Y-116853031D01*
X167130763Y-115776807D01*
X167135328Y-115730451D01*
X167147059Y-115691781D01*
X167166109Y-115656142D01*
X167191746Y-115624902D01*
X167222986Y-115599265D01*
X167258625Y-115580215D01*
X167297295Y-115568484D01*
X167343651Y-115563919D01*
X167994875Y-115563919D01*
X168041231Y-115568484D01*
X168041231Y-115568484D01*
G37*
G36*
X167185428Y-112397941D02*
G01*
X167221163Y-112411391D01*
X167253591Y-112431556D01*
X167281466Y-112457663D01*
X167307300Y-112493715D01*
X167781759Y-113315503D01*
X167800065Y-113355907D01*
X167808737Y-113393095D01*
X167809986Y-113431260D01*
X167803765Y-113468942D01*
X167790315Y-113504677D01*
X167770150Y-113537105D01*
X167744044Y-113564978D01*
X167707991Y-113590814D01*
X166453192Y-114315273D01*
X166412785Y-114333580D01*
X166375599Y-114342251D01*
X166337434Y-114343500D01*
X166299752Y-114337279D01*
X166264017Y-114323829D01*
X166231589Y-114303664D01*
X166203714Y-114277557D01*
X166177880Y-114241505D01*
X165703421Y-113419717D01*
X165685115Y-113379313D01*
X165676443Y-113342125D01*
X165675194Y-113303960D01*
X165681415Y-113266278D01*
X165694865Y-113230543D01*
X165715030Y-113198115D01*
X165741136Y-113170242D01*
X165777189Y-113144406D01*
X167031988Y-112419947D01*
X167072395Y-112401640D01*
X167109581Y-112392969D01*
X167147746Y-112391720D01*
X167185428Y-112397941D01*
X167185428Y-112397941D01*
G37*
G36*
X130205236Y-112228612D02*
G01*
X130242422Y-112237283D01*
X130282829Y-112255590D01*
X131537628Y-112980049D01*
X131573681Y-113005885D01*
X131599787Y-113033758D01*
X131619952Y-113066186D01*
X131633402Y-113101921D01*
X131639623Y-113139603D01*
X131638374Y-113177768D01*
X131629702Y-113214956D01*
X131611396Y-113255360D01*
X131136937Y-114077148D01*
X131111103Y-114113200D01*
X131083228Y-114139307D01*
X131050800Y-114159472D01*
X131015065Y-114172922D01*
X130977383Y-114179143D01*
X130939218Y-114177894D01*
X130902032Y-114169223D01*
X130861625Y-114150916D01*
X129606826Y-113426457D01*
X129570773Y-113400621D01*
X129544667Y-113372748D01*
X129524502Y-113340320D01*
X129511052Y-113304585D01*
X129504831Y-113266903D01*
X129506080Y-113228738D01*
X129514752Y-113191550D01*
X129533058Y-113151146D01*
X130007517Y-112329358D01*
X130033351Y-112293306D01*
X130061226Y-112267199D01*
X130093654Y-112247034D01*
X130129389Y-112233584D01*
X130167071Y-112227363D01*
X130205236Y-112228612D01*
X130205236Y-112228612D01*
G37*
G36*
X185895882Y-111898083D02*
G01*
X184422772Y-112748583D01*
X182949663Y-113599083D01*
X182949662Y-113599083D01*
X181148662Y-110479659D01*
X182621772Y-109629159D01*
X184094881Y-108778659D01*
X184094882Y-108778659D01*
X185895882Y-111898083D01*
X185895882Y-111898083D01*
G37*
G36*
X114696042Y-109459615D02*
G01*
X116169152Y-110310115D01*
X114368152Y-113429539D01*
X114368151Y-113429539D01*
X112775918Y-112510263D01*
X111421932Y-111728539D01*
X113222932Y-108609115D01*
X113222933Y-108609115D01*
X114696042Y-109459615D01*
X114696042Y-109459615D01*
G37*
G36*
X165785428Y-109973069D02*
G01*
X165821163Y-109986519D01*
X165853591Y-110006684D01*
X165881466Y-110032791D01*
X165907300Y-110068843D01*
X166381759Y-110890631D01*
X166400065Y-110931035D01*
X166408737Y-110968223D01*
X166409986Y-111006388D01*
X166403765Y-111044070D01*
X166390315Y-111079805D01*
X166370150Y-111112233D01*
X166344044Y-111140106D01*
X166307991Y-111165942D01*
X165053192Y-111890401D01*
X165012785Y-111908708D01*
X164975599Y-111917379D01*
X164937434Y-111918628D01*
X164899752Y-111912407D01*
X164864017Y-111898957D01*
X164831589Y-111878792D01*
X164803714Y-111852685D01*
X164777880Y-111816633D01*
X164303421Y-110994845D01*
X164285115Y-110954441D01*
X164276443Y-110917253D01*
X164275194Y-110879088D01*
X164281415Y-110841406D01*
X164294865Y-110805671D01*
X164315030Y-110773243D01*
X164341136Y-110745370D01*
X164377189Y-110719534D01*
X165631988Y-109995075D01*
X165672395Y-109976768D01*
X165709581Y-109968097D01*
X165747746Y-109966848D01*
X165785428Y-109973069D01*
X165785428Y-109973069D01*
G37*
G36*
X131605236Y-109803740D02*
G01*
X131642422Y-109812411D01*
X131682829Y-109830718D01*
X132937628Y-110555177D01*
X132973681Y-110581013D01*
X132999787Y-110608886D01*
X133019952Y-110641314D01*
X133033402Y-110677049D01*
X133039623Y-110714731D01*
X133038374Y-110752896D01*
X133029702Y-110790084D01*
X133011396Y-110830488D01*
X132536937Y-111652276D01*
X132511103Y-111688328D01*
X132483228Y-111714435D01*
X132450800Y-111734600D01*
X132415065Y-111748050D01*
X132377383Y-111754271D01*
X132339218Y-111753022D01*
X132302032Y-111744351D01*
X132261625Y-111726044D01*
X131006826Y-111001585D01*
X130970773Y-110975749D01*
X130944667Y-110947876D01*
X130924502Y-110915448D01*
X130911052Y-110879713D01*
X130904831Y-110842031D01*
X130906080Y-110803866D01*
X130914752Y-110766678D01*
X130933058Y-110726274D01*
X131407517Y-109904486D01*
X131433351Y-109868434D01*
X131461226Y-109842327D01*
X131493654Y-109822162D01*
X131529389Y-109808712D01*
X131567071Y-109802491D01*
X131605236Y-109803740D01*
X131605236Y-109803740D01*
G37*
G36*
X156496700Y-107383785D02*
G01*
X156536064Y-107392964D01*
X156578486Y-107412185D01*
X157510524Y-107950297D01*
X157548382Y-107977427D01*
X157576010Y-108006925D01*
X157597350Y-108041241D01*
X157611586Y-108079066D01*
X157618168Y-108118933D01*
X157616846Y-108159321D01*
X157607668Y-108198682D01*
X157588442Y-108241114D01*
X157560267Y-108289915D01*
X157560265Y-108289919D01*
X157425640Y-108523096D01*
X157262838Y-108805078D01*
X157235703Y-108842945D01*
X157206206Y-108870571D01*
X157171890Y-108891911D01*
X157134065Y-108906147D01*
X157094198Y-108912729D01*
X157053810Y-108911407D01*
X157014446Y-108902228D01*
X156972024Y-108883007D01*
X156039986Y-108344895D01*
X156002128Y-108317765D01*
X155974500Y-108288267D01*
X155953160Y-108253951D01*
X155938924Y-108216126D01*
X155932342Y-108176259D01*
X155933664Y-108135871D01*
X155942842Y-108096510D01*
X155962068Y-108054078D01*
X155990243Y-108005277D01*
X155990245Y-108005273D01*
X156124870Y-107772096D01*
X156287672Y-107490114D01*
X156314807Y-107452247D01*
X156344304Y-107424621D01*
X156378620Y-107403281D01*
X156416445Y-107389045D01*
X156456312Y-107382463D01*
X156496700Y-107383785D01*
X156496700Y-107383785D01*
G37*
G36*
X140911310Y-107277527D02*
G01*
X140949135Y-107291763D01*
X140983451Y-107313103D01*
X141012948Y-107340729D01*
X141040083Y-107378596D01*
X141132645Y-107538919D01*
X141337510Y-107893755D01*
X141337512Y-107893759D01*
X141365687Y-107942560D01*
X141384913Y-107984992D01*
X141394091Y-108024353D01*
X141395413Y-108064741D01*
X141388831Y-108104608D01*
X141374595Y-108142433D01*
X141353255Y-108176749D01*
X141325627Y-108206247D01*
X141287769Y-108233377D01*
X140355731Y-108771489D01*
X140313309Y-108790710D01*
X140273945Y-108799889D01*
X140233557Y-108801211D01*
X140193690Y-108794629D01*
X140155865Y-108780393D01*
X140121549Y-108759053D01*
X140092052Y-108731427D01*
X140064917Y-108693560D01*
X139879885Y-108373075D01*
X139767490Y-108178401D01*
X139767488Y-108178397D01*
X139739313Y-108129596D01*
X139720087Y-108087164D01*
X139710909Y-108047803D01*
X139709587Y-108007415D01*
X139716169Y-107967548D01*
X139730405Y-107929723D01*
X139751745Y-107895407D01*
X139779373Y-107865909D01*
X139817231Y-107838779D01*
X140749269Y-107300667D01*
X140791691Y-107281446D01*
X140831055Y-107272267D01*
X140871443Y-107270945D01*
X140911310Y-107277527D01*
X140911310Y-107277527D01*
G37*
G36*
X157434200Y-105759987D02*
G01*
X157473564Y-105769166D01*
X157515986Y-105788387D01*
X158448024Y-106326499D01*
X158485882Y-106353629D01*
X158513510Y-106383127D01*
X158534850Y-106417443D01*
X158549086Y-106455268D01*
X158555668Y-106495135D01*
X158554346Y-106535523D01*
X158545168Y-106574884D01*
X158525942Y-106617316D01*
X158497767Y-106666117D01*
X158497765Y-106666121D01*
X158363140Y-106899298D01*
X158200338Y-107181280D01*
X158173203Y-107219147D01*
X158143706Y-107246773D01*
X158109390Y-107268113D01*
X158071565Y-107282349D01*
X158031698Y-107288931D01*
X157991310Y-107287609D01*
X157951946Y-107278430D01*
X157909524Y-107259209D01*
X156977486Y-106721097D01*
X156939628Y-106693967D01*
X156912000Y-106664469D01*
X156890660Y-106630153D01*
X156876424Y-106592328D01*
X156869842Y-106552461D01*
X156871164Y-106512073D01*
X156880342Y-106472712D01*
X156899568Y-106430280D01*
X156927743Y-106381479D01*
X156927745Y-106381475D01*
X157123022Y-106043246D01*
X157225172Y-105866316D01*
X157252307Y-105828449D01*
X157281804Y-105800823D01*
X157316120Y-105779483D01*
X157353945Y-105765247D01*
X157393812Y-105758665D01*
X157434200Y-105759987D01*
X157434200Y-105759987D01*
G37*
G36*
X139973810Y-105653729D02*
G01*
X140011635Y-105667965D01*
X140045951Y-105689305D01*
X140075448Y-105716931D01*
X140102583Y-105754798D01*
X140181132Y-105890850D01*
X140400010Y-106269957D01*
X140400012Y-106269961D01*
X140428187Y-106318762D01*
X140447413Y-106361194D01*
X140456591Y-106400555D01*
X140457913Y-106440943D01*
X140451331Y-106480810D01*
X140437095Y-106518635D01*
X140415755Y-106552951D01*
X140388127Y-106582449D01*
X140350269Y-106609579D01*
X139418231Y-107147691D01*
X139375809Y-107166912D01*
X139336445Y-107176091D01*
X139296057Y-107177413D01*
X139256190Y-107170831D01*
X139218365Y-107156595D01*
X139184049Y-107135255D01*
X139154552Y-107107629D01*
X139127417Y-107069762D01*
X138951838Y-106765649D01*
X138829990Y-106554603D01*
X138829988Y-106554599D01*
X138801813Y-106505798D01*
X138782587Y-106463366D01*
X138773409Y-106424005D01*
X138772087Y-106383617D01*
X138778669Y-106343750D01*
X138792905Y-106305925D01*
X138814245Y-106271609D01*
X138841873Y-106242111D01*
X138879731Y-106214981D01*
X139811769Y-105676869D01*
X139854191Y-105657648D01*
X139893555Y-105648469D01*
X139933943Y-105647147D01*
X139973810Y-105653729D01*
X139973810Y-105653729D01*
G37*
G36*
X182373991Y-105097988D02*
G01*
X178821554Y-107148989D01*
X176770553Y-103596552D01*
X180322990Y-101545551D01*
X182373991Y-105097988D01*
X182373991Y-105097988D01*
G37*
G36*
X120547261Y-103427008D02*
G01*
X118496260Y-106979445D01*
X114943823Y-104928444D01*
X116994824Y-101376007D01*
X120547261Y-103427008D01*
X120547261Y-103427008D01*
G37*
G36*
X152798563Y-105267710D02*
G01*
X152837927Y-105276889D01*
X152880349Y-105296110D01*
X153812387Y-105834222D01*
X153850245Y-105861352D01*
X153877873Y-105890850D01*
X153899213Y-105925166D01*
X153913449Y-105962991D01*
X153920031Y-106002858D01*
X153918709Y-106043246D01*
X153909531Y-106082607D01*
X153890305Y-106125039D01*
X153862130Y-106173840D01*
X153862128Y-106173844D01*
X153760256Y-106350291D01*
X153564701Y-106689003D01*
X153537566Y-106726870D01*
X153508069Y-106754496D01*
X153473753Y-106775836D01*
X153435928Y-106790072D01*
X153396061Y-106796654D01*
X153355673Y-106795332D01*
X153316309Y-106786153D01*
X153273887Y-106766932D01*
X152341849Y-106228820D01*
X152303991Y-106201690D01*
X152276363Y-106172192D01*
X152255023Y-106137876D01*
X152240787Y-106100051D01*
X152234205Y-106060184D01*
X152235527Y-106019796D01*
X152244705Y-105980435D01*
X152263931Y-105938003D01*
X152292106Y-105889202D01*
X152292108Y-105889198D01*
X152431856Y-105647147D01*
X152589535Y-105374039D01*
X152616670Y-105336172D01*
X152646167Y-105308546D01*
X152680483Y-105287206D01*
X152718308Y-105272970D01*
X152758175Y-105266388D01*
X152798563Y-105267710D01*
X152798563Y-105267710D01*
G37*
G36*
X153736063Y-103643912D02*
G01*
X153775427Y-103653091D01*
X153817849Y-103672312D01*
X154749887Y-104210424D01*
X154787745Y-104237554D01*
X154815373Y-104267052D01*
X154836713Y-104301368D01*
X154850949Y-104339193D01*
X154857531Y-104379060D01*
X154856209Y-104419448D01*
X154847031Y-104458809D01*
X154827805Y-104501241D01*
X154799630Y-104550042D01*
X154799628Y-104550046D01*
X154665003Y-104783223D01*
X154502201Y-105065205D01*
X154475066Y-105103072D01*
X154445569Y-105130698D01*
X154411253Y-105152038D01*
X154373428Y-105166274D01*
X154333561Y-105172856D01*
X154293173Y-105171534D01*
X154253809Y-105162355D01*
X154211387Y-105143134D01*
X153279349Y-104605022D01*
X153241491Y-104577892D01*
X153213863Y-104548394D01*
X153192523Y-104514078D01*
X153178287Y-104476253D01*
X153171705Y-104436386D01*
X153173027Y-104395998D01*
X153182205Y-104356637D01*
X153201431Y-104314205D01*
X153229606Y-104265404D01*
X153229608Y-104265400D01*
X153364233Y-104032223D01*
X153527035Y-103750241D01*
X153554170Y-103712374D01*
X153583667Y-103684748D01*
X153617983Y-103663408D01*
X153655808Y-103649172D01*
X153695675Y-103642590D01*
X153736063Y-103643912D01*
X153736063Y-103643912D01*
G37*
G36*
X150588667Y-101164319D02*
G01*
X150625207Y-101175404D01*
X150658884Y-101193405D01*
X150688404Y-101217631D01*
X150712630Y-101247151D01*
X150730631Y-101280828D01*
X150741716Y-101317368D01*
X150746063Y-101361510D01*
X150746063Y-102810434D01*
X150741716Y-102854576D01*
X150730631Y-102891116D01*
X150712630Y-102924793D01*
X150688404Y-102954313D01*
X150658884Y-102978539D01*
X150625207Y-102996540D01*
X150588667Y-103007625D01*
X150544525Y-103011972D01*
X149595601Y-103011972D01*
X149551459Y-103007625D01*
X149514919Y-102996540D01*
X149481242Y-102978539D01*
X149451722Y-102954313D01*
X149427496Y-102924793D01*
X149409495Y-102891116D01*
X149398410Y-102854576D01*
X149394063Y-102810434D01*
X149394063Y-101361510D01*
X149398410Y-101317368D01*
X149409495Y-101280828D01*
X149427496Y-101247151D01*
X149451722Y-101217631D01*
X149481242Y-101193405D01*
X149514919Y-101175404D01*
X149551459Y-101164319D01*
X149595601Y-101159972D01*
X150544525Y-101159972D01*
X150588667Y-101164319D01*
X150588667Y-101164319D01*
G37*
G36*
X147788667Y-101164319D02*
G01*
X147825207Y-101175404D01*
X147858884Y-101193405D01*
X147888404Y-101217631D01*
X147912630Y-101247151D01*
X147930631Y-101280828D01*
X147941716Y-101317368D01*
X147946063Y-101361510D01*
X147946063Y-102810434D01*
X147941716Y-102854576D01*
X147930631Y-102891116D01*
X147912630Y-102924793D01*
X147888404Y-102954313D01*
X147858884Y-102978539D01*
X147825207Y-102996540D01*
X147788667Y-103007625D01*
X147744525Y-103011972D01*
X146795601Y-103011972D01*
X146751459Y-103007625D01*
X146714919Y-102996540D01*
X146681242Y-102978539D01*
X146651722Y-102954313D01*
X146627496Y-102924793D01*
X146609495Y-102891116D01*
X146598410Y-102854576D01*
X146594063Y-102810434D01*
X146594063Y-101361510D01*
X146598410Y-101317368D01*
X146609495Y-101280828D01*
X146627496Y-101247151D01*
X146651722Y-101217631D01*
X146681242Y-101193405D01*
X146714919Y-101175404D01*
X146751459Y-101164319D01*
X146795601Y-101159972D01*
X147744525Y-101159972D01*
X147788667Y-101164319D01*
X147788667Y-101164319D01*
G37*
G36*
X191383678Y-98430538D02*
G01*
X191419413Y-98443988D01*
X191451841Y-98464153D01*
X191479716Y-98490260D01*
X191505550Y-98526312D01*
X191980009Y-99348100D01*
X191998315Y-99388504D01*
X192006987Y-99425692D01*
X192008236Y-99463857D01*
X192002015Y-99501539D01*
X191988565Y-99537274D01*
X191968400Y-99569702D01*
X191942294Y-99597575D01*
X191906241Y-99623411D01*
X190651442Y-100347870D01*
X190611035Y-100366177D01*
X190573849Y-100374848D01*
X190535684Y-100376097D01*
X190498002Y-100369876D01*
X190462267Y-100356426D01*
X190429839Y-100336261D01*
X190401964Y-100310154D01*
X190376130Y-100274102D01*
X189901671Y-99452314D01*
X189883365Y-99411910D01*
X189874693Y-99374722D01*
X189873444Y-99336557D01*
X189879665Y-99298875D01*
X189893115Y-99263140D01*
X189913280Y-99230712D01*
X189939386Y-99202839D01*
X189975439Y-99177003D01*
X191230238Y-98452544D01*
X191270645Y-98434237D01*
X191307831Y-98425566D01*
X191345996Y-98424317D01*
X191383678Y-98430538D01*
X191383678Y-98430538D01*
G37*
G36*
X106009986Y-98256018D02*
G01*
X106047172Y-98264689D01*
X106087579Y-98282996D01*
X107342378Y-99007455D01*
X107378431Y-99033291D01*
X107404537Y-99061164D01*
X107424702Y-99093592D01*
X107438152Y-99129327D01*
X107444373Y-99167009D01*
X107443124Y-99205174D01*
X107434452Y-99242362D01*
X107416146Y-99282766D01*
X106941687Y-100104554D01*
X106915853Y-100140606D01*
X106887978Y-100166713D01*
X106855550Y-100186878D01*
X106819815Y-100200328D01*
X106782133Y-100206549D01*
X106743968Y-100205300D01*
X106706782Y-100196629D01*
X106666375Y-100178322D01*
X105411576Y-99453863D01*
X105375523Y-99428027D01*
X105349417Y-99400154D01*
X105329252Y-99367726D01*
X105315802Y-99331991D01*
X105309581Y-99294309D01*
X105310830Y-99256144D01*
X105319502Y-99218956D01*
X105337808Y-99178552D01*
X105812267Y-98356764D01*
X105838101Y-98320712D01*
X105865976Y-98294605D01*
X105898404Y-98274440D01*
X105934139Y-98260990D01*
X105971821Y-98254769D01*
X106009986Y-98256018D01*
X106009986Y-98256018D01*
G37*
G36*
X177995882Y-98214881D02*
G01*
X176578354Y-99033291D01*
X175049663Y-99915881D01*
X175049662Y-99915881D01*
X173248662Y-96796457D01*
X174861057Y-95865541D01*
X176194881Y-95095457D01*
X176194882Y-95095457D01*
X177995882Y-98214881D01*
X177995882Y-98214881D01*
G37*
G36*
X122596042Y-95776413D02*
G01*
X124069152Y-96626913D01*
X122268152Y-99746337D01*
X122268151Y-99746337D01*
X120290539Y-98604562D01*
X119321932Y-98045337D01*
X121122932Y-94925913D01*
X121122933Y-94925913D01*
X122596042Y-95776413D01*
X122596042Y-95776413D01*
G37*
G36*
X135385827Y-97154067D02*
G01*
X135576310Y-97232968D01*
X135622595Y-97252140D01*
X135835679Y-97394518D01*
X136016893Y-97575732D01*
X136147873Y-97771757D01*
X136159272Y-97788818D01*
X136257344Y-98025584D01*
X136307340Y-98276932D01*
X136307340Y-98533210D01*
X136257344Y-98784558D01*
X136177948Y-98976236D01*
X136159271Y-99021326D01*
X136016893Y-99234410D01*
X135835679Y-99415624D01*
X135622595Y-99558002D01*
X135622594Y-99558003D01*
X135622593Y-99558003D01*
X135385827Y-99656075D01*
X135134479Y-99706071D01*
X134878201Y-99706071D01*
X134626853Y-99656075D01*
X134390087Y-99558003D01*
X134390086Y-99558003D01*
X134390085Y-99558002D01*
X134177001Y-99415624D01*
X133995787Y-99234410D01*
X133853409Y-99021326D01*
X133834732Y-98976236D01*
X133755336Y-98784558D01*
X133705340Y-98533210D01*
X133705340Y-98276932D01*
X133755336Y-98025584D01*
X133853408Y-97788818D01*
X133864808Y-97771757D01*
X133995787Y-97575732D01*
X134177001Y-97394518D01*
X134390085Y-97252140D01*
X134436370Y-97232968D01*
X134626853Y-97154067D01*
X134878201Y-97104071D01*
X135134479Y-97104071D01*
X135385827Y-97154067D01*
X135385827Y-97154067D01*
G37*
G36*
X162661593Y-97281707D02*
G01*
X162810893Y-97311404D01*
X162974865Y-97379324D01*
X163122435Y-97477927D01*
X163247934Y-97603426D01*
X163346537Y-97750996D01*
X163414457Y-97914968D01*
X163449081Y-98089039D01*
X163449081Y-98266521D01*
X163414457Y-98440592D01*
X163346537Y-98604564D01*
X163247934Y-98752134D01*
X163122435Y-98877633D01*
X162974865Y-98976236D01*
X162810893Y-99044156D01*
X162661593Y-99073853D01*
X162636823Y-99078780D01*
X162459339Y-99078780D01*
X162434569Y-99073853D01*
X162285269Y-99044156D01*
X162121297Y-98976236D01*
X161973727Y-98877633D01*
X161848228Y-98752134D01*
X161749625Y-98604564D01*
X161681705Y-98440592D01*
X161647081Y-98266521D01*
X161647081Y-98089039D01*
X161681705Y-97914968D01*
X161749625Y-97750996D01*
X161848228Y-97603426D01*
X161973727Y-97477927D01*
X162121297Y-97379324D01*
X162285269Y-97311404D01*
X162434569Y-97281707D01*
X162459339Y-97276780D01*
X162636823Y-97276780D01*
X162661593Y-97281707D01*
X162661593Y-97281707D01*
G37*
G36*
X189983678Y-96005666D02*
G01*
X190019413Y-96019116D01*
X190051841Y-96039281D01*
X190079716Y-96065388D01*
X190105550Y-96101440D01*
X190580009Y-96923228D01*
X190598315Y-96963632D01*
X190606987Y-97000820D01*
X190608236Y-97038985D01*
X190602015Y-97076667D01*
X190588565Y-97112402D01*
X190568400Y-97144830D01*
X190542294Y-97172703D01*
X190506241Y-97198539D01*
X189251442Y-97922998D01*
X189211035Y-97941305D01*
X189173849Y-97949976D01*
X189135684Y-97951225D01*
X189098002Y-97945004D01*
X189062267Y-97931554D01*
X189029839Y-97911389D01*
X189001964Y-97885282D01*
X188976130Y-97849230D01*
X188501671Y-97027442D01*
X188483365Y-96987038D01*
X188474693Y-96949850D01*
X188473444Y-96911685D01*
X188479665Y-96874003D01*
X188493115Y-96838268D01*
X188513280Y-96805840D01*
X188539386Y-96777967D01*
X188575439Y-96752131D01*
X189830238Y-96027672D01*
X189870645Y-96009365D01*
X189907831Y-96000694D01*
X189945996Y-95999445D01*
X189983678Y-96005666D01*
X189983678Y-96005666D01*
G37*
G36*
X107409986Y-95831146D02*
G01*
X107447172Y-95839817D01*
X107487579Y-95858124D01*
X108742378Y-96582583D01*
X108778431Y-96608419D01*
X108804537Y-96636292D01*
X108824702Y-96668720D01*
X108838152Y-96704455D01*
X108844373Y-96742137D01*
X108843124Y-96780302D01*
X108834452Y-96817490D01*
X108816146Y-96857894D01*
X108341687Y-97679682D01*
X108315853Y-97715734D01*
X108287978Y-97741841D01*
X108255550Y-97762006D01*
X108219815Y-97775456D01*
X108182133Y-97781677D01*
X108143968Y-97780428D01*
X108106782Y-97771757D01*
X108066375Y-97753450D01*
X106811576Y-97028991D01*
X106775523Y-97003155D01*
X106749417Y-96975282D01*
X106729252Y-96942854D01*
X106715802Y-96907119D01*
X106709581Y-96869437D01*
X106710830Y-96831272D01*
X106719502Y-96794084D01*
X106737808Y-96753680D01*
X107212267Y-95931892D01*
X107238101Y-95895840D01*
X107265976Y-95869733D01*
X107298404Y-95849568D01*
X107334139Y-95836118D01*
X107371821Y-95829897D01*
X107409986Y-95831146D01*
X107409986Y-95831146D01*
G37*
G36*
X150724060Y-88515980D02*
G01*
X146622060Y-88515980D01*
X146622060Y-84413980D01*
X150724060Y-84413980D01*
X150724060Y-88515980D01*
X150724060Y-88515980D01*
G37*
G36*
X142574060Y-88165980D02*
G01*
X138972060Y-88165980D01*
X138972060Y-84763980D01*
X142574060Y-84763980D01*
X142574060Y-88165980D01*
X142574060Y-88165980D01*
G37*
G36*
X158374060Y-88165980D02*
G01*
X154772060Y-88165980D01*
X154772060Y-84763980D01*
X158374060Y-84763980D01*
X158374060Y-88165980D01*
X158374060Y-88165980D01*
G37*
G36*
X147791664Y-73224325D02*
G01*
X147828204Y-73235410D01*
X147861881Y-73253411D01*
X147891401Y-73277637D01*
X147915627Y-73307157D01*
X147933628Y-73340834D01*
X147944713Y-73377374D01*
X147949060Y-73421516D01*
X147949060Y-74870440D01*
X147944713Y-74914582D01*
X147933628Y-74951122D01*
X147915627Y-74984799D01*
X147891401Y-75014319D01*
X147861881Y-75038545D01*
X147828204Y-75056546D01*
X147791664Y-75067631D01*
X147747522Y-75071978D01*
X146798598Y-75071978D01*
X146754456Y-75067631D01*
X146717916Y-75056546D01*
X146684239Y-75038545D01*
X146654719Y-75014319D01*
X146630493Y-74984799D01*
X146612492Y-74951122D01*
X146601407Y-74914582D01*
X146597060Y-74870440D01*
X146597060Y-73421516D01*
X146601407Y-73377374D01*
X146612492Y-73340834D01*
X146630493Y-73307157D01*
X146654719Y-73277637D01*
X146684239Y-73253411D01*
X146717916Y-73235410D01*
X146754456Y-73224325D01*
X146798598Y-73219978D01*
X147747522Y-73219978D01*
X147791664Y-73224325D01*
X147791664Y-73224325D01*
G37*
G36*
X150591664Y-73224325D02*
G01*
X150628204Y-73235410D01*
X150661881Y-73253411D01*
X150691401Y-73277637D01*
X150715627Y-73307157D01*
X150733628Y-73340834D01*
X150744713Y-73377374D01*
X150749060Y-73421516D01*
X150749060Y-74870440D01*
X150744713Y-74914582D01*
X150733628Y-74951122D01*
X150715627Y-74984799D01*
X150691401Y-75014319D01*
X150661881Y-75038545D01*
X150628204Y-75056546D01*
X150591664Y-75067631D01*
X150547522Y-75071978D01*
X149598598Y-75071978D01*
X149554456Y-75067631D01*
X149517916Y-75056546D01*
X149484239Y-75038545D01*
X149454719Y-75014319D01*
X149430493Y-74984799D01*
X149412492Y-74951122D01*
X149401407Y-74914582D01*
X149397060Y-74870440D01*
X149397060Y-73421516D01*
X149401407Y-73377374D01*
X149412492Y-73340834D01*
X149430493Y-73307157D01*
X149454719Y-73277637D01*
X149484239Y-73253411D01*
X149517916Y-73235410D01*
X149554456Y-73224325D01*
X149598598Y-73219978D01*
X150547522Y-73219978D01*
X150591664Y-73224325D01*
X150591664Y-73224325D01*
G37*
M02*
