G04 #@! TF.GenerationSoftware,KiCad,Pcbnew,(5.1.0)-1*
G04 #@! TF.CreationDate,2019-12-07T09:56:38-05:00*
G04 #@! TF.ProjectId,snowflake,736e6f77-666c-4616-9b65-2e6b69636164,rev?*
G04 #@! TF.SameCoordinates,Original*
G04 #@! TF.FileFunction,Copper,L2,Bot*
G04 #@! TF.FilePolarity,Positive*
%FSLAX46Y46*%
G04 Gerber Fmt 4.6, Leading zero omitted, Abs format (unit mm)*
G04 Created by KiCad (PCBNEW (5.1.0)-1) date 2019-12-07 09:56:38*
%MOMM*%
%LPD*%
G04 APERTURE LIST*
%ADD10C,1.700000*%
%ADD11C,0.800000*%
%ADD12C,0.250000*%
G04 APERTURE END LIST*
D10*
X162548081Y-98177780D03*
X162390713Y-146235264D03*
X120873012Y-122009466D03*
D11*
X183362393Y-133220079D03*
X121596902Y-146736707D03*
X140773061Y-86464977D03*
X156573063Y-86464973D03*
X113692320Y-133029658D03*
X175468636Y-146909926D03*
X128441975Y-121971939D03*
X158755550Y-104713977D03*
X149071834Y-121283467D03*
X147559620Y-122124338D03*
X148561520Y-122120204D03*
X156352045Y-157759973D03*
X144930608Y-88039773D03*
X147098265Y-88039773D03*
X179912989Y-136062473D03*
X178835502Y-137928747D03*
X120868841Y-142310164D03*
X119793533Y-140447676D03*
X175622274Y-97505670D03*
X183522272Y-111188874D03*
X140547079Y-157787411D03*
X113795540Y-111019326D03*
X121695545Y-97336121D03*
X168654484Y-122288034D03*
X138662364Y-104630836D03*
X138514336Y-139522442D03*
X176340514Y-101899302D03*
X177421055Y-103770856D03*
X118321961Y-106328936D03*
X117240375Y-108193148D03*
X152181766Y-156212617D03*
X150021883Y-156212610D03*
X158576396Y-139480639D03*
X149089497Y-123048848D03*
D12*
X140773061Y-86464977D02*
X156573063Y-86464973D01*
X113692320Y-133029658D02*
X121596902Y-146736707D01*
X175468636Y-146909926D02*
X183362393Y-133220079D01*
X128441975Y-121971939D02*
X147559620Y-122124338D01*
X158755550Y-104713977D02*
X149071834Y-121283467D01*
X149071834Y-121283467D02*
X149071834Y-121283467D01*
X147559620Y-122124338D02*
X147559620Y-122124338D01*
X144930608Y-88039775D02*
X144930608Y-88039773D01*
X147098265Y-88039773D02*
X144930608Y-88039775D01*
X179912989Y-136062473D02*
X179912989Y-136062473D01*
X178835502Y-137928747D02*
X179912989Y-136062473D01*
X120868841Y-142310164D02*
X120868841Y-142310164D01*
X119793533Y-140447676D02*
X120868841Y-142310164D01*
X175622274Y-97505670D02*
X183522272Y-111188874D01*
X156352045Y-157759973D02*
X140547079Y-157787411D01*
X113795540Y-111019326D02*
X121695545Y-97336121D01*
X148561520Y-122120204D02*
X138662364Y-104630836D01*
X148561520Y-122120204D02*
X168654484Y-122288034D01*
X138514336Y-139522442D02*
X148561520Y-122120204D01*
X117246621Y-108191473D02*
X117240375Y-108193148D01*
X118321961Y-106328936D02*
X117246621Y-108191473D01*
X177421048Y-103770853D02*
X177421055Y-103770856D01*
X176340514Y-101899302D02*
X177421048Y-103770853D01*
X152181761Y-156212616D02*
X152181766Y-156212617D01*
X150021883Y-156212610D02*
X152181761Y-156212616D01*
X158576396Y-139480639D02*
X149089497Y-123048848D01*
X148957515Y-123125047D02*
X148957515Y-123125047D01*
M02*
