G04 #@! TF.GenerationSoftware,KiCad,Pcbnew,(5.1.0)-1*
G04 #@! TF.CreationDate,2019-12-07T09:56:38-05:00*
G04 #@! TF.ProjectId,snowflake,736e6f77-666c-4616-9b65-2e6b69636164,rev?*
G04 #@! TF.SameCoordinates,Original*
G04 #@! TF.FileFunction,Copper,L1,Top*
G04 #@! TF.FilePolarity,Positive*
%FSLAX46Y46*%
G04 Gerber Fmt 4.6, Leading zero omitted, Abs format (unit mm)*
G04 Created by KiCad (PCBNEW (5.1.0)-1) date 2019-12-07 09:56:38*
%MOMM*%
%LPD*%
G04 APERTURE LIST*
%ADD10C,3.300000*%
%ADD11C,0.100000*%
%ADD12C,4.000000*%
%ADD13R,3.500000X3.300000*%
%ADD14R,4.000000X4.000000*%
%ADD15R,1.100000X1.100000*%
%ADD16C,1.700000*%
%ADD17C,0.975000*%
%ADD18C,1.250000*%
%ADD19C,1.000000*%
%ADD20R,1.600000X1.600000*%
%ADD21R,2.500000X1.200000*%
%ADD22C,0.800000*%
%ADD23C,0.250000*%
G04 APERTURE END LIST*
D10*
X113692319Y-133029656D03*
D11*
G36*
X111388377Y-132339112D02*
G01*
X114246261Y-130689112D01*
X115996261Y-133720200D01*
X113138377Y-135370200D01*
X111388377Y-132339112D01*
X111388377Y-132339112D01*
G37*
D10*
X121592319Y-146712858D03*
D11*
G36*
X119288377Y-146022314D02*
G01*
X122146261Y-144372314D01*
X123896261Y-147403402D01*
X121038377Y-149053402D01*
X119288377Y-146022314D01*
X119288377Y-146022314D01*
G37*
D12*
X117642319Y-139871257D03*
D11*
G36*
X114910268Y-139139206D02*
G01*
X118374370Y-137139206D01*
X120374370Y-140603308D01*
X116910268Y-142603308D01*
X114910268Y-139139206D01*
X114910268Y-139139206D01*
G37*
D12*
X117745542Y-104177726D03*
D11*
G36*
X117013491Y-101445675D02*
G01*
X120477593Y-103445675D01*
X118477593Y-106909777D01*
X115013491Y-104909777D01*
X117013491Y-101445675D01*
X117013491Y-101445675D01*
G37*
D10*
X113795542Y-111019327D03*
D11*
G36*
X113241600Y-108678783D02*
G01*
X116099484Y-110328783D01*
X114349484Y-113359871D01*
X111491600Y-111709871D01*
X113241600Y-108678783D01*
X113241600Y-108678783D01*
G37*
D10*
X121695542Y-97336125D03*
D11*
G36*
X121141600Y-94995581D02*
G01*
X123999484Y-96645581D01*
X122249484Y-99676669D01*
X119391600Y-98026669D01*
X121141600Y-94995581D01*
X121141600Y-94995581D01*
G37*
D13*
X156573060Y-86464980D03*
X140773060Y-86464980D03*
D14*
X148673060Y-86464980D03*
D12*
X179572272Y-104347270D03*
D11*
G36*
X182304323Y-105079321D02*
G01*
X178840221Y-107079321D01*
X176840221Y-103615219D01*
X180304323Y-101615219D01*
X182304323Y-105079321D01*
X182304323Y-105079321D01*
G37*
D10*
X175622272Y-97505669D03*
D11*
G36*
X177926214Y-98196213D02*
G01*
X175068330Y-99846213D01*
X173318330Y-96815125D01*
X176176214Y-95165125D01*
X177926214Y-98196213D01*
X177926214Y-98196213D01*
G37*
D10*
X183522272Y-111188871D03*
D11*
G36*
X185826214Y-111879415D02*
G01*
X182968330Y-113529415D01*
X181218330Y-110498327D01*
X184076214Y-108848327D01*
X185826214Y-111879415D01*
X185826214Y-111879415D01*
G37*
D10*
X175461915Y-146921563D03*
D11*
G36*
X176015857Y-149262107D02*
G01*
X173157973Y-147612107D01*
X174907973Y-144581019D01*
X177765857Y-146231019D01*
X176015857Y-149262107D01*
X176015857Y-149262107D01*
G37*
D10*
X183361915Y-133238361D03*
D11*
G36*
X183915857Y-135578905D02*
G01*
X181057973Y-133928905D01*
X182807973Y-130897817D01*
X185665857Y-132547817D01*
X183915857Y-135578905D01*
X183915857Y-135578905D01*
G37*
D12*
X179411915Y-140079962D03*
D11*
G36*
X180143966Y-142812013D02*
G01*
X176679864Y-140812013D01*
X178679864Y-137347911D01*
X182143966Y-139347911D01*
X180143966Y-142812013D01*
X180143966Y-142812013D01*
G37*
D13*
X140547085Y-157787408D03*
X156347085Y-157787408D03*
D14*
X148447085Y-157787408D03*
D15*
X159255000Y-119684800D03*
X162055000Y-119684800D03*
D16*
X162548081Y-98177780D03*
D11*
G36*
X129860201Y-117060944D02*
G01*
X129883862Y-117064454D01*
X129907066Y-117070266D01*
X129929588Y-117078324D01*
X129951212Y-117088552D01*
X129971729Y-117100849D01*
X129990942Y-117115099D01*
X130008666Y-117131163D01*
X130024730Y-117148887D01*
X130038980Y-117168100D01*
X130051277Y-117188617D01*
X130061505Y-117210241D01*
X130069563Y-117232763D01*
X130075375Y-117255967D01*
X130078885Y-117279628D01*
X130080059Y-117303520D01*
X130080059Y-118216020D01*
X130078885Y-118239912D01*
X130075375Y-118263573D01*
X130069563Y-118286777D01*
X130061505Y-118309299D01*
X130051277Y-118330923D01*
X130038980Y-118351440D01*
X130024730Y-118370653D01*
X130008666Y-118388377D01*
X129990942Y-118404441D01*
X129971729Y-118418691D01*
X129951212Y-118430988D01*
X129929588Y-118441216D01*
X129907066Y-118449274D01*
X129883862Y-118455086D01*
X129860201Y-118458596D01*
X129836309Y-118459770D01*
X129348809Y-118459770D01*
X129324917Y-118458596D01*
X129301256Y-118455086D01*
X129278052Y-118449274D01*
X129255530Y-118441216D01*
X129233906Y-118430988D01*
X129213389Y-118418691D01*
X129194176Y-118404441D01*
X129176452Y-118388377D01*
X129160388Y-118370653D01*
X129146138Y-118351440D01*
X129133841Y-118330923D01*
X129123613Y-118309299D01*
X129115555Y-118286777D01*
X129109743Y-118263573D01*
X129106233Y-118239912D01*
X129105059Y-118216020D01*
X129105059Y-117303520D01*
X129106233Y-117279628D01*
X129109743Y-117255967D01*
X129115555Y-117232763D01*
X129123613Y-117210241D01*
X129133841Y-117188617D01*
X129146138Y-117168100D01*
X129160388Y-117148887D01*
X129176452Y-117131163D01*
X129194176Y-117115099D01*
X129213389Y-117100849D01*
X129233906Y-117088552D01*
X129255530Y-117078324D01*
X129278052Y-117070266D01*
X129301256Y-117064454D01*
X129324917Y-117060944D01*
X129348809Y-117059770D01*
X129836309Y-117059770D01*
X129860201Y-117060944D01*
X129860201Y-117060944D01*
G37*
D17*
X129592559Y-117759770D03*
D11*
G36*
X131735201Y-117060944D02*
G01*
X131758862Y-117064454D01*
X131782066Y-117070266D01*
X131804588Y-117078324D01*
X131826212Y-117088552D01*
X131846729Y-117100849D01*
X131865942Y-117115099D01*
X131883666Y-117131163D01*
X131899730Y-117148887D01*
X131913980Y-117168100D01*
X131926277Y-117188617D01*
X131936505Y-117210241D01*
X131944563Y-117232763D01*
X131950375Y-117255967D01*
X131953885Y-117279628D01*
X131955059Y-117303520D01*
X131955059Y-118216020D01*
X131953885Y-118239912D01*
X131950375Y-118263573D01*
X131944563Y-118286777D01*
X131936505Y-118309299D01*
X131926277Y-118330923D01*
X131913980Y-118351440D01*
X131899730Y-118370653D01*
X131883666Y-118388377D01*
X131865942Y-118404441D01*
X131846729Y-118418691D01*
X131826212Y-118430988D01*
X131804588Y-118441216D01*
X131782066Y-118449274D01*
X131758862Y-118455086D01*
X131735201Y-118458596D01*
X131711309Y-118459770D01*
X131223809Y-118459770D01*
X131199917Y-118458596D01*
X131176256Y-118455086D01*
X131153052Y-118449274D01*
X131130530Y-118441216D01*
X131108906Y-118430988D01*
X131088389Y-118418691D01*
X131069176Y-118404441D01*
X131051452Y-118388377D01*
X131035388Y-118370653D01*
X131021138Y-118351440D01*
X131008841Y-118330923D01*
X130998613Y-118309299D01*
X130990555Y-118286777D01*
X130984743Y-118263573D01*
X130981233Y-118239912D01*
X130980059Y-118216020D01*
X130980059Y-117303520D01*
X130981233Y-117279628D01*
X130984743Y-117255967D01*
X130990555Y-117232763D01*
X130998613Y-117210241D01*
X131008841Y-117188617D01*
X131021138Y-117168100D01*
X131035388Y-117148887D01*
X131051452Y-117131163D01*
X131069176Y-117115099D01*
X131088389Y-117100849D01*
X131108906Y-117088552D01*
X131130530Y-117078324D01*
X131153052Y-117070266D01*
X131176256Y-117064454D01*
X131199917Y-117060944D01*
X131223809Y-117059770D01*
X131711309Y-117059770D01*
X131735201Y-117060944D01*
X131735201Y-117060944D01*
G37*
D17*
X131467559Y-117759770D03*
D16*
X162390713Y-146235264D03*
X120873012Y-122009466D03*
D11*
G36*
X161095564Y-125202699D02*
G01*
X161119225Y-125206209D01*
X161142429Y-125212021D01*
X161164951Y-125220079D01*
X161186575Y-125230307D01*
X161207092Y-125242604D01*
X161226305Y-125256854D01*
X161244029Y-125272918D01*
X161260093Y-125290642D01*
X161274343Y-125309855D01*
X161286640Y-125330372D01*
X161296868Y-125351996D01*
X161304926Y-125374518D01*
X161310738Y-125397722D01*
X161314248Y-125421383D01*
X161315422Y-125445275D01*
X161315422Y-126357775D01*
X161314248Y-126381667D01*
X161310738Y-126405328D01*
X161304926Y-126428532D01*
X161296868Y-126451054D01*
X161286640Y-126472678D01*
X161274343Y-126493195D01*
X161260093Y-126512408D01*
X161244029Y-126530132D01*
X161226305Y-126546196D01*
X161207092Y-126560446D01*
X161186575Y-126572743D01*
X161164951Y-126582971D01*
X161142429Y-126591029D01*
X161119225Y-126596841D01*
X161095564Y-126600351D01*
X161071672Y-126601525D01*
X160584172Y-126601525D01*
X160560280Y-126600351D01*
X160536619Y-126596841D01*
X160513415Y-126591029D01*
X160490893Y-126582971D01*
X160469269Y-126572743D01*
X160448752Y-126560446D01*
X160429539Y-126546196D01*
X160411815Y-126530132D01*
X160395751Y-126512408D01*
X160381501Y-126493195D01*
X160369204Y-126472678D01*
X160358976Y-126451054D01*
X160350918Y-126428532D01*
X160345106Y-126405328D01*
X160341596Y-126381667D01*
X160340422Y-126357775D01*
X160340422Y-125445275D01*
X160341596Y-125421383D01*
X160345106Y-125397722D01*
X160350918Y-125374518D01*
X160358976Y-125351996D01*
X160369204Y-125330372D01*
X160381501Y-125309855D01*
X160395751Y-125290642D01*
X160411815Y-125272918D01*
X160429539Y-125256854D01*
X160448752Y-125242604D01*
X160469269Y-125230307D01*
X160490893Y-125220079D01*
X160513415Y-125212021D01*
X160536619Y-125206209D01*
X160560280Y-125202699D01*
X160584172Y-125201525D01*
X161071672Y-125201525D01*
X161095564Y-125202699D01*
X161095564Y-125202699D01*
G37*
D17*
X160827922Y-125901525D03*
D11*
G36*
X159220564Y-125202699D02*
G01*
X159244225Y-125206209D01*
X159267429Y-125212021D01*
X159289951Y-125220079D01*
X159311575Y-125230307D01*
X159332092Y-125242604D01*
X159351305Y-125256854D01*
X159369029Y-125272918D01*
X159385093Y-125290642D01*
X159399343Y-125309855D01*
X159411640Y-125330372D01*
X159421868Y-125351996D01*
X159429926Y-125374518D01*
X159435738Y-125397722D01*
X159439248Y-125421383D01*
X159440422Y-125445275D01*
X159440422Y-126357775D01*
X159439248Y-126381667D01*
X159435738Y-126405328D01*
X159429926Y-126428532D01*
X159421868Y-126451054D01*
X159411640Y-126472678D01*
X159399343Y-126493195D01*
X159385093Y-126512408D01*
X159369029Y-126530132D01*
X159351305Y-126546196D01*
X159332092Y-126560446D01*
X159311575Y-126572743D01*
X159289951Y-126582971D01*
X159267429Y-126591029D01*
X159244225Y-126596841D01*
X159220564Y-126600351D01*
X159196672Y-126601525D01*
X158709172Y-126601525D01*
X158685280Y-126600351D01*
X158661619Y-126596841D01*
X158638415Y-126591029D01*
X158615893Y-126582971D01*
X158594269Y-126572743D01*
X158573752Y-126560446D01*
X158554539Y-126546196D01*
X158536815Y-126530132D01*
X158520751Y-126512408D01*
X158506501Y-126493195D01*
X158494204Y-126472678D01*
X158483976Y-126451054D01*
X158475918Y-126428532D01*
X158470106Y-126405328D01*
X158466596Y-126381667D01*
X158465422Y-126357775D01*
X158465422Y-125445275D01*
X158466596Y-125421383D01*
X158470106Y-125397722D01*
X158475918Y-125374518D01*
X158483976Y-125351996D01*
X158494204Y-125330372D01*
X158506501Y-125309855D01*
X158520751Y-125290642D01*
X158536815Y-125272918D01*
X158554539Y-125256854D01*
X158573752Y-125242604D01*
X158594269Y-125230307D01*
X158615893Y-125220079D01*
X158638415Y-125212021D01*
X158661619Y-125206209D01*
X158685280Y-125202699D01*
X158709172Y-125201525D01*
X159196672Y-125201525D01*
X159220564Y-125202699D01*
X159220564Y-125202699D01*
G37*
D17*
X158952922Y-125901525D03*
D11*
G36*
X157956224Y-130128859D02*
G01*
X157979988Y-130131593D01*
X158003369Y-130136643D01*
X158026143Y-130143960D01*
X158048090Y-130153474D01*
X158068999Y-130165094D01*
X158088668Y-130178707D01*
X158106908Y-130194183D01*
X158123543Y-130211372D01*
X158138413Y-130230108D01*
X158151376Y-130250212D01*
X158607626Y-131040460D01*
X158618555Y-131061738D01*
X158627346Y-131083984D01*
X158633915Y-131106985D01*
X158638197Y-131130519D01*
X158640151Y-131154360D01*
X158639760Y-131178277D01*
X158637026Y-131202041D01*
X158631976Y-131225422D01*
X158624659Y-131248196D01*
X158615145Y-131270143D01*
X158603525Y-131291052D01*
X158589912Y-131310721D01*
X158574436Y-131328961D01*
X158557248Y-131345596D01*
X158538511Y-131360466D01*
X158518407Y-131373429D01*
X158096219Y-131617179D01*
X158074941Y-131628108D01*
X158052695Y-131636899D01*
X158029694Y-131643468D01*
X158006160Y-131647750D01*
X157982319Y-131649704D01*
X157958402Y-131649313D01*
X157934638Y-131646579D01*
X157911257Y-131641529D01*
X157888483Y-131634212D01*
X157866536Y-131624698D01*
X157845627Y-131613078D01*
X157825958Y-131599465D01*
X157807718Y-131583989D01*
X157791083Y-131566800D01*
X157776213Y-131548064D01*
X157763250Y-131527960D01*
X157307000Y-130737712D01*
X157296071Y-130716434D01*
X157287280Y-130694188D01*
X157280711Y-130671187D01*
X157276429Y-130647653D01*
X157274475Y-130623812D01*
X157274866Y-130599895D01*
X157277600Y-130576131D01*
X157282650Y-130552750D01*
X157289967Y-130529976D01*
X157299481Y-130508029D01*
X157311101Y-130487120D01*
X157324714Y-130467451D01*
X157340190Y-130449211D01*
X157357378Y-130432576D01*
X157376115Y-130417706D01*
X157396219Y-130404743D01*
X157818407Y-130160993D01*
X157839685Y-130150064D01*
X157861931Y-130141273D01*
X157884932Y-130134704D01*
X157908466Y-130130422D01*
X157932307Y-130128468D01*
X157956224Y-130128859D01*
X157956224Y-130128859D01*
G37*
D17*
X157957313Y-130889086D03*
D11*
G36*
X156332426Y-131066359D02*
G01*
X156356190Y-131069093D01*
X156379571Y-131074143D01*
X156402345Y-131081460D01*
X156424292Y-131090974D01*
X156445201Y-131102594D01*
X156464870Y-131116207D01*
X156483110Y-131131683D01*
X156499745Y-131148872D01*
X156514615Y-131167608D01*
X156527578Y-131187712D01*
X156983828Y-131977960D01*
X156994757Y-131999238D01*
X157003548Y-132021484D01*
X157010117Y-132044485D01*
X157014399Y-132068019D01*
X157016353Y-132091860D01*
X157015962Y-132115777D01*
X157013228Y-132139541D01*
X157008178Y-132162922D01*
X157000861Y-132185696D01*
X156991347Y-132207643D01*
X156979727Y-132228552D01*
X156966114Y-132248221D01*
X156950638Y-132266461D01*
X156933450Y-132283096D01*
X156914713Y-132297966D01*
X156894609Y-132310929D01*
X156472421Y-132554679D01*
X156451143Y-132565608D01*
X156428897Y-132574399D01*
X156405896Y-132580968D01*
X156382362Y-132585250D01*
X156358521Y-132587204D01*
X156334604Y-132586813D01*
X156310840Y-132584079D01*
X156287459Y-132579029D01*
X156264685Y-132571712D01*
X156242738Y-132562198D01*
X156221829Y-132550578D01*
X156202160Y-132536965D01*
X156183920Y-132521489D01*
X156167285Y-132504300D01*
X156152415Y-132485564D01*
X156139452Y-132465460D01*
X155683202Y-131675212D01*
X155672273Y-131653934D01*
X155663482Y-131631688D01*
X155656913Y-131608687D01*
X155652631Y-131585153D01*
X155650677Y-131561312D01*
X155651068Y-131537395D01*
X155653802Y-131513631D01*
X155658852Y-131490250D01*
X155666169Y-131467476D01*
X155675683Y-131445529D01*
X155687303Y-131424620D01*
X155700916Y-131404951D01*
X155716392Y-131386711D01*
X155733580Y-131370076D01*
X155752317Y-131355206D01*
X155772421Y-131342243D01*
X156194609Y-131098493D01*
X156215887Y-131087564D01*
X156238133Y-131078773D01*
X156261134Y-131072204D01*
X156284668Y-131067922D01*
X156308509Y-131065968D01*
X156332426Y-131066359D01*
X156332426Y-131066359D01*
G37*
D17*
X156333515Y-131826586D03*
D11*
G36*
X153773185Y-103726839D02*
G01*
X153796719Y-103731121D01*
X153819720Y-103737690D01*
X153841966Y-103746481D01*
X153863244Y-103757410D01*
X154653492Y-104213660D01*
X154673596Y-104226623D01*
X154692333Y-104241493D01*
X154709521Y-104258128D01*
X154724997Y-104276368D01*
X154738610Y-104296037D01*
X154750230Y-104316946D01*
X154759744Y-104338893D01*
X154767061Y-104361667D01*
X154772111Y-104385048D01*
X154774845Y-104408812D01*
X154775236Y-104432729D01*
X154773282Y-104456570D01*
X154769000Y-104480104D01*
X154762431Y-104503105D01*
X154753640Y-104525351D01*
X154742711Y-104546629D01*
X154498961Y-104968817D01*
X154485998Y-104988921D01*
X154471128Y-105007657D01*
X154454493Y-105024846D01*
X154436253Y-105040322D01*
X154416584Y-105053935D01*
X154395675Y-105065555D01*
X154373728Y-105075069D01*
X154350954Y-105082386D01*
X154327573Y-105087436D01*
X154303809Y-105090170D01*
X154279892Y-105090561D01*
X154256051Y-105088607D01*
X154232517Y-105084325D01*
X154209516Y-105077756D01*
X154187270Y-105068965D01*
X154165992Y-105058036D01*
X153375744Y-104601786D01*
X153355640Y-104588823D01*
X153336903Y-104573953D01*
X153319715Y-104557318D01*
X153304239Y-104539078D01*
X153290626Y-104519409D01*
X153279006Y-104498500D01*
X153269492Y-104476553D01*
X153262175Y-104453779D01*
X153257125Y-104430398D01*
X153254391Y-104406634D01*
X153254000Y-104382717D01*
X153255954Y-104358876D01*
X153260236Y-104335342D01*
X153266805Y-104312341D01*
X153275596Y-104290095D01*
X153286525Y-104268817D01*
X153530275Y-103846629D01*
X153543238Y-103826525D01*
X153558108Y-103807789D01*
X153574743Y-103790600D01*
X153592983Y-103775124D01*
X153612652Y-103761511D01*
X153633561Y-103749891D01*
X153655508Y-103740377D01*
X153678282Y-103733060D01*
X153701663Y-103728010D01*
X153725427Y-103725276D01*
X153749344Y-103724885D01*
X153773185Y-103726839D01*
X153773185Y-103726839D01*
G37*
D17*
X154014618Y-104407723D03*
D11*
G36*
X152835685Y-105350637D02*
G01*
X152859219Y-105354919D01*
X152882220Y-105361488D01*
X152904466Y-105370279D01*
X152925744Y-105381208D01*
X153715992Y-105837458D01*
X153736096Y-105850421D01*
X153754833Y-105865291D01*
X153772021Y-105881926D01*
X153787497Y-105900166D01*
X153801110Y-105919835D01*
X153812730Y-105940744D01*
X153822244Y-105962691D01*
X153829561Y-105985465D01*
X153834611Y-106008846D01*
X153837345Y-106032610D01*
X153837736Y-106056527D01*
X153835782Y-106080368D01*
X153831500Y-106103902D01*
X153824931Y-106126903D01*
X153816140Y-106149149D01*
X153805211Y-106170427D01*
X153561461Y-106592615D01*
X153548498Y-106612719D01*
X153533628Y-106631455D01*
X153516993Y-106648644D01*
X153498753Y-106664120D01*
X153479084Y-106677733D01*
X153458175Y-106689353D01*
X153436228Y-106698867D01*
X153413454Y-106706184D01*
X153390073Y-106711234D01*
X153366309Y-106713968D01*
X153342392Y-106714359D01*
X153318551Y-106712405D01*
X153295017Y-106708123D01*
X153272016Y-106701554D01*
X153249770Y-106692763D01*
X153228492Y-106681834D01*
X152438244Y-106225584D01*
X152418140Y-106212621D01*
X152399403Y-106197751D01*
X152382215Y-106181116D01*
X152366739Y-106162876D01*
X152353126Y-106143207D01*
X152341506Y-106122298D01*
X152331992Y-106100351D01*
X152324675Y-106077577D01*
X152319625Y-106054196D01*
X152316891Y-106030432D01*
X152316500Y-106006515D01*
X152318454Y-105982674D01*
X152322736Y-105959140D01*
X152329305Y-105936139D01*
X152338096Y-105913893D01*
X152349025Y-105892615D01*
X152592775Y-105470427D01*
X152605738Y-105450323D01*
X152620608Y-105431587D01*
X152637243Y-105414398D01*
X152655483Y-105398922D01*
X152675152Y-105385309D01*
X152696061Y-105373689D01*
X152718008Y-105364175D01*
X152740782Y-105356858D01*
X152764163Y-105351808D01*
X152787927Y-105349074D01*
X152811844Y-105348683D01*
X152835685Y-105350637D01*
X152835685Y-105350637D01*
G37*
D17*
X153077118Y-106031521D03*
D11*
G36*
X143506208Y-139492502D02*
G01*
X143529742Y-139496784D01*
X143552743Y-139503353D01*
X143574989Y-139512144D01*
X143596267Y-139523073D01*
X144386515Y-139979323D01*
X144406619Y-139992286D01*
X144425356Y-140007156D01*
X144442544Y-140023791D01*
X144458020Y-140042031D01*
X144471633Y-140061700D01*
X144483253Y-140082609D01*
X144492767Y-140104556D01*
X144500084Y-140127330D01*
X144505134Y-140150711D01*
X144507868Y-140174475D01*
X144508259Y-140198392D01*
X144506305Y-140222233D01*
X144502023Y-140245767D01*
X144495454Y-140268768D01*
X144486663Y-140291014D01*
X144475734Y-140312292D01*
X144231984Y-140734480D01*
X144219021Y-140754584D01*
X144204151Y-140773320D01*
X144187516Y-140790509D01*
X144169276Y-140805985D01*
X144149607Y-140819598D01*
X144128698Y-140831218D01*
X144106751Y-140840732D01*
X144083977Y-140848049D01*
X144060596Y-140853099D01*
X144036832Y-140855833D01*
X144012915Y-140856224D01*
X143989074Y-140854270D01*
X143965540Y-140849988D01*
X143942539Y-140843419D01*
X143920293Y-140834628D01*
X143899015Y-140823699D01*
X143108767Y-140367449D01*
X143088663Y-140354486D01*
X143069926Y-140339616D01*
X143052738Y-140322981D01*
X143037262Y-140304741D01*
X143023649Y-140285072D01*
X143012029Y-140264163D01*
X143002515Y-140242216D01*
X142995198Y-140219442D01*
X142990148Y-140196061D01*
X142987414Y-140172297D01*
X142987023Y-140148380D01*
X142988977Y-140124539D01*
X142993259Y-140101005D01*
X142999828Y-140078004D01*
X143008619Y-140055758D01*
X143019548Y-140034480D01*
X143263298Y-139612292D01*
X143276261Y-139592188D01*
X143291131Y-139573452D01*
X143307766Y-139556263D01*
X143326006Y-139540787D01*
X143345675Y-139527174D01*
X143366584Y-139515554D01*
X143388531Y-139506040D01*
X143411305Y-139498723D01*
X143434686Y-139493673D01*
X143458450Y-139490939D01*
X143482367Y-139490548D01*
X143506208Y-139492502D01*
X143506208Y-139492502D01*
G37*
D17*
X143747641Y-140173386D03*
D11*
G36*
X144443708Y-137868704D02*
G01*
X144467242Y-137872986D01*
X144490243Y-137879555D01*
X144512489Y-137888346D01*
X144533767Y-137899275D01*
X145324015Y-138355525D01*
X145344119Y-138368488D01*
X145362856Y-138383358D01*
X145380044Y-138399993D01*
X145395520Y-138418233D01*
X145409133Y-138437902D01*
X145420753Y-138458811D01*
X145430267Y-138480758D01*
X145437584Y-138503532D01*
X145442634Y-138526913D01*
X145445368Y-138550677D01*
X145445759Y-138574594D01*
X145443805Y-138598435D01*
X145439523Y-138621969D01*
X145432954Y-138644970D01*
X145424163Y-138667216D01*
X145413234Y-138688494D01*
X145169484Y-139110682D01*
X145156521Y-139130786D01*
X145141651Y-139149522D01*
X145125016Y-139166711D01*
X145106776Y-139182187D01*
X145087107Y-139195800D01*
X145066198Y-139207420D01*
X145044251Y-139216934D01*
X145021477Y-139224251D01*
X144998096Y-139229301D01*
X144974332Y-139232035D01*
X144950415Y-139232426D01*
X144926574Y-139230472D01*
X144903040Y-139226190D01*
X144880039Y-139219621D01*
X144857793Y-139210830D01*
X144836515Y-139199901D01*
X144046267Y-138743651D01*
X144026163Y-138730688D01*
X144007426Y-138715818D01*
X143990238Y-138699183D01*
X143974762Y-138680943D01*
X143961149Y-138661274D01*
X143949529Y-138640365D01*
X143940015Y-138618418D01*
X143932698Y-138595644D01*
X143927648Y-138572263D01*
X143924914Y-138548499D01*
X143924523Y-138524582D01*
X143926477Y-138500741D01*
X143930759Y-138477207D01*
X143937328Y-138454206D01*
X143946119Y-138431960D01*
X143957048Y-138410682D01*
X144200798Y-137988494D01*
X144213761Y-137968390D01*
X144228631Y-137949654D01*
X144245266Y-137932465D01*
X144263506Y-137916989D01*
X144283175Y-137903376D01*
X144304084Y-137891756D01*
X144326031Y-137882242D01*
X144348805Y-137874925D01*
X144372186Y-137869875D01*
X144395950Y-137867141D01*
X144419867Y-137866750D01*
X144443708Y-137868704D01*
X144443708Y-137868704D01*
G37*
D17*
X144685141Y-138549588D03*
D11*
G36*
X167936905Y-115616093D02*
G01*
X167960566Y-115619603D01*
X167983770Y-115625415D01*
X168006292Y-115633473D01*
X168027916Y-115643701D01*
X168048433Y-115655998D01*
X168067646Y-115670248D01*
X168085370Y-115686312D01*
X168101434Y-115704036D01*
X168115684Y-115723249D01*
X168127981Y-115743766D01*
X168138209Y-115765390D01*
X168146267Y-115787912D01*
X168152079Y-115811116D01*
X168155589Y-115834777D01*
X168156763Y-115858669D01*
X168156763Y-116771169D01*
X168155589Y-116795061D01*
X168152079Y-116818722D01*
X168146267Y-116841926D01*
X168138209Y-116864448D01*
X168127981Y-116886072D01*
X168115684Y-116906589D01*
X168101434Y-116925802D01*
X168085370Y-116943526D01*
X168067646Y-116959590D01*
X168048433Y-116973840D01*
X168027916Y-116986137D01*
X168006292Y-116996365D01*
X167983770Y-117004423D01*
X167960566Y-117010235D01*
X167936905Y-117013745D01*
X167913013Y-117014919D01*
X167425513Y-117014919D01*
X167401621Y-117013745D01*
X167377960Y-117010235D01*
X167354756Y-117004423D01*
X167332234Y-116996365D01*
X167310610Y-116986137D01*
X167290093Y-116973840D01*
X167270880Y-116959590D01*
X167253156Y-116943526D01*
X167237092Y-116925802D01*
X167222842Y-116906589D01*
X167210545Y-116886072D01*
X167200317Y-116864448D01*
X167192259Y-116841926D01*
X167186447Y-116818722D01*
X167182937Y-116795061D01*
X167181763Y-116771169D01*
X167181763Y-115858669D01*
X167182937Y-115834777D01*
X167186447Y-115811116D01*
X167192259Y-115787912D01*
X167200317Y-115765390D01*
X167210545Y-115743766D01*
X167222842Y-115723249D01*
X167237092Y-115704036D01*
X167253156Y-115686312D01*
X167270880Y-115670248D01*
X167290093Y-115655998D01*
X167310610Y-115643701D01*
X167332234Y-115633473D01*
X167354756Y-115625415D01*
X167377960Y-115619603D01*
X167401621Y-115616093D01*
X167425513Y-115614919D01*
X167913013Y-115614919D01*
X167936905Y-115616093D01*
X167936905Y-115616093D01*
G37*
D17*
X167669263Y-116314919D03*
D11*
G36*
X166061905Y-115616093D02*
G01*
X166085566Y-115619603D01*
X166108770Y-115625415D01*
X166131292Y-115633473D01*
X166152916Y-115643701D01*
X166173433Y-115655998D01*
X166192646Y-115670248D01*
X166210370Y-115686312D01*
X166226434Y-115704036D01*
X166240684Y-115723249D01*
X166252981Y-115743766D01*
X166263209Y-115765390D01*
X166271267Y-115787912D01*
X166277079Y-115811116D01*
X166280589Y-115834777D01*
X166281763Y-115858669D01*
X166281763Y-116771169D01*
X166280589Y-116795061D01*
X166277079Y-116818722D01*
X166271267Y-116841926D01*
X166263209Y-116864448D01*
X166252981Y-116886072D01*
X166240684Y-116906589D01*
X166226434Y-116925802D01*
X166210370Y-116943526D01*
X166192646Y-116959590D01*
X166173433Y-116973840D01*
X166152916Y-116986137D01*
X166131292Y-116996365D01*
X166108770Y-117004423D01*
X166085566Y-117010235D01*
X166061905Y-117013745D01*
X166038013Y-117014919D01*
X165550513Y-117014919D01*
X165526621Y-117013745D01*
X165502960Y-117010235D01*
X165479756Y-117004423D01*
X165457234Y-116996365D01*
X165435610Y-116986137D01*
X165415093Y-116973840D01*
X165395880Y-116959590D01*
X165378156Y-116943526D01*
X165362092Y-116925802D01*
X165347842Y-116906589D01*
X165335545Y-116886072D01*
X165325317Y-116864448D01*
X165317259Y-116841926D01*
X165311447Y-116818722D01*
X165307937Y-116795061D01*
X165306763Y-116771169D01*
X165306763Y-115858669D01*
X165307937Y-115834777D01*
X165311447Y-115811116D01*
X165317259Y-115787912D01*
X165325317Y-115765390D01*
X165335545Y-115743766D01*
X165347842Y-115723249D01*
X165362092Y-115704036D01*
X165378156Y-115686312D01*
X165395880Y-115670248D01*
X165415093Y-115655998D01*
X165435610Y-115643701D01*
X165457234Y-115633473D01*
X165479756Y-115625415D01*
X165502960Y-115619603D01*
X165526621Y-115616093D01*
X165550513Y-115614919D01*
X166038013Y-115614919D01*
X166061905Y-115616093D01*
X166061905Y-115616093D01*
G37*
D17*
X165794263Y-116314919D03*
D11*
G36*
X167903525Y-127357909D02*
G01*
X167927186Y-127361419D01*
X167950390Y-127367231D01*
X167972912Y-127375289D01*
X167994536Y-127385517D01*
X168015053Y-127397814D01*
X168034266Y-127412064D01*
X168051990Y-127428128D01*
X168068054Y-127445852D01*
X168082304Y-127465065D01*
X168094601Y-127485582D01*
X168104829Y-127507206D01*
X168112887Y-127529728D01*
X168118699Y-127552932D01*
X168122209Y-127576593D01*
X168123383Y-127600485D01*
X168123383Y-128512985D01*
X168122209Y-128536877D01*
X168118699Y-128560538D01*
X168112887Y-128583742D01*
X168104829Y-128606264D01*
X168094601Y-128627888D01*
X168082304Y-128648405D01*
X168068054Y-128667618D01*
X168051990Y-128685342D01*
X168034266Y-128701406D01*
X168015053Y-128715656D01*
X167994536Y-128727953D01*
X167972912Y-128738181D01*
X167950390Y-128746239D01*
X167927186Y-128752051D01*
X167903525Y-128755561D01*
X167879633Y-128756735D01*
X167392133Y-128756735D01*
X167368241Y-128755561D01*
X167344580Y-128752051D01*
X167321376Y-128746239D01*
X167298854Y-128738181D01*
X167277230Y-128727953D01*
X167256713Y-128715656D01*
X167237500Y-128701406D01*
X167219776Y-128685342D01*
X167203712Y-128667618D01*
X167189462Y-128648405D01*
X167177165Y-128627888D01*
X167166937Y-128606264D01*
X167158879Y-128583742D01*
X167153067Y-128560538D01*
X167149557Y-128536877D01*
X167148383Y-128512985D01*
X167148383Y-127600485D01*
X167149557Y-127576593D01*
X167153067Y-127552932D01*
X167158879Y-127529728D01*
X167166937Y-127507206D01*
X167177165Y-127485582D01*
X167189462Y-127465065D01*
X167203712Y-127445852D01*
X167219776Y-127428128D01*
X167237500Y-127412064D01*
X167256713Y-127397814D01*
X167277230Y-127385517D01*
X167298854Y-127375289D01*
X167321376Y-127367231D01*
X167344580Y-127361419D01*
X167368241Y-127357909D01*
X167392133Y-127356735D01*
X167879633Y-127356735D01*
X167903525Y-127357909D01*
X167903525Y-127357909D01*
G37*
D17*
X167635883Y-128056735D03*
D11*
G36*
X166028525Y-127357909D02*
G01*
X166052186Y-127361419D01*
X166075390Y-127367231D01*
X166097912Y-127375289D01*
X166119536Y-127385517D01*
X166140053Y-127397814D01*
X166159266Y-127412064D01*
X166176990Y-127428128D01*
X166193054Y-127445852D01*
X166207304Y-127465065D01*
X166219601Y-127485582D01*
X166229829Y-127507206D01*
X166237887Y-127529728D01*
X166243699Y-127552932D01*
X166247209Y-127576593D01*
X166248383Y-127600485D01*
X166248383Y-128512985D01*
X166247209Y-128536877D01*
X166243699Y-128560538D01*
X166237887Y-128583742D01*
X166229829Y-128606264D01*
X166219601Y-128627888D01*
X166207304Y-128648405D01*
X166193054Y-128667618D01*
X166176990Y-128685342D01*
X166159266Y-128701406D01*
X166140053Y-128715656D01*
X166119536Y-128727953D01*
X166097912Y-128738181D01*
X166075390Y-128746239D01*
X166052186Y-128752051D01*
X166028525Y-128755561D01*
X166004633Y-128756735D01*
X165517133Y-128756735D01*
X165493241Y-128755561D01*
X165469580Y-128752051D01*
X165446376Y-128746239D01*
X165423854Y-128738181D01*
X165402230Y-128727953D01*
X165381713Y-128715656D01*
X165362500Y-128701406D01*
X165344776Y-128685342D01*
X165328712Y-128667618D01*
X165314462Y-128648405D01*
X165302165Y-128627888D01*
X165291937Y-128606264D01*
X165283879Y-128583742D01*
X165278067Y-128560538D01*
X165274557Y-128536877D01*
X165273383Y-128512985D01*
X165273383Y-127600485D01*
X165274557Y-127576593D01*
X165278067Y-127552932D01*
X165283879Y-127529728D01*
X165291937Y-127507206D01*
X165302165Y-127485582D01*
X165314462Y-127465065D01*
X165328712Y-127445852D01*
X165344776Y-127428128D01*
X165362500Y-127412064D01*
X165381713Y-127397814D01*
X165402230Y-127385517D01*
X165423854Y-127375289D01*
X165446376Y-127367231D01*
X165469580Y-127361419D01*
X165493241Y-127357909D01*
X165517133Y-127356735D01*
X166004633Y-127356735D01*
X166028525Y-127357909D01*
X166028525Y-127357909D01*
G37*
D17*
X165760883Y-128056735D03*
D11*
G36*
X130842119Y-129964195D02*
G01*
X130866492Y-129966999D01*
X130890473Y-129972179D01*
X130913831Y-129979684D01*
X130936340Y-129989442D01*
X130957785Y-130001359D01*
X130977958Y-130015322D01*
X130996666Y-130031194D01*
X131013728Y-130048824D01*
X131028980Y-130068041D01*
X131042274Y-130088660D01*
X131417274Y-130738180D01*
X131428484Y-130760003D01*
X131437501Y-130782820D01*
X131444237Y-130806411D01*
X131448629Y-130830549D01*
X131450634Y-130855000D01*
X131450233Y-130879531D01*
X131447429Y-130903904D01*
X131442249Y-130927885D01*
X131434744Y-130951243D01*
X131424986Y-130973752D01*
X131413068Y-130995197D01*
X131399106Y-131015370D01*
X131383234Y-131034078D01*
X131365604Y-131051140D01*
X131346387Y-131066392D01*
X131325768Y-131079686D01*
X130243236Y-131704686D01*
X130221413Y-131715896D01*
X130198596Y-131724913D01*
X130175005Y-131731649D01*
X130150868Y-131736041D01*
X130126416Y-131738046D01*
X130101885Y-131737645D01*
X130077512Y-131734841D01*
X130053531Y-131729661D01*
X130030173Y-131722156D01*
X130007664Y-131712398D01*
X129986219Y-131700481D01*
X129966046Y-131686518D01*
X129947338Y-131670646D01*
X129930276Y-131653016D01*
X129915024Y-131633799D01*
X129901730Y-131613180D01*
X129526730Y-130963660D01*
X129515520Y-130941837D01*
X129506503Y-130919020D01*
X129499767Y-130895429D01*
X129495375Y-130871291D01*
X129493370Y-130846840D01*
X129493771Y-130822309D01*
X129496575Y-130797936D01*
X129501755Y-130773955D01*
X129509260Y-130750597D01*
X129519018Y-130728088D01*
X129530936Y-130706643D01*
X129544898Y-130686470D01*
X129560770Y-130667762D01*
X129578400Y-130650700D01*
X129597617Y-130635448D01*
X129618236Y-130622154D01*
X130700768Y-129997154D01*
X130722591Y-129985944D01*
X130745408Y-129976927D01*
X130768999Y-129970191D01*
X130793136Y-129965799D01*
X130817588Y-129963794D01*
X130842119Y-129964195D01*
X130842119Y-129964195D01*
G37*
D18*
X130472002Y-130850920D03*
D11*
G36*
X132242119Y-132389067D02*
G01*
X132266492Y-132391871D01*
X132290473Y-132397051D01*
X132313831Y-132404556D01*
X132336340Y-132414314D01*
X132357785Y-132426231D01*
X132377958Y-132440194D01*
X132396666Y-132456066D01*
X132413728Y-132473696D01*
X132428980Y-132492913D01*
X132442274Y-132513532D01*
X132817274Y-133163052D01*
X132828484Y-133184875D01*
X132837501Y-133207692D01*
X132844237Y-133231283D01*
X132848629Y-133255421D01*
X132850634Y-133279872D01*
X132850233Y-133304403D01*
X132847429Y-133328776D01*
X132842249Y-133352757D01*
X132834744Y-133376115D01*
X132824986Y-133398624D01*
X132813068Y-133420069D01*
X132799106Y-133440242D01*
X132783234Y-133458950D01*
X132765604Y-133476012D01*
X132746387Y-133491264D01*
X132725768Y-133504558D01*
X131643236Y-134129558D01*
X131621413Y-134140768D01*
X131598596Y-134149785D01*
X131575005Y-134156521D01*
X131550868Y-134160913D01*
X131526416Y-134162918D01*
X131501885Y-134162517D01*
X131477512Y-134159713D01*
X131453531Y-134154533D01*
X131430173Y-134147028D01*
X131407664Y-134137270D01*
X131386219Y-134125353D01*
X131366046Y-134111390D01*
X131347338Y-134095518D01*
X131330276Y-134077888D01*
X131315024Y-134058671D01*
X131301730Y-134038052D01*
X130926730Y-133388532D01*
X130915520Y-133366709D01*
X130906503Y-133343892D01*
X130899767Y-133320301D01*
X130895375Y-133296163D01*
X130893370Y-133271712D01*
X130893771Y-133247181D01*
X130896575Y-133222808D01*
X130901755Y-133198827D01*
X130909260Y-133175469D01*
X130919018Y-133152960D01*
X130930936Y-133131515D01*
X130944898Y-133111342D01*
X130960770Y-133092634D01*
X130978400Y-133075572D01*
X130997617Y-133060320D01*
X131018236Y-133047026D01*
X132100768Y-132422026D01*
X132122591Y-132410816D01*
X132145408Y-132401799D01*
X132168999Y-132395063D01*
X132193136Y-132390671D01*
X132217588Y-132388666D01*
X132242119Y-132389067D01*
X132242119Y-132389067D01*
G37*
D18*
X131872002Y-133275792D03*
D11*
G36*
X108043864Y-146356472D02*
G01*
X108068237Y-146359276D01*
X108092218Y-146364456D01*
X108115576Y-146371961D01*
X108138085Y-146381719D01*
X108159530Y-146393636D01*
X108179703Y-146407599D01*
X108198411Y-146423471D01*
X108215473Y-146441101D01*
X108230725Y-146460318D01*
X108244019Y-146480937D01*
X108619019Y-147130457D01*
X108630229Y-147152280D01*
X108639246Y-147175097D01*
X108645982Y-147198688D01*
X108650374Y-147222826D01*
X108652379Y-147247277D01*
X108651978Y-147271808D01*
X108649174Y-147296181D01*
X108643994Y-147320162D01*
X108636489Y-147343520D01*
X108626731Y-147366029D01*
X108614813Y-147387474D01*
X108600851Y-147407647D01*
X108584979Y-147426355D01*
X108567349Y-147443417D01*
X108548132Y-147458669D01*
X108527513Y-147471963D01*
X107444981Y-148096963D01*
X107423158Y-148108173D01*
X107400341Y-148117190D01*
X107376750Y-148123926D01*
X107352613Y-148128318D01*
X107328161Y-148130323D01*
X107303630Y-148129922D01*
X107279257Y-148127118D01*
X107255276Y-148121938D01*
X107231918Y-148114433D01*
X107209409Y-148104675D01*
X107187964Y-148092758D01*
X107167791Y-148078795D01*
X107149083Y-148062923D01*
X107132021Y-148045293D01*
X107116769Y-148026076D01*
X107103475Y-148005457D01*
X106728475Y-147355937D01*
X106717265Y-147334114D01*
X106708248Y-147311297D01*
X106701512Y-147287706D01*
X106697120Y-147263568D01*
X106695115Y-147239117D01*
X106695516Y-147214586D01*
X106698320Y-147190213D01*
X106703500Y-147166232D01*
X106711005Y-147142874D01*
X106720763Y-147120365D01*
X106732681Y-147098920D01*
X106746643Y-147078747D01*
X106762515Y-147060039D01*
X106780145Y-147042977D01*
X106799362Y-147027725D01*
X106819981Y-147014431D01*
X107902513Y-146389431D01*
X107924336Y-146378221D01*
X107947153Y-146369204D01*
X107970744Y-146362468D01*
X107994881Y-146358076D01*
X108019333Y-146356071D01*
X108043864Y-146356472D01*
X108043864Y-146356472D01*
G37*
D18*
X107673747Y-147243197D03*
D11*
G36*
X106643864Y-143931600D02*
G01*
X106668237Y-143934404D01*
X106692218Y-143939584D01*
X106715576Y-143947089D01*
X106738085Y-143956847D01*
X106759530Y-143968764D01*
X106779703Y-143982727D01*
X106798411Y-143998599D01*
X106815473Y-144016229D01*
X106830725Y-144035446D01*
X106844019Y-144056065D01*
X107219019Y-144705585D01*
X107230229Y-144727408D01*
X107239246Y-144750225D01*
X107245982Y-144773816D01*
X107250374Y-144797954D01*
X107252379Y-144822405D01*
X107251978Y-144846936D01*
X107249174Y-144871309D01*
X107243994Y-144895290D01*
X107236489Y-144918648D01*
X107226731Y-144941157D01*
X107214813Y-144962602D01*
X107200851Y-144982775D01*
X107184979Y-145001483D01*
X107167349Y-145018545D01*
X107148132Y-145033797D01*
X107127513Y-145047091D01*
X106044981Y-145672091D01*
X106023158Y-145683301D01*
X106000341Y-145692318D01*
X105976750Y-145699054D01*
X105952613Y-145703446D01*
X105928161Y-145705451D01*
X105903630Y-145705050D01*
X105879257Y-145702246D01*
X105855276Y-145697066D01*
X105831918Y-145689561D01*
X105809409Y-145679803D01*
X105787964Y-145667886D01*
X105767791Y-145653923D01*
X105749083Y-145638051D01*
X105732021Y-145620421D01*
X105716769Y-145601204D01*
X105703475Y-145580585D01*
X105328475Y-144931065D01*
X105317265Y-144909242D01*
X105308248Y-144886425D01*
X105301512Y-144862834D01*
X105297120Y-144838696D01*
X105295115Y-144814245D01*
X105295516Y-144789714D01*
X105298320Y-144765341D01*
X105303500Y-144741360D01*
X105311005Y-144718002D01*
X105320763Y-144695493D01*
X105332681Y-144674048D01*
X105346643Y-144653875D01*
X105362515Y-144635167D01*
X105380145Y-144618105D01*
X105399362Y-144602853D01*
X105419981Y-144589559D01*
X106502513Y-143964559D01*
X106524336Y-143953349D01*
X106547153Y-143944332D01*
X106570744Y-143937596D01*
X106594881Y-143933204D01*
X106619333Y-143931199D01*
X106643864Y-143931600D01*
X106643864Y-143931600D01*
G37*
D18*
X106273747Y-144818325D03*
D11*
G36*
X150249587Y-141292621D02*
G01*
X150273856Y-141296221D01*
X150297654Y-141302182D01*
X150320754Y-141310447D01*
X150342932Y-141320937D01*
X150363976Y-141333550D01*
X150383681Y-141348164D01*
X150401860Y-141364640D01*
X150418336Y-141382819D01*
X150432950Y-141402524D01*
X150445563Y-141423568D01*
X150456053Y-141445746D01*
X150464318Y-141468846D01*
X150470279Y-141492644D01*
X150473879Y-141516913D01*
X150475083Y-141541417D01*
X150475083Y-142791417D01*
X150473879Y-142815921D01*
X150470279Y-142840190D01*
X150464318Y-142863988D01*
X150456053Y-142887088D01*
X150445563Y-142909266D01*
X150432950Y-142930310D01*
X150418336Y-142950015D01*
X150401860Y-142968194D01*
X150383681Y-142984670D01*
X150363976Y-142999284D01*
X150342932Y-143011897D01*
X150320754Y-143022387D01*
X150297654Y-143030652D01*
X150273856Y-143036613D01*
X150249587Y-143040213D01*
X150225083Y-143041417D01*
X149475083Y-143041417D01*
X149450579Y-143040213D01*
X149426310Y-143036613D01*
X149402512Y-143030652D01*
X149379412Y-143022387D01*
X149357234Y-143011897D01*
X149336190Y-142999284D01*
X149316485Y-142984670D01*
X149298306Y-142968194D01*
X149281830Y-142950015D01*
X149267216Y-142930310D01*
X149254603Y-142909266D01*
X149244113Y-142887088D01*
X149235848Y-142863988D01*
X149229887Y-142840190D01*
X149226287Y-142815921D01*
X149225083Y-142791417D01*
X149225083Y-141541417D01*
X149226287Y-141516913D01*
X149229887Y-141492644D01*
X149235848Y-141468846D01*
X149244113Y-141445746D01*
X149254603Y-141423568D01*
X149267216Y-141402524D01*
X149281830Y-141382819D01*
X149298306Y-141364640D01*
X149316485Y-141348164D01*
X149336190Y-141333550D01*
X149357234Y-141320937D01*
X149379412Y-141310447D01*
X149402512Y-141302182D01*
X149426310Y-141296221D01*
X149450579Y-141292621D01*
X149475083Y-141291417D01*
X150225083Y-141291417D01*
X150249587Y-141292621D01*
X150249587Y-141292621D01*
G37*
D18*
X149850083Y-142166417D03*
D11*
G36*
X147449587Y-141292621D02*
G01*
X147473856Y-141296221D01*
X147497654Y-141302182D01*
X147520754Y-141310447D01*
X147542932Y-141320937D01*
X147563976Y-141333550D01*
X147583681Y-141348164D01*
X147601860Y-141364640D01*
X147618336Y-141382819D01*
X147632950Y-141402524D01*
X147645563Y-141423568D01*
X147656053Y-141445746D01*
X147664318Y-141468846D01*
X147670279Y-141492644D01*
X147673879Y-141516913D01*
X147675083Y-141541417D01*
X147675083Y-142791417D01*
X147673879Y-142815921D01*
X147670279Y-142840190D01*
X147664318Y-142863988D01*
X147656053Y-142887088D01*
X147645563Y-142909266D01*
X147632950Y-142930310D01*
X147618336Y-142950015D01*
X147601860Y-142968194D01*
X147583681Y-142984670D01*
X147563976Y-142999284D01*
X147542932Y-143011897D01*
X147520754Y-143022387D01*
X147497654Y-143030652D01*
X147473856Y-143036613D01*
X147449587Y-143040213D01*
X147425083Y-143041417D01*
X146675083Y-143041417D01*
X146650579Y-143040213D01*
X146626310Y-143036613D01*
X146602512Y-143030652D01*
X146579412Y-143022387D01*
X146557234Y-143011897D01*
X146536190Y-142999284D01*
X146516485Y-142984670D01*
X146498306Y-142968194D01*
X146481830Y-142950015D01*
X146467216Y-142930310D01*
X146454603Y-142909266D01*
X146444113Y-142887088D01*
X146435848Y-142863988D01*
X146429887Y-142840190D01*
X146426287Y-142815921D01*
X146425083Y-142791417D01*
X146425083Y-141541417D01*
X146426287Y-141516913D01*
X146429887Y-141492644D01*
X146435848Y-141468846D01*
X146444113Y-141445746D01*
X146454603Y-141423568D01*
X146467216Y-141402524D01*
X146481830Y-141382819D01*
X146498306Y-141364640D01*
X146516485Y-141348164D01*
X146536190Y-141333550D01*
X146557234Y-141320937D01*
X146579412Y-141310447D01*
X146602512Y-141302182D01*
X146626310Y-141296221D01*
X146650579Y-141292621D01*
X146675083Y-141291417D01*
X147425083Y-141291417D01*
X147449587Y-141292621D01*
X147449587Y-141292621D01*
G37*
D18*
X147050083Y-142166417D03*
D11*
G36*
X147446579Y-169232619D02*
G01*
X147470848Y-169236219D01*
X147494646Y-169242180D01*
X147517746Y-169250445D01*
X147539924Y-169260935D01*
X147560968Y-169273548D01*
X147580673Y-169288162D01*
X147598852Y-169304638D01*
X147615328Y-169322817D01*
X147629942Y-169342522D01*
X147642555Y-169363566D01*
X147653045Y-169385744D01*
X147661310Y-169408844D01*
X147667271Y-169432642D01*
X147670871Y-169456911D01*
X147672075Y-169481415D01*
X147672075Y-170731415D01*
X147670871Y-170755919D01*
X147667271Y-170780188D01*
X147661310Y-170803986D01*
X147653045Y-170827086D01*
X147642555Y-170849264D01*
X147629942Y-170870308D01*
X147615328Y-170890013D01*
X147598852Y-170908192D01*
X147580673Y-170924668D01*
X147560968Y-170939282D01*
X147539924Y-170951895D01*
X147517746Y-170962385D01*
X147494646Y-170970650D01*
X147470848Y-170976611D01*
X147446579Y-170980211D01*
X147422075Y-170981415D01*
X146672075Y-170981415D01*
X146647571Y-170980211D01*
X146623302Y-170976611D01*
X146599504Y-170970650D01*
X146576404Y-170962385D01*
X146554226Y-170951895D01*
X146533182Y-170939282D01*
X146513477Y-170924668D01*
X146495298Y-170908192D01*
X146478822Y-170890013D01*
X146464208Y-170870308D01*
X146451595Y-170849264D01*
X146441105Y-170827086D01*
X146432840Y-170803986D01*
X146426879Y-170780188D01*
X146423279Y-170755919D01*
X146422075Y-170731415D01*
X146422075Y-169481415D01*
X146423279Y-169456911D01*
X146426879Y-169432642D01*
X146432840Y-169408844D01*
X146441105Y-169385744D01*
X146451595Y-169363566D01*
X146464208Y-169342522D01*
X146478822Y-169322817D01*
X146495298Y-169304638D01*
X146513477Y-169288162D01*
X146533182Y-169273548D01*
X146554226Y-169260935D01*
X146576404Y-169250445D01*
X146599504Y-169242180D01*
X146623302Y-169236219D01*
X146647571Y-169232619D01*
X146672075Y-169231415D01*
X147422075Y-169231415D01*
X147446579Y-169232619D01*
X147446579Y-169232619D01*
G37*
D18*
X147047075Y-170106415D03*
D11*
G36*
X150246579Y-169232619D02*
G01*
X150270848Y-169236219D01*
X150294646Y-169242180D01*
X150317746Y-169250445D01*
X150339924Y-169260935D01*
X150360968Y-169273548D01*
X150380673Y-169288162D01*
X150398852Y-169304638D01*
X150415328Y-169322817D01*
X150429942Y-169342522D01*
X150442555Y-169363566D01*
X150453045Y-169385744D01*
X150461310Y-169408844D01*
X150467271Y-169432642D01*
X150470871Y-169456911D01*
X150472075Y-169481415D01*
X150472075Y-170731415D01*
X150470871Y-170755919D01*
X150467271Y-170780188D01*
X150461310Y-170803986D01*
X150453045Y-170827086D01*
X150442555Y-170849264D01*
X150429942Y-170870308D01*
X150415328Y-170890013D01*
X150398852Y-170908192D01*
X150380673Y-170924668D01*
X150360968Y-170939282D01*
X150339924Y-170951895D01*
X150317746Y-170962385D01*
X150294646Y-170970650D01*
X150270848Y-170976611D01*
X150246579Y-170980211D01*
X150222075Y-170981415D01*
X149472075Y-170981415D01*
X149447571Y-170980211D01*
X149423302Y-170976611D01*
X149399504Y-170970650D01*
X149376404Y-170962385D01*
X149354226Y-170951895D01*
X149333182Y-170939282D01*
X149313477Y-170924668D01*
X149295298Y-170908192D01*
X149278822Y-170890013D01*
X149264208Y-170870308D01*
X149251595Y-170849264D01*
X149241105Y-170827086D01*
X149232840Y-170803986D01*
X149226879Y-170780188D01*
X149223279Y-170755919D01*
X149222075Y-170731415D01*
X149222075Y-169481415D01*
X149223279Y-169456911D01*
X149226879Y-169432642D01*
X149232840Y-169408844D01*
X149241105Y-169385744D01*
X149251595Y-169363566D01*
X149264208Y-169342522D01*
X149278822Y-169322817D01*
X149295298Y-169304638D01*
X149313477Y-169288162D01*
X149333182Y-169273548D01*
X149354226Y-169260935D01*
X149376404Y-169250445D01*
X149399504Y-169242180D01*
X149423302Y-169236219D01*
X149447571Y-169232619D01*
X149472075Y-169231415D01*
X150222075Y-169231415D01*
X150246579Y-169232619D01*
X150246579Y-169232619D01*
G37*
D18*
X149847075Y-170106415D03*
D11*
G36*
X106055842Y-98345538D02*
G01*
X106079980Y-98349930D01*
X106103571Y-98356666D01*
X106126388Y-98365683D01*
X106148211Y-98376893D01*
X107230743Y-99001893D01*
X107251362Y-99015187D01*
X107270579Y-99030439D01*
X107288209Y-99047501D01*
X107304081Y-99066209D01*
X107318044Y-99086382D01*
X107329961Y-99107827D01*
X107339719Y-99130336D01*
X107347224Y-99153694D01*
X107352404Y-99177675D01*
X107355208Y-99202048D01*
X107355609Y-99226579D01*
X107353604Y-99251031D01*
X107349212Y-99275168D01*
X107342476Y-99298759D01*
X107333459Y-99321576D01*
X107322249Y-99343399D01*
X106947249Y-99992919D01*
X106933955Y-100013538D01*
X106918703Y-100032755D01*
X106901641Y-100050385D01*
X106882933Y-100066257D01*
X106862760Y-100080219D01*
X106841315Y-100092137D01*
X106818806Y-100101895D01*
X106795448Y-100109400D01*
X106771467Y-100114580D01*
X106747094Y-100117384D01*
X106722563Y-100117785D01*
X106698112Y-100115780D01*
X106673974Y-100111388D01*
X106650383Y-100104652D01*
X106627566Y-100095635D01*
X106605743Y-100084425D01*
X105523211Y-99459425D01*
X105502592Y-99446131D01*
X105483375Y-99430879D01*
X105465745Y-99413817D01*
X105449873Y-99395109D01*
X105435910Y-99374936D01*
X105423993Y-99353491D01*
X105414235Y-99330982D01*
X105406730Y-99307624D01*
X105401550Y-99283643D01*
X105398746Y-99259270D01*
X105398345Y-99234739D01*
X105400350Y-99210287D01*
X105404742Y-99186150D01*
X105411478Y-99162559D01*
X105420495Y-99139742D01*
X105431705Y-99117919D01*
X105806705Y-98468399D01*
X105819999Y-98447780D01*
X105835251Y-98428563D01*
X105852313Y-98410933D01*
X105871021Y-98395061D01*
X105891194Y-98381099D01*
X105912639Y-98369181D01*
X105935148Y-98359423D01*
X105958506Y-98351918D01*
X105982487Y-98346738D01*
X106006860Y-98343934D01*
X106031391Y-98343533D01*
X106055842Y-98345538D01*
X106055842Y-98345538D01*
G37*
D18*
X106376977Y-99230659D03*
D11*
G36*
X107455842Y-95920666D02*
G01*
X107479980Y-95925058D01*
X107503571Y-95931794D01*
X107526388Y-95940811D01*
X107548211Y-95952021D01*
X108630743Y-96577021D01*
X108651362Y-96590315D01*
X108670579Y-96605567D01*
X108688209Y-96622629D01*
X108704081Y-96641337D01*
X108718044Y-96661510D01*
X108729961Y-96682955D01*
X108739719Y-96705464D01*
X108747224Y-96728822D01*
X108752404Y-96752803D01*
X108755208Y-96777176D01*
X108755609Y-96801707D01*
X108753604Y-96826159D01*
X108749212Y-96850296D01*
X108742476Y-96873887D01*
X108733459Y-96896704D01*
X108722249Y-96918527D01*
X108347249Y-97568047D01*
X108333955Y-97588666D01*
X108318703Y-97607883D01*
X108301641Y-97625513D01*
X108282933Y-97641385D01*
X108262760Y-97655347D01*
X108241315Y-97667265D01*
X108218806Y-97677023D01*
X108195448Y-97684528D01*
X108171467Y-97689708D01*
X108147094Y-97692512D01*
X108122563Y-97692913D01*
X108098112Y-97690908D01*
X108073974Y-97686516D01*
X108050383Y-97679780D01*
X108027566Y-97670763D01*
X108005743Y-97659553D01*
X106923211Y-97034553D01*
X106902592Y-97021259D01*
X106883375Y-97006007D01*
X106865745Y-96988945D01*
X106849873Y-96970237D01*
X106835910Y-96950064D01*
X106823993Y-96928619D01*
X106814235Y-96906110D01*
X106806730Y-96882752D01*
X106801550Y-96858771D01*
X106798746Y-96834398D01*
X106798345Y-96809867D01*
X106800350Y-96785415D01*
X106804742Y-96761278D01*
X106811478Y-96737687D01*
X106820495Y-96714870D01*
X106831705Y-96693047D01*
X107206705Y-96043527D01*
X107219999Y-96022908D01*
X107235251Y-96003691D01*
X107252313Y-95986061D01*
X107271021Y-95970189D01*
X107291194Y-95956227D01*
X107312639Y-95944309D01*
X107335148Y-95934551D01*
X107358506Y-95927046D01*
X107382487Y-95921866D01*
X107406860Y-95919062D01*
X107431391Y-95918661D01*
X107455842Y-95920666D01*
X107455842Y-95920666D01*
G37*
D18*
X107776977Y-96805787D03*
D11*
G36*
X131651092Y-109893260D02*
G01*
X131675230Y-109897652D01*
X131698821Y-109904388D01*
X131721638Y-109913405D01*
X131743461Y-109924615D01*
X132825993Y-110549615D01*
X132846612Y-110562909D01*
X132865829Y-110578161D01*
X132883459Y-110595223D01*
X132899331Y-110613931D01*
X132913294Y-110634104D01*
X132925211Y-110655549D01*
X132934969Y-110678058D01*
X132942474Y-110701416D01*
X132947654Y-110725397D01*
X132950458Y-110749770D01*
X132950859Y-110774301D01*
X132948854Y-110798753D01*
X132944462Y-110822890D01*
X132937726Y-110846481D01*
X132928709Y-110869298D01*
X132917499Y-110891121D01*
X132542499Y-111540641D01*
X132529205Y-111561260D01*
X132513953Y-111580477D01*
X132496891Y-111598107D01*
X132478183Y-111613979D01*
X132458010Y-111627941D01*
X132436565Y-111639859D01*
X132414056Y-111649617D01*
X132390698Y-111657122D01*
X132366717Y-111662302D01*
X132342344Y-111665106D01*
X132317813Y-111665507D01*
X132293362Y-111663502D01*
X132269224Y-111659110D01*
X132245633Y-111652374D01*
X132222816Y-111643357D01*
X132200993Y-111632147D01*
X131118461Y-111007147D01*
X131097842Y-110993853D01*
X131078625Y-110978601D01*
X131060995Y-110961539D01*
X131045123Y-110942831D01*
X131031160Y-110922658D01*
X131019243Y-110901213D01*
X131009485Y-110878704D01*
X131001980Y-110855346D01*
X130996800Y-110831365D01*
X130993996Y-110806992D01*
X130993595Y-110782461D01*
X130995600Y-110758009D01*
X130999992Y-110733872D01*
X131006728Y-110710281D01*
X131015745Y-110687464D01*
X131026955Y-110665641D01*
X131401955Y-110016121D01*
X131415249Y-109995502D01*
X131430501Y-109976285D01*
X131447563Y-109958655D01*
X131466271Y-109942783D01*
X131486444Y-109928821D01*
X131507889Y-109916903D01*
X131530398Y-109907145D01*
X131553756Y-109899640D01*
X131577737Y-109894460D01*
X131602110Y-109891656D01*
X131626641Y-109891255D01*
X131651092Y-109893260D01*
X131651092Y-109893260D01*
G37*
D18*
X131972227Y-110778381D03*
D11*
G36*
X130251092Y-112318132D02*
G01*
X130275230Y-112322524D01*
X130298821Y-112329260D01*
X130321638Y-112338277D01*
X130343461Y-112349487D01*
X131425993Y-112974487D01*
X131446612Y-112987781D01*
X131465829Y-113003033D01*
X131483459Y-113020095D01*
X131499331Y-113038803D01*
X131513294Y-113058976D01*
X131525211Y-113080421D01*
X131534969Y-113102930D01*
X131542474Y-113126288D01*
X131547654Y-113150269D01*
X131550458Y-113174642D01*
X131550859Y-113199173D01*
X131548854Y-113223625D01*
X131544462Y-113247762D01*
X131537726Y-113271353D01*
X131528709Y-113294170D01*
X131517499Y-113315993D01*
X131142499Y-113965513D01*
X131129205Y-113986132D01*
X131113953Y-114005349D01*
X131096891Y-114022979D01*
X131078183Y-114038851D01*
X131058010Y-114052813D01*
X131036565Y-114064731D01*
X131014056Y-114074489D01*
X130990698Y-114081994D01*
X130966717Y-114087174D01*
X130942344Y-114089978D01*
X130917813Y-114090379D01*
X130893362Y-114088374D01*
X130869224Y-114083982D01*
X130845633Y-114077246D01*
X130822816Y-114068229D01*
X130800993Y-114057019D01*
X129718461Y-113432019D01*
X129697842Y-113418725D01*
X129678625Y-113403473D01*
X129660995Y-113386411D01*
X129645123Y-113367703D01*
X129631160Y-113347530D01*
X129619243Y-113326085D01*
X129609485Y-113303576D01*
X129601980Y-113280218D01*
X129596800Y-113256237D01*
X129593996Y-113231864D01*
X129593595Y-113207333D01*
X129595600Y-113182881D01*
X129599992Y-113158744D01*
X129606728Y-113135153D01*
X129615745Y-113112336D01*
X129626955Y-113090513D01*
X130001955Y-112440993D01*
X130015249Y-112420374D01*
X130030501Y-112401157D01*
X130047563Y-112383527D01*
X130066271Y-112367655D01*
X130086444Y-112353693D01*
X130107889Y-112341775D01*
X130130398Y-112332017D01*
X130153756Y-112324512D01*
X130177737Y-112319332D01*
X130202110Y-112316528D01*
X130226641Y-112316127D01*
X130251092Y-112318132D01*
X130251092Y-112318132D01*
G37*
D18*
X130572227Y-113203253D03*
D11*
G36*
X190459349Y-144141911D02*
G01*
X190483487Y-144146303D01*
X190507078Y-144153039D01*
X190529895Y-144162056D01*
X190551718Y-144173266D01*
X191634250Y-144798266D01*
X191654869Y-144811560D01*
X191674086Y-144826812D01*
X191691716Y-144843874D01*
X191707588Y-144862582D01*
X191721551Y-144882755D01*
X191733468Y-144904200D01*
X191743226Y-144926709D01*
X191750731Y-144950067D01*
X191755911Y-144974048D01*
X191758715Y-144998421D01*
X191759116Y-145022952D01*
X191757111Y-145047404D01*
X191752719Y-145071541D01*
X191745983Y-145095132D01*
X191736966Y-145117949D01*
X191725756Y-145139772D01*
X191350756Y-145789292D01*
X191337462Y-145809911D01*
X191322210Y-145829128D01*
X191305148Y-145846758D01*
X191286440Y-145862630D01*
X191266267Y-145876592D01*
X191244822Y-145888510D01*
X191222313Y-145898268D01*
X191198955Y-145905773D01*
X191174974Y-145910953D01*
X191150601Y-145913757D01*
X191126070Y-145914158D01*
X191101619Y-145912153D01*
X191077481Y-145907761D01*
X191053890Y-145901025D01*
X191031073Y-145892008D01*
X191009250Y-145880798D01*
X189926718Y-145255798D01*
X189906099Y-145242504D01*
X189886882Y-145227252D01*
X189869252Y-145210190D01*
X189853380Y-145191482D01*
X189839417Y-145171309D01*
X189827500Y-145149864D01*
X189817742Y-145127355D01*
X189810237Y-145103997D01*
X189805057Y-145080016D01*
X189802253Y-145055643D01*
X189801852Y-145031112D01*
X189803857Y-145006660D01*
X189808249Y-144982523D01*
X189814985Y-144958932D01*
X189824002Y-144936115D01*
X189835212Y-144914292D01*
X190210212Y-144264772D01*
X190223506Y-144244153D01*
X190238758Y-144224936D01*
X190255820Y-144207306D01*
X190274528Y-144191434D01*
X190294701Y-144177472D01*
X190316146Y-144165554D01*
X190338655Y-144155796D01*
X190362013Y-144148291D01*
X190385994Y-144143111D01*
X190410367Y-144140307D01*
X190434898Y-144139906D01*
X190459349Y-144141911D01*
X190459349Y-144141911D01*
G37*
D18*
X190780484Y-145027032D03*
D11*
G36*
X189059349Y-146566783D02*
G01*
X189083487Y-146571175D01*
X189107078Y-146577911D01*
X189129895Y-146586928D01*
X189151718Y-146598138D01*
X190234250Y-147223138D01*
X190254869Y-147236432D01*
X190274086Y-147251684D01*
X190291716Y-147268746D01*
X190307588Y-147287454D01*
X190321551Y-147307627D01*
X190333468Y-147329072D01*
X190343226Y-147351581D01*
X190350731Y-147374939D01*
X190355911Y-147398920D01*
X190358715Y-147423293D01*
X190359116Y-147447824D01*
X190357111Y-147472276D01*
X190352719Y-147496413D01*
X190345983Y-147520004D01*
X190336966Y-147542821D01*
X190325756Y-147564644D01*
X189950756Y-148214164D01*
X189937462Y-148234783D01*
X189922210Y-148254000D01*
X189905148Y-148271630D01*
X189886440Y-148287502D01*
X189866267Y-148301464D01*
X189844822Y-148313382D01*
X189822313Y-148323140D01*
X189798955Y-148330645D01*
X189774974Y-148335825D01*
X189750601Y-148338629D01*
X189726070Y-148339030D01*
X189701619Y-148337025D01*
X189677481Y-148332633D01*
X189653890Y-148325897D01*
X189631073Y-148316880D01*
X189609250Y-148305670D01*
X188526718Y-147680670D01*
X188506099Y-147667376D01*
X188486882Y-147652124D01*
X188469252Y-147635062D01*
X188453380Y-147616354D01*
X188439417Y-147596181D01*
X188427500Y-147574736D01*
X188417742Y-147552227D01*
X188410237Y-147528869D01*
X188405057Y-147504888D01*
X188402253Y-147480515D01*
X188401852Y-147455984D01*
X188403857Y-147431532D01*
X188408249Y-147407395D01*
X188414985Y-147383804D01*
X188424002Y-147360987D01*
X188435212Y-147339164D01*
X188810212Y-146689644D01*
X188823506Y-146669025D01*
X188838758Y-146649808D01*
X188855820Y-146632178D01*
X188874528Y-146616306D01*
X188894701Y-146602344D01*
X188916146Y-146590426D01*
X188938655Y-146580668D01*
X188962013Y-146573163D01*
X188985994Y-146567983D01*
X189010367Y-146565179D01*
X189034898Y-146564778D01*
X189059349Y-146566783D01*
X189059349Y-146566783D01*
G37*
D18*
X189380484Y-147451904D03*
D11*
G36*
X164864097Y-132594184D02*
G01*
X164888235Y-132598576D01*
X164911826Y-132605312D01*
X164934643Y-132614329D01*
X164956466Y-132625539D01*
X166038998Y-133250539D01*
X166059617Y-133263833D01*
X166078834Y-133279085D01*
X166096464Y-133296147D01*
X166112336Y-133314855D01*
X166126299Y-133335028D01*
X166138216Y-133356473D01*
X166147974Y-133378982D01*
X166155479Y-133402340D01*
X166160659Y-133426321D01*
X166163463Y-133450694D01*
X166163864Y-133475225D01*
X166161859Y-133499677D01*
X166157467Y-133523814D01*
X166150731Y-133547405D01*
X166141714Y-133570222D01*
X166130504Y-133592045D01*
X165755504Y-134241565D01*
X165742210Y-134262184D01*
X165726958Y-134281401D01*
X165709896Y-134299031D01*
X165691188Y-134314903D01*
X165671015Y-134328865D01*
X165649570Y-134340783D01*
X165627061Y-134350541D01*
X165603703Y-134358046D01*
X165579722Y-134363226D01*
X165555349Y-134366030D01*
X165530818Y-134366431D01*
X165506367Y-134364426D01*
X165482229Y-134360034D01*
X165458638Y-134353298D01*
X165435821Y-134344281D01*
X165413998Y-134333071D01*
X164331466Y-133708071D01*
X164310847Y-133694777D01*
X164291630Y-133679525D01*
X164274000Y-133662463D01*
X164258128Y-133643755D01*
X164244165Y-133623582D01*
X164232248Y-133602137D01*
X164222490Y-133579628D01*
X164214985Y-133556270D01*
X164209805Y-133532289D01*
X164207001Y-133507916D01*
X164206600Y-133483385D01*
X164208605Y-133458933D01*
X164212997Y-133434796D01*
X164219733Y-133411205D01*
X164228750Y-133388388D01*
X164239960Y-133366565D01*
X164614960Y-132717045D01*
X164628254Y-132696426D01*
X164643506Y-132677209D01*
X164660568Y-132659579D01*
X164679276Y-132643707D01*
X164699449Y-132629745D01*
X164720894Y-132617827D01*
X164743403Y-132608069D01*
X164766761Y-132600564D01*
X164790742Y-132595384D01*
X164815115Y-132592580D01*
X164839646Y-132592179D01*
X164864097Y-132594184D01*
X164864097Y-132594184D01*
G37*
D18*
X165185232Y-133479305D03*
D11*
G36*
X166264097Y-130169312D02*
G01*
X166288235Y-130173704D01*
X166311826Y-130180440D01*
X166334643Y-130189457D01*
X166356466Y-130200667D01*
X167438998Y-130825667D01*
X167459617Y-130838961D01*
X167478834Y-130854213D01*
X167496464Y-130871275D01*
X167512336Y-130889983D01*
X167526299Y-130910156D01*
X167538216Y-130931601D01*
X167547974Y-130954110D01*
X167555479Y-130977468D01*
X167560659Y-131001449D01*
X167563463Y-131025822D01*
X167563864Y-131050353D01*
X167561859Y-131074805D01*
X167557467Y-131098942D01*
X167550731Y-131122533D01*
X167541714Y-131145350D01*
X167530504Y-131167173D01*
X167155504Y-131816693D01*
X167142210Y-131837312D01*
X167126958Y-131856529D01*
X167109896Y-131874159D01*
X167091188Y-131890031D01*
X167071015Y-131903993D01*
X167049570Y-131915911D01*
X167027061Y-131925669D01*
X167003703Y-131933174D01*
X166979722Y-131938354D01*
X166955349Y-131941158D01*
X166930818Y-131941559D01*
X166906367Y-131939554D01*
X166882229Y-131935162D01*
X166858638Y-131928426D01*
X166835821Y-131919409D01*
X166813998Y-131908199D01*
X165731466Y-131283199D01*
X165710847Y-131269905D01*
X165691630Y-131254653D01*
X165674000Y-131237591D01*
X165658128Y-131218883D01*
X165644165Y-131198710D01*
X165632248Y-131177265D01*
X165622490Y-131154756D01*
X165614985Y-131131398D01*
X165609805Y-131107417D01*
X165607001Y-131083044D01*
X165606600Y-131058513D01*
X165608605Y-131034061D01*
X165612997Y-131009924D01*
X165619733Y-130986333D01*
X165628750Y-130963516D01*
X165639960Y-130941693D01*
X166014960Y-130292173D01*
X166028254Y-130271554D01*
X166043506Y-130252337D01*
X166060568Y-130234707D01*
X166079276Y-130218835D01*
X166099449Y-130204873D01*
X166120894Y-130192955D01*
X166143403Y-130183197D01*
X166166761Y-130175692D01*
X166190742Y-130170512D01*
X166215115Y-130167708D01*
X166239646Y-130167307D01*
X166264097Y-130169312D01*
X166264097Y-130169312D01*
G37*
D18*
X166585232Y-131054433D03*
D11*
G36*
X167112707Y-112480885D02*
G01*
X167137080Y-112483689D01*
X167161061Y-112488869D01*
X167184419Y-112496374D01*
X167206928Y-112506132D01*
X167228373Y-112518049D01*
X167248546Y-112532012D01*
X167267254Y-112547884D01*
X167284316Y-112565514D01*
X167299568Y-112584731D01*
X167312862Y-112605350D01*
X167687862Y-113254870D01*
X167699072Y-113276693D01*
X167708089Y-113299510D01*
X167714825Y-113323101D01*
X167719217Y-113347239D01*
X167721222Y-113371690D01*
X167720821Y-113396221D01*
X167718017Y-113420594D01*
X167712837Y-113444575D01*
X167705332Y-113467933D01*
X167695574Y-113490442D01*
X167683656Y-113511887D01*
X167669694Y-113532060D01*
X167653822Y-113550768D01*
X167636192Y-113567830D01*
X167616975Y-113583082D01*
X167596356Y-113596376D01*
X166513824Y-114221376D01*
X166492001Y-114232586D01*
X166469184Y-114241603D01*
X166445593Y-114248339D01*
X166421456Y-114252731D01*
X166397004Y-114254736D01*
X166372473Y-114254335D01*
X166348100Y-114251531D01*
X166324119Y-114246351D01*
X166300761Y-114238846D01*
X166278252Y-114229088D01*
X166256807Y-114217171D01*
X166236634Y-114203208D01*
X166217926Y-114187336D01*
X166200864Y-114169706D01*
X166185612Y-114150489D01*
X166172318Y-114129870D01*
X165797318Y-113480350D01*
X165786108Y-113458527D01*
X165777091Y-113435710D01*
X165770355Y-113412119D01*
X165765963Y-113387981D01*
X165763958Y-113363530D01*
X165764359Y-113338999D01*
X165767163Y-113314626D01*
X165772343Y-113290645D01*
X165779848Y-113267287D01*
X165789606Y-113244778D01*
X165801524Y-113223333D01*
X165815486Y-113203160D01*
X165831358Y-113184452D01*
X165848988Y-113167390D01*
X165868205Y-113152138D01*
X165888824Y-113138844D01*
X166971356Y-112513844D01*
X166993179Y-112502634D01*
X167015996Y-112493617D01*
X167039587Y-112486881D01*
X167063724Y-112482489D01*
X167088176Y-112480484D01*
X167112707Y-112480885D01*
X167112707Y-112480885D01*
G37*
D18*
X166742590Y-113367610D03*
D11*
G36*
X165712707Y-110056013D02*
G01*
X165737080Y-110058817D01*
X165761061Y-110063997D01*
X165784419Y-110071502D01*
X165806928Y-110081260D01*
X165828373Y-110093177D01*
X165848546Y-110107140D01*
X165867254Y-110123012D01*
X165884316Y-110140642D01*
X165899568Y-110159859D01*
X165912862Y-110180478D01*
X166287862Y-110829998D01*
X166299072Y-110851821D01*
X166308089Y-110874638D01*
X166314825Y-110898229D01*
X166319217Y-110922367D01*
X166321222Y-110946818D01*
X166320821Y-110971349D01*
X166318017Y-110995722D01*
X166312837Y-111019703D01*
X166305332Y-111043061D01*
X166295574Y-111065570D01*
X166283656Y-111087015D01*
X166269694Y-111107188D01*
X166253822Y-111125896D01*
X166236192Y-111142958D01*
X166216975Y-111158210D01*
X166196356Y-111171504D01*
X165113824Y-111796504D01*
X165092001Y-111807714D01*
X165069184Y-111816731D01*
X165045593Y-111823467D01*
X165021456Y-111827859D01*
X164997004Y-111829864D01*
X164972473Y-111829463D01*
X164948100Y-111826659D01*
X164924119Y-111821479D01*
X164900761Y-111813974D01*
X164878252Y-111804216D01*
X164856807Y-111792299D01*
X164836634Y-111778336D01*
X164817926Y-111762464D01*
X164800864Y-111744834D01*
X164785612Y-111725617D01*
X164772318Y-111704998D01*
X164397318Y-111055478D01*
X164386108Y-111033655D01*
X164377091Y-111010838D01*
X164370355Y-110987247D01*
X164365963Y-110963109D01*
X164363958Y-110938658D01*
X164364359Y-110914127D01*
X164367163Y-110889754D01*
X164372343Y-110865773D01*
X164379848Y-110842415D01*
X164389606Y-110819906D01*
X164401524Y-110798461D01*
X164415486Y-110778288D01*
X164431358Y-110759580D01*
X164448988Y-110742518D01*
X164468205Y-110727266D01*
X164488824Y-110713972D01*
X165571356Y-110088972D01*
X165593179Y-110077762D01*
X165615996Y-110068745D01*
X165639587Y-110062009D01*
X165663724Y-110057617D01*
X165688176Y-110055612D01*
X165712707Y-110056013D01*
X165712707Y-110056013D01*
G37*
D18*
X165342590Y-110942738D03*
D11*
G36*
X189910957Y-96088610D02*
G01*
X189935330Y-96091414D01*
X189959311Y-96096594D01*
X189982669Y-96104099D01*
X190005178Y-96113857D01*
X190026623Y-96125774D01*
X190046796Y-96139737D01*
X190065504Y-96155609D01*
X190082566Y-96173239D01*
X190097818Y-96192456D01*
X190111112Y-96213075D01*
X190486112Y-96862595D01*
X190497322Y-96884418D01*
X190506339Y-96907235D01*
X190513075Y-96930826D01*
X190517467Y-96954964D01*
X190519472Y-96979415D01*
X190519071Y-97003946D01*
X190516267Y-97028319D01*
X190511087Y-97052300D01*
X190503582Y-97075658D01*
X190493824Y-97098167D01*
X190481906Y-97119612D01*
X190467944Y-97139785D01*
X190452072Y-97158493D01*
X190434442Y-97175555D01*
X190415225Y-97190807D01*
X190394606Y-97204101D01*
X189312074Y-97829101D01*
X189290251Y-97840311D01*
X189267434Y-97849328D01*
X189243843Y-97856064D01*
X189219706Y-97860456D01*
X189195254Y-97862461D01*
X189170723Y-97862060D01*
X189146350Y-97859256D01*
X189122369Y-97854076D01*
X189099011Y-97846571D01*
X189076502Y-97836813D01*
X189055057Y-97824896D01*
X189034884Y-97810933D01*
X189016176Y-97795061D01*
X188999114Y-97777431D01*
X188983862Y-97758214D01*
X188970568Y-97737595D01*
X188595568Y-97088075D01*
X188584358Y-97066252D01*
X188575341Y-97043435D01*
X188568605Y-97019844D01*
X188564213Y-96995706D01*
X188562208Y-96971255D01*
X188562609Y-96946724D01*
X188565413Y-96922351D01*
X188570593Y-96898370D01*
X188578098Y-96875012D01*
X188587856Y-96852503D01*
X188599774Y-96831058D01*
X188613736Y-96810885D01*
X188629608Y-96792177D01*
X188647238Y-96775115D01*
X188666455Y-96759863D01*
X188687074Y-96746569D01*
X189769606Y-96121569D01*
X189791429Y-96110359D01*
X189814246Y-96101342D01*
X189837837Y-96094606D01*
X189861974Y-96090214D01*
X189886426Y-96088209D01*
X189910957Y-96088610D01*
X189910957Y-96088610D01*
G37*
D18*
X189540840Y-96975335D03*
D11*
G36*
X191310957Y-98513482D02*
G01*
X191335330Y-98516286D01*
X191359311Y-98521466D01*
X191382669Y-98528971D01*
X191405178Y-98538729D01*
X191426623Y-98550646D01*
X191446796Y-98564609D01*
X191465504Y-98580481D01*
X191482566Y-98598111D01*
X191497818Y-98617328D01*
X191511112Y-98637947D01*
X191886112Y-99287467D01*
X191897322Y-99309290D01*
X191906339Y-99332107D01*
X191913075Y-99355698D01*
X191917467Y-99379836D01*
X191919472Y-99404287D01*
X191919071Y-99428818D01*
X191916267Y-99453191D01*
X191911087Y-99477172D01*
X191903582Y-99500530D01*
X191893824Y-99523039D01*
X191881906Y-99544484D01*
X191867944Y-99564657D01*
X191852072Y-99583365D01*
X191834442Y-99600427D01*
X191815225Y-99615679D01*
X191794606Y-99628973D01*
X190712074Y-100253973D01*
X190690251Y-100265183D01*
X190667434Y-100274200D01*
X190643843Y-100280936D01*
X190619706Y-100285328D01*
X190595254Y-100287333D01*
X190570723Y-100286932D01*
X190546350Y-100284128D01*
X190522369Y-100278948D01*
X190499011Y-100271443D01*
X190476502Y-100261685D01*
X190455057Y-100249768D01*
X190434884Y-100235805D01*
X190416176Y-100219933D01*
X190399114Y-100202303D01*
X190383862Y-100183086D01*
X190370568Y-100162467D01*
X189995568Y-99512947D01*
X189984358Y-99491124D01*
X189975341Y-99468307D01*
X189968605Y-99444716D01*
X189964213Y-99420578D01*
X189962208Y-99396127D01*
X189962609Y-99371596D01*
X189965413Y-99347223D01*
X189970593Y-99323242D01*
X189978098Y-99299884D01*
X189987856Y-99277375D01*
X189999774Y-99255930D01*
X190013736Y-99235757D01*
X190029608Y-99217049D01*
X190047238Y-99199987D01*
X190066455Y-99184735D01*
X190087074Y-99171441D01*
X191169606Y-98546441D01*
X191191429Y-98535231D01*
X191214246Y-98526214D01*
X191237837Y-98519478D01*
X191261974Y-98515086D01*
X191286426Y-98513081D01*
X191310957Y-98513482D01*
X191310957Y-98513482D01*
G37*
D18*
X190940840Y-99400207D03*
D11*
G36*
X147669567Y-101212176D02*
G01*
X147693836Y-101215776D01*
X147717634Y-101221737D01*
X147740734Y-101230002D01*
X147762912Y-101240492D01*
X147783956Y-101253105D01*
X147803661Y-101267719D01*
X147821840Y-101284195D01*
X147838316Y-101302374D01*
X147852930Y-101322079D01*
X147865543Y-101343123D01*
X147876033Y-101365301D01*
X147884298Y-101388401D01*
X147890259Y-101412199D01*
X147893859Y-101436468D01*
X147895063Y-101460972D01*
X147895063Y-102710972D01*
X147893859Y-102735476D01*
X147890259Y-102759745D01*
X147884298Y-102783543D01*
X147876033Y-102806643D01*
X147865543Y-102828821D01*
X147852930Y-102849865D01*
X147838316Y-102869570D01*
X147821840Y-102887749D01*
X147803661Y-102904225D01*
X147783956Y-102918839D01*
X147762912Y-102931452D01*
X147740734Y-102941942D01*
X147717634Y-102950207D01*
X147693836Y-102956168D01*
X147669567Y-102959768D01*
X147645063Y-102960972D01*
X146895063Y-102960972D01*
X146870559Y-102959768D01*
X146846290Y-102956168D01*
X146822492Y-102950207D01*
X146799392Y-102941942D01*
X146777214Y-102931452D01*
X146756170Y-102918839D01*
X146736465Y-102904225D01*
X146718286Y-102887749D01*
X146701810Y-102869570D01*
X146687196Y-102849865D01*
X146674583Y-102828821D01*
X146664093Y-102806643D01*
X146655828Y-102783543D01*
X146649867Y-102759745D01*
X146646267Y-102735476D01*
X146645063Y-102710972D01*
X146645063Y-101460972D01*
X146646267Y-101436468D01*
X146649867Y-101412199D01*
X146655828Y-101388401D01*
X146664093Y-101365301D01*
X146674583Y-101343123D01*
X146687196Y-101322079D01*
X146701810Y-101302374D01*
X146718286Y-101284195D01*
X146736465Y-101267719D01*
X146756170Y-101253105D01*
X146777214Y-101240492D01*
X146799392Y-101230002D01*
X146822492Y-101221737D01*
X146846290Y-101215776D01*
X146870559Y-101212176D01*
X146895063Y-101210972D01*
X147645063Y-101210972D01*
X147669567Y-101212176D01*
X147669567Y-101212176D01*
G37*
D18*
X147270063Y-102085972D03*
D11*
G36*
X150469567Y-101212176D02*
G01*
X150493836Y-101215776D01*
X150517634Y-101221737D01*
X150540734Y-101230002D01*
X150562912Y-101240492D01*
X150583956Y-101253105D01*
X150603661Y-101267719D01*
X150621840Y-101284195D01*
X150638316Y-101302374D01*
X150652930Y-101322079D01*
X150665543Y-101343123D01*
X150676033Y-101365301D01*
X150684298Y-101388401D01*
X150690259Y-101412199D01*
X150693859Y-101436468D01*
X150695063Y-101460972D01*
X150695063Y-102710972D01*
X150693859Y-102735476D01*
X150690259Y-102759745D01*
X150684298Y-102783543D01*
X150676033Y-102806643D01*
X150665543Y-102828821D01*
X150652930Y-102849865D01*
X150638316Y-102869570D01*
X150621840Y-102887749D01*
X150603661Y-102904225D01*
X150583956Y-102918839D01*
X150562912Y-102931452D01*
X150540734Y-102941942D01*
X150517634Y-102950207D01*
X150493836Y-102956168D01*
X150469567Y-102959768D01*
X150445063Y-102960972D01*
X149695063Y-102960972D01*
X149670559Y-102959768D01*
X149646290Y-102956168D01*
X149622492Y-102950207D01*
X149599392Y-102941942D01*
X149577214Y-102931452D01*
X149556170Y-102918839D01*
X149536465Y-102904225D01*
X149518286Y-102887749D01*
X149501810Y-102869570D01*
X149487196Y-102849865D01*
X149474583Y-102828821D01*
X149464093Y-102806643D01*
X149455828Y-102783543D01*
X149449867Y-102759745D01*
X149446267Y-102735476D01*
X149445063Y-102710972D01*
X149445063Y-101460972D01*
X149446267Y-101436468D01*
X149449867Y-101412199D01*
X149455828Y-101388401D01*
X149464093Y-101365301D01*
X149474583Y-101343123D01*
X149487196Y-101322079D01*
X149501810Y-101302374D01*
X149518286Y-101284195D01*
X149536465Y-101267719D01*
X149556170Y-101253105D01*
X149577214Y-101240492D01*
X149599392Y-101230002D01*
X149622492Y-101221737D01*
X149646290Y-101215776D01*
X149670559Y-101212176D01*
X149695063Y-101210972D01*
X150445063Y-101210972D01*
X150469567Y-101212176D01*
X150469567Y-101212176D01*
G37*
D18*
X150070063Y-102085972D03*
D19*
X155020928Y-139223989D03*
D11*
G36*
X154058492Y-140357002D02*
G01*
X153558492Y-139490976D01*
X155983364Y-138090976D01*
X156483364Y-138957002D01*
X154058492Y-140357002D01*
X154058492Y-140357002D01*
G37*
D19*
X160043876Y-136323989D03*
D11*
G36*
X159081440Y-137457002D02*
G01*
X158581440Y-136590976D01*
X161006312Y-135190976D01*
X161506312Y-136057002D01*
X159081440Y-137457002D01*
X159081440Y-137457002D01*
G37*
D19*
X157020928Y-142688091D03*
D11*
G36*
X156058492Y-143821104D02*
G01*
X155558492Y-142955078D01*
X157983364Y-141555078D01*
X158483364Y-142421104D01*
X156058492Y-143821104D01*
X156058492Y-143821104D01*
G37*
D19*
X162043876Y-139788091D03*
D11*
G36*
X161081440Y-140921104D02*
G01*
X160581440Y-140055078D01*
X163006312Y-138655078D01*
X163506312Y-139521104D01*
X161081440Y-140921104D01*
X161081440Y-140921104D01*
G37*
G36*
X156791446Y-122598921D02*
G01*
X156815107Y-122602431D01*
X156838311Y-122608243D01*
X156860833Y-122616301D01*
X156882457Y-122626529D01*
X156902974Y-122638826D01*
X156922187Y-122653076D01*
X156939911Y-122669140D01*
X156955975Y-122686864D01*
X156970225Y-122706077D01*
X156982522Y-122726594D01*
X156992750Y-122748218D01*
X157000808Y-122770740D01*
X157006620Y-122793944D01*
X157010130Y-122817605D01*
X157011304Y-122841497D01*
X157011304Y-123328997D01*
X157010130Y-123352889D01*
X157006620Y-123376550D01*
X157000808Y-123399754D01*
X156992750Y-123422276D01*
X156982522Y-123443900D01*
X156970225Y-123464417D01*
X156955975Y-123483630D01*
X156939911Y-123501354D01*
X156922187Y-123517418D01*
X156902974Y-123531668D01*
X156882457Y-123543965D01*
X156860833Y-123554193D01*
X156838311Y-123562251D01*
X156815107Y-123568063D01*
X156791446Y-123571573D01*
X156767554Y-123572747D01*
X155855054Y-123572747D01*
X155831162Y-123571573D01*
X155807501Y-123568063D01*
X155784297Y-123562251D01*
X155761775Y-123554193D01*
X155740151Y-123543965D01*
X155719634Y-123531668D01*
X155700421Y-123517418D01*
X155682697Y-123501354D01*
X155666633Y-123483630D01*
X155652383Y-123464417D01*
X155640086Y-123443900D01*
X155629858Y-123422276D01*
X155621800Y-123399754D01*
X155615988Y-123376550D01*
X155612478Y-123352889D01*
X155611304Y-123328997D01*
X155611304Y-122841497D01*
X155612478Y-122817605D01*
X155615988Y-122793944D01*
X155621800Y-122770740D01*
X155629858Y-122748218D01*
X155640086Y-122726594D01*
X155652383Y-122706077D01*
X155666633Y-122686864D01*
X155682697Y-122669140D01*
X155700421Y-122653076D01*
X155719634Y-122638826D01*
X155740151Y-122626529D01*
X155761775Y-122616301D01*
X155784297Y-122608243D01*
X155807501Y-122602431D01*
X155831162Y-122598921D01*
X155855054Y-122597747D01*
X156767554Y-122597747D01*
X156791446Y-122598921D01*
X156791446Y-122598921D01*
G37*
D17*
X156311304Y-123085247D03*
D11*
G36*
X156791446Y-120723921D02*
G01*
X156815107Y-120727431D01*
X156838311Y-120733243D01*
X156860833Y-120741301D01*
X156882457Y-120751529D01*
X156902974Y-120763826D01*
X156922187Y-120778076D01*
X156939911Y-120794140D01*
X156955975Y-120811864D01*
X156970225Y-120831077D01*
X156982522Y-120851594D01*
X156992750Y-120873218D01*
X157000808Y-120895740D01*
X157006620Y-120918944D01*
X157010130Y-120942605D01*
X157011304Y-120966497D01*
X157011304Y-121453997D01*
X157010130Y-121477889D01*
X157006620Y-121501550D01*
X157000808Y-121524754D01*
X156992750Y-121547276D01*
X156982522Y-121568900D01*
X156970225Y-121589417D01*
X156955975Y-121608630D01*
X156939911Y-121626354D01*
X156922187Y-121642418D01*
X156902974Y-121656668D01*
X156882457Y-121668965D01*
X156860833Y-121679193D01*
X156838311Y-121687251D01*
X156815107Y-121693063D01*
X156791446Y-121696573D01*
X156767554Y-121697747D01*
X155855054Y-121697747D01*
X155831162Y-121696573D01*
X155807501Y-121693063D01*
X155784297Y-121687251D01*
X155761775Y-121679193D01*
X155740151Y-121668965D01*
X155719634Y-121656668D01*
X155700421Y-121642418D01*
X155682697Y-121626354D01*
X155666633Y-121608630D01*
X155652383Y-121589417D01*
X155640086Y-121568900D01*
X155629858Y-121547276D01*
X155621800Y-121524754D01*
X155615988Y-121501550D01*
X155612478Y-121477889D01*
X155611304Y-121453997D01*
X155611304Y-120966497D01*
X155612478Y-120942605D01*
X155615988Y-120918944D01*
X155621800Y-120895740D01*
X155629858Y-120873218D01*
X155640086Y-120851594D01*
X155652383Y-120831077D01*
X155666633Y-120811864D01*
X155682697Y-120794140D01*
X155700421Y-120778076D01*
X155719634Y-120763826D01*
X155740151Y-120751529D01*
X155761775Y-120741301D01*
X155784297Y-120733243D01*
X155807501Y-120727431D01*
X155831162Y-120723921D01*
X155855054Y-120722747D01*
X156767554Y-120722747D01*
X156791446Y-120723921D01*
X156791446Y-120723921D01*
G37*
D17*
X156311304Y-121210247D03*
D20*
X144742224Y-118275506D03*
X152362224Y-125895506D03*
X144742224Y-120815506D03*
X152362224Y-123355506D03*
X144742224Y-123355506D03*
X152362224Y-120815506D03*
X144742224Y-125895506D03*
X152362224Y-118275506D03*
D21*
X165038780Y-124693213D03*
X165038780Y-122193213D03*
X165038780Y-119693213D03*
X170538780Y-119693213D03*
X170538780Y-122193213D03*
X170538780Y-124693213D03*
D11*
G36*
X140254435Y-135409435D02*
G01*
X140277969Y-135413717D01*
X140300970Y-135420286D01*
X140323216Y-135429077D01*
X140344494Y-135440006D01*
X141134742Y-135896256D01*
X141154846Y-135909219D01*
X141173583Y-135924089D01*
X141190771Y-135940724D01*
X141206247Y-135958964D01*
X141219860Y-135978633D01*
X141231480Y-135999542D01*
X141240994Y-136021489D01*
X141248311Y-136044263D01*
X141253361Y-136067644D01*
X141256095Y-136091408D01*
X141256486Y-136115325D01*
X141254532Y-136139166D01*
X141250250Y-136162700D01*
X141243681Y-136185701D01*
X141234890Y-136207947D01*
X141223961Y-136229225D01*
X140980211Y-136651413D01*
X140967248Y-136671517D01*
X140952378Y-136690253D01*
X140935743Y-136707442D01*
X140917503Y-136722918D01*
X140897834Y-136736531D01*
X140876925Y-136748151D01*
X140854978Y-136757665D01*
X140832204Y-136764982D01*
X140808823Y-136770032D01*
X140785059Y-136772766D01*
X140761142Y-136773157D01*
X140737301Y-136771203D01*
X140713767Y-136766921D01*
X140690766Y-136760352D01*
X140668520Y-136751561D01*
X140647242Y-136740632D01*
X139856994Y-136284382D01*
X139836890Y-136271419D01*
X139818153Y-136256549D01*
X139800965Y-136239914D01*
X139785489Y-136221674D01*
X139771876Y-136202005D01*
X139760256Y-136181096D01*
X139750742Y-136159149D01*
X139743425Y-136136375D01*
X139738375Y-136112994D01*
X139735641Y-136089230D01*
X139735250Y-136065313D01*
X139737204Y-136041472D01*
X139741486Y-136017938D01*
X139748055Y-135994937D01*
X139756846Y-135972691D01*
X139767775Y-135951413D01*
X140011525Y-135529225D01*
X140024488Y-135509121D01*
X140039358Y-135490385D01*
X140055993Y-135473196D01*
X140074233Y-135457720D01*
X140093902Y-135444107D01*
X140114811Y-135432487D01*
X140136758Y-135422973D01*
X140159532Y-135415656D01*
X140182913Y-135410606D01*
X140206677Y-135407872D01*
X140230594Y-135407481D01*
X140254435Y-135409435D01*
X140254435Y-135409435D01*
G37*
D17*
X140495868Y-136090319D03*
D11*
G36*
X139316935Y-137033233D02*
G01*
X139340469Y-137037515D01*
X139363470Y-137044084D01*
X139385716Y-137052875D01*
X139406994Y-137063804D01*
X140197242Y-137520054D01*
X140217346Y-137533017D01*
X140236083Y-137547887D01*
X140253271Y-137564522D01*
X140268747Y-137582762D01*
X140282360Y-137602431D01*
X140293980Y-137623340D01*
X140303494Y-137645287D01*
X140310811Y-137668061D01*
X140315861Y-137691442D01*
X140318595Y-137715206D01*
X140318986Y-137739123D01*
X140317032Y-137762964D01*
X140312750Y-137786498D01*
X140306181Y-137809499D01*
X140297390Y-137831745D01*
X140286461Y-137853023D01*
X140042711Y-138275211D01*
X140029748Y-138295315D01*
X140014878Y-138314051D01*
X139998243Y-138331240D01*
X139980003Y-138346716D01*
X139960334Y-138360329D01*
X139939425Y-138371949D01*
X139917478Y-138381463D01*
X139894704Y-138388780D01*
X139871323Y-138393830D01*
X139847559Y-138396564D01*
X139823642Y-138396955D01*
X139799801Y-138395001D01*
X139776267Y-138390719D01*
X139753266Y-138384150D01*
X139731020Y-138375359D01*
X139709742Y-138364430D01*
X138919494Y-137908180D01*
X138899390Y-137895217D01*
X138880653Y-137880347D01*
X138863465Y-137863712D01*
X138847989Y-137845472D01*
X138834376Y-137825803D01*
X138822756Y-137804894D01*
X138813242Y-137782947D01*
X138805925Y-137760173D01*
X138800875Y-137736792D01*
X138798141Y-137713028D01*
X138797750Y-137689111D01*
X138799704Y-137665270D01*
X138803986Y-137641736D01*
X138810555Y-137618735D01*
X138819346Y-137596489D01*
X138830275Y-137575211D01*
X139074025Y-137153023D01*
X139086988Y-137132919D01*
X139101858Y-137114183D01*
X139118493Y-137096994D01*
X139136733Y-137081518D01*
X139156402Y-137067905D01*
X139177311Y-137056285D01*
X139199258Y-137046771D01*
X139222032Y-137039454D01*
X139245413Y-137034404D01*
X139269177Y-137031670D01*
X139293094Y-137031279D01*
X139316935Y-137033233D01*
X139316935Y-137033233D01*
G37*
D17*
X139558368Y-137714117D03*
D11*
G36*
X130795998Y-121258878D02*
G01*
X130819659Y-121262388D01*
X130842863Y-121268200D01*
X130865385Y-121276258D01*
X130887009Y-121286486D01*
X130907526Y-121298783D01*
X130926739Y-121313033D01*
X130944463Y-121329097D01*
X130960527Y-121346821D01*
X130974777Y-121366034D01*
X130987074Y-121386551D01*
X130997302Y-121408175D01*
X131005360Y-121430697D01*
X131011172Y-121453901D01*
X131014682Y-121477562D01*
X131015856Y-121501454D01*
X131015856Y-122413954D01*
X131014682Y-122437846D01*
X131011172Y-122461507D01*
X131005360Y-122484711D01*
X130997302Y-122507233D01*
X130987074Y-122528857D01*
X130974777Y-122549374D01*
X130960527Y-122568587D01*
X130944463Y-122586311D01*
X130926739Y-122602375D01*
X130907526Y-122616625D01*
X130887009Y-122628922D01*
X130865385Y-122639150D01*
X130842863Y-122647208D01*
X130819659Y-122653020D01*
X130795998Y-122656530D01*
X130772106Y-122657704D01*
X130284606Y-122657704D01*
X130260714Y-122656530D01*
X130237053Y-122653020D01*
X130213849Y-122647208D01*
X130191327Y-122639150D01*
X130169703Y-122628922D01*
X130149186Y-122616625D01*
X130129973Y-122602375D01*
X130112249Y-122586311D01*
X130096185Y-122568587D01*
X130081935Y-122549374D01*
X130069638Y-122528857D01*
X130059410Y-122507233D01*
X130051352Y-122484711D01*
X130045540Y-122461507D01*
X130042030Y-122437846D01*
X130040856Y-122413954D01*
X130040856Y-121501454D01*
X130042030Y-121477562D01*
X130045540Y-121453901D01*
X130051352Y-121430697D01*
X130059410Y-121408175D01*
X130069638Y-121386551D01*
X130081935Y-121366034D01*
X130096185Y-121346821D01*
X130112249Y-121329097D01*
X130129973Y-121313033D01*
X130149186Y-121298783D01*
X130169703Y-121286486D01*
X130191327Y-121276258D01*
X130213849Y-121268200D01*
X130237053Y-121262388D01*
X130260714Y-121258878D01*
X130284606Y-121257704D01*
X130772106Y-121257704D01*
X130795998Y-121258878D01*
X130795998Y-121258878D01*
G37*
D17*
X130528356Y-121957704D03*
D11*
G36*
X132670998Y-121258878D02*
G01*
X132694659Y-121262388D01*
X132717863Y-121268200D01*
X132740385Y-121276258D01*
X132762009Y-121286486D01*
X132782526Y-121298783D01*
X132801739Y-121313033D01*
X132819463Y-121329097D01*
X132835527Y-121346821D01*
X132849777Y-121366034D01*
X132862074Y-121386551D01*
X132872302Y-121408175D01*
X132880360Y-121430697D01*
X132886172Y-121453901D01*
X132889682Y-121477562D01*
X132890856Y-121501454D01*
X132890856Y-122413954D01*
X132889682Y-122437846D01*
X132886172Y-122461507D01*
X132880360Y-122484711D01*
X132872302Y-122507233D01*
X132862074Y-122528857D01*
X132849777Y-122549374D01*
X132835527Y-122568587D01*
X132819463Y-122586311D01*
X132801739Y-122602375D01*
X132782526Y-122616625D01*
X132762009Y-122628922D01*
X132740385Y-122639150D01*
X132717863Y-122647208D01*
X132694659Y-122653020D01*
X132670998Y-122656530D01*
X132647106Y-122657704D01*
X132159606Y-122657704D01*
X132135714Y-122656530D01*
X132112053Y-122653020D01*
X132088849Y-122647208D01*
X132066327Y-122639150D01*
X132044703Y-122628922D01*
X132024186Y-122616625D01*
X132004973Y-122602375D01*
X131987249Y-122586311D01*
X131971185Y-122568587D01*
X131956935Y-122549374D01*
X131944638Y-122528857D01*
X131934410Y-122507233D01*
X131926352Y-122484711D01*
X131920540Y-122461507D01*
X131917030Y-122437846D01*
X131915856Y-122413954D01*
X131915856Y-121501454D01*
X131917030Y-121477562D01*
X131920540Y-121453901D01*
X131926352Y-121430697D01*
X131934410Y-121408175D01*
X131944638Y-121386551D01*
X131956935Y-121366034D01*
X131971185Y-121346821D01*
X131987249Y-121329097D01*
X132004973Y-121313033D01*
X132024186Y-121298783D01*
X132044703Y-121286486D01*
X132066327Y-121276258D01*
X132088849Y-121268200D01*
X132112053Y-121262388D01*
X132135714Y-121258878D01*
X132159606Y-121257704D01*
X132647106Y-121257704D01*
X132670998Y-121258878D01*
X132670998Y-121258878D01*
G37*
D17*
X132403356Y-121957704D03*
D11*
G36*
X139904191Y-105729833D02*
G01*
X139927955Y-105732567D01*
X139951336Y-105737617D01*
X139974110Y-105744934D01*
X139996057Y-105754448D01*
X140016966Y-105766068D01*
X140036635Y-105779681D01*
X140054875Y-105795157D01*
X140071510Y-105812345D01*
X140086380Y-105831082D01*
X140099343Y-105851186D01*
X140343093Y-106273374D01*
X140354022Y-106294652D01*
X140362813Y-106316898D01*
X140369382Y-106339899D01*
X140373664Y-106363433D01*
X140375618Y-106387274D01*
X140375227Y-106411191D01*
X140372493Y-106434955D01*
X140367443Y-106458336D01*
X140360126Y-106481110D01*
X140350612Y-106503057D01*
X140338992Y-106523966D01*
X140325379Y-106543635D01*
X140309903Y-106561875D01*
X140292714Y-106578510D01*
X140273978Y-106593380D01*
X140253874Y-106606343D01*
X139463626Y-107062593D01*
X139442348Y-107073522D01*
X139420102Y-107082313D01*
X139397101Y-107088882D01*
X139373567Y-107093164D01*
X139349726Y-107095118D01*
X139325809Y-107094727D01*
X139302045Y-107091993D01*
X139278664Y-107086943D01*
X139255890Y-107079626D01*
X139233943Y-107070112D01*
X139213034Y-107058492D01*
X139193365Y-107044879D01*
X139175125Y-107029403D01*
X139158490Y-107012215D01*
X139143620Y-106993478D01*
X139130657Y-106973374D01*
X138886907Y-106551186D01*
X138875978Y-106529908D01*
X138867187Y-106507662D01*
X138860618Y-106484661D01*
X138856336Y-106461127D01*
X138854382Y-106437286D01*
X138854773Y-106413369D01*
X138857507Y-106389605D01*
X138862557Y-106366224D01*
X138869874Y-106343450D01*
X138879388Y-106321503D01*
X138891008Y-106300594D01*
X138904621Y-106280925D01*
X138920097Y-106262685D01*
X138937286Y-106246050D01*
X138956022Y-106231180D01*
X138976126Y-106218217D01*
X139766374Y-105761967D01*
X139787652Y-105751038D01*
X139809898Y-105742247D01*
X139832899Y-105735678D01*
X139856433Y-105731396D01*
X139880274Y-105729442D01*
X139904191Y-105729833D01*
X139904191Y-105729833D01*
G37*
D17*
X139615000Y-106412280D03*
D11*
G36*
X140841691Y-107353631D02*
G01*
X140865455Y-107356365D01*
X140888836Y-107361415D01*
X140911610Y-107368732D01*
X140933557Y-107378246D01*
X140954466Y-107389866D01*
X140974135Y-107403479D01*
X140992375Y-107418955D01*
X141009010Y-107436143D01*
X141023880Y-107454880D01*
X141036843Y-107474984D01*
X141280593Y-107897172D01*
X141291522Y-107918450D01*
X141300313Y-107940696D01*
X141306882Y-107963697D01*
X141311164Y-107987231D01*
X141313118Y-108011072D01*
X141312727Y-108034989D01*
X141309993Y-108058753D01*
X141304943Y-108082134D01*
X141297626Y-108104908D01*
X141288112Y-108126855D01*
X141276492Y-108147764D01*
X141262879Y-108167433D01*
X141247403Y-108185673D01*
X141230214Y-108202308D01*
X141211478Y-108217178D01*
X141191374Y-108230141D01*
X140401126Y-108686391D01*
X140379848Y-108697320D01*
X140357602Y-108706111D01*
X140334601Y-108712680D01*
X140311067Y-108716962D01*
X140287226Y-108718916D01*
X140263309Y-108718525D01*
X140239545Y-108715791D01*
X140216164Y-108710741D01*
X140193390Y-108703424D01*
X140171443Y-108693910D01*
X140150534Y-108682290D01*
X140130865Y-108668677D01*
X140112625Y-108653201D01*
X140095990Y-108636013D01*
X140081120Y-108617276D01*
X140068157Y-108597172D01*
X139824407Y-108174984D01*
X139813478Y-108153706D01*
X139804687Y-108131460D01*
X139798118Y-108108459D01*
X139793836Y-108084925D01*
X139791882Y-108061084D01*
X139792273Y-108037167D01*
X139795007Y-108013403D01*
X139800057Y-107990022D01*
X139807374Y-107967248D01*
X139816888Y-107945301D01*
X139828508Y-107924392D01*
X139842121Y-107904723D01*
X139857597Y-107886483D01*
X139874786Y-107869848D01*
X139893522Y-107854978D01*
X139913626Y-107842015D01*
X140703874Y-107385765D01*
X140725152Y-107374836D01*
X140747398Y-107366045D01*
X140770399Y-107359476D01*
X140793933Y-107355194D01*
X140817774Y-107353240D01*
X140841691Y-107353631D01*
X140841691Y-107353631D01*
G37*
D17*
X140552500Y-108036078D03*
D11*
G36*
X157471322Y-105842914D02*
G01*
X157494856Y-105847196D01*
X157517857Y-105853765D01*
X157540103Y-105862556D01*
X157561381Y-105873485D01*
X158351629Y-106329735D01*
X158371733Y-106342698D01*
X158390470Y-106357568D01*
X158407658Y-106374203D01*
X158423134Y-106392443D01*
X158436747Y-106412112D01*
X158448367Y-106433021D01*
X158457881Y-106454968D01*
X158465198Y-106477742D01*
X158470248Y-106501123D01*
X158472982Y-106524887D01*
X158473373Y-106548804D01*
X158471419Y-106572645D01*
X158467137Y-106596179D01*
X158460568Y-106619180D01*
X158451777Y-106641426D01*
X158440848Y-106662704D01*
X158197098Y-107084892D01*
X158184135Y-107104996D01*
X158169265Y-107123732D01*
X158152630Y-107140921D01*
X158134390Y-107156397D01*
X158114721Y-107170010D01*
X158093812Y-107181630D01*
X158071865Y-107191144D01*
X158049091Y-107198461D01*
X158025710Y-107203511D01*
X158001946Y-107206245D01*
X157978029Y-107206636D01*
X157954188Y-107204682D01*
X157930654Y-107200400D01*
X157907653Y-107193831D01*
X157885407Y-107185040D01*
X157864129Y-107174111D01*
X157073881Y-106717861D01*
X157053777Y-106704898D01*
X157035040Y-106690028D01*
X157017852Y-106673393D01*
X157002376Y-106655153D01*
X156988763Y-106635484D01*
X156977143Y-106614575D01*
X156967629Y-106592628D01*
X156960312Y-106569854D01*
X156955262Y-106546473D01*
X156952528Y-106522709D01*
X156952137Y-106498792D01*
X156954091Y-106474951D01*
X156958373Y-106451417D01*
X156964942Y-106428416D01*
X156973733Y-106406170D01*
X156984662Y-106384892D01*
X157228412Y-105962704D01*
X157241375Y-105942600D01*
X157256245Y-105923864D01*
X157272880Y-105906675D01*
X157291120Y-105891199D01*
X157310789Y-105877586D01*
X157331698Y-105865966D01*
X157353645Y-105856452D01*
X157376419Y-105849135D01*
X157399800Y-105844085D01*
X157423564Y-105841351D01*
X157447481Y-105840960D01*
X157471322Y-105842914D01*
X157471322Y-105842914D01*
G37*
D17*
X157712755Y-106523798D03*
D11*
G36*
X156533822Y-107466712D02*
G01*
X156557356Y-107470994D01*
X156580357Y-107477563D01*
X156602603Y-107486354D01*
X156623881Y-107497283D01*
X157414129Y-107953533D01*
X157434233Y-107966496D01*
X157452970Y-107981366D01*
X157470158Y-107998001D01*
X157485634Y-108016241D01*
X157499247Y-108035910D01*
X157510867Y-108056819D01*
X157520381Y-108078766D01*
X157527698Y-108101540D01*
X157532748Y-108124921D01*
X157535482Y-108148685D01*
X157535873Y-108172602D01*
X157533919Y-108196443D01*
X157529637Y-108219977D01*
X157523068Y-108242978D01*
X157514277Y-108265224D01*
X157503348Y-108286502D01*
X157259598Y-108708690D01*
X157246635Y-108728794D01*
X157231765Y-108747530D01*
X157215130Y-108764719D01*
X157196890Y-108780195D01*
X157177221Y-108793808D01*
X157156312Y-108805428D01*
X157134365Y-108814942D01*
X157111591Y-108822259D01*
X157088210Y-108827309D01*
X157064446Y-108830043D01*
X157040529Y-108830434D01*
X157016688Y-108828480D01*
X156993154Y-108824198D01*
X156970153Y-108817629D01*
X156947907Y-108808838D01*
X156926629Y-108797909D01*
X156136381Y-108341659D01*
X156116277Y-108328696D01*
X156097540Y-108313826D01*
X156080352Y-108297191D01*
X156064876Y-108278951D01*
X156051263Y-108259282D01*
X156039643Y-108238373D01*
X156030129Y-108216426D01*
X156022812Y-108193652D01*
X156017762Y-108170271D01*
X156015028Y-108146507D01*
X156014637Y-108122590D01*
X156016591Y-108098749D01*
X156020873Y-108075215D01*
X156027442Y-108052214D01*
X156036233Y-108029968D01*
X156047162Y-108008690D01*
X156290912Y-107586502D01*
X156303875Y-107566398D01*
X156318745Y-107547662D01*
X156335380Y-107530473D01*
X156353620Y-107514997D01*
X156373289Y-107501384D01*
X156394198Y-107489764D01*
X156416145Y-107480250D01*
X156438919Y-107472933D01*
X156462300Y-107467883D01*
X156486064Y-107465149D01*
X156509981Y-107464758D01*
X156533822Y-107466712D01*
X156533822Y-107466712D01*
G37*
D17*
X156775255Y-108147596D03*
D11*
G36*
X150472564Y-73272182D02*
G01*
X150496833Y-73275782D01*
X150520631Y-73281743D01*
X150543731Y-73290008D01*
X150565909Y-73300498D01*
X150586953Y-73313111D01*
X150606658Y-73327725D01*
X150624837Y-73344201D01*
X150641313Y-73362380D01*
X150655927Y-73382085D01*
X150668540Y-73403129D01*
X150679030Y-73425307D01*
X150687295Y-73448407D01*
X150693256Y-73472205D01*
X150696856Y-73496474D01*
X150698060Y-73520978D01*
X150698060Y-74770978D01*
X150696856Y-74795482D01*
X150693256Y-74819751D01*
X150687295Y-74843549D01*
X150679030Y-74866649D01*
X150668540Y-74888827D01*
X150655927Y-74909871D01*
X150641313Y-74929576D01*
X150624837Y-74947755D01*
X150606658Y-74964231D01*
X150586953Y-74978845D01*
X150565909Y-74991458D01*
X150543731Y-75001948D01*
X150520631Y-75010213D01*
X150496833Y-75016174D01*
X150472564Y-75019774D01*
X150448060Y-75020978D01*
X149698060Y-75020978D01*
X149673556Y-75019774D01*
X149649287Y-75016174D01*
X149625489Y-75010213D01*
X149602389Y-75001948D01*
X149580211Y-74991458D01*
X149559167Y-74978845D01*
X149539462Y-74964231D01*
X149521283Y-74947755D01*
X149504807Y-74929576D01*
X149490193Y-74909871D01*
X149477580Y-74888827D01*
X149467090Y-74866649D01*
X149458825Y-74843549D01*
X149452864Y-74819751D01*
X149449264Y-74795482D01*
X149448060Y-74770978D01*
X149448060Y-73520978D01*
X149449264Y-73496474D01*
X149452864Y-73472205D01*
X149458825Y-73448407D01*
X149467090Y-73425307D01*
X149477580Y-73403129D01*
X149490193Y-73382085D01*
X149504807Y-73362380D01*
X149521283Y-73344201D01*
X149539462Y-73327725D01*
X149559167Y-73313111D01*
X149580211Y-73300498D01*
X149602389Y-73290008D01*
X149625489Y-73281743D01*
X149649287Y-73275782D01*
X149673556Y-73272182D01*
X149698060Y-73270978D01*
X150448060Y-73270978D01*
X150472564Y-73272182D01*
X150472564Y-73272182D01*
G37*
D18*
X150073060Y-74145978D03*
D11*
G36*
X147672564Y-73272182D02*
G01*
X147696833Y-73275782D01*
X147720631Y-73281743D01*
X147743731Y-73290008D01*
X147765909Y-73300498D01*
X147786953Y-73313111D01*
X147806658Y-73327725D01*
X147824837Y-73344201D01*
X147841313Y-73362380D01*
X147855927Y-73382085D01*
X147868540Y-73403129D01*
X147879030Y-73425307D01*
X147887295Y-73448407D01*
X147893256Y-73472205D01*
X147896856Y-73496474D01*
X147898060Y-73520978D01*
X147898060Y-74770978D01*
X147896856Y-74795482D01*
X147893256Y-74819751D01*
X147887295Y-74843549D01*
X147879030Y-74866649D01*
X147868540Y-74888827D01*
X147855927Y-74909871D01*
X147841313Y-74929576D01*
X147824837Y-74947755D01*
X147806658Y-74964231D01*
X147786953Y-74978845D01*
X147765909Y-74991458D01*
X147743731Y-75001948D01*
X147720631Y-75010213D01*
X147696833Y-75016174D01*
X147672564Y-75019774D01*
X147648060Y-75020978D01*
X146898060Y-75020978D01*
X146873556Y-75019774D01*
X146849287Y-75016174D01*
X146825489Y-75010213D01*
X146802389Y-75001948D01*
X146780211Y-74991458D01*
X146759167Y-74978845D01*
X146739462Y-74964231D01*
X146721283Y-74947755D01*
X146704807Y-74929576D01*
X146690193Y-74909871D01*
X146677580Y-74888827D01*
X146667090Y-74866649D01*
X146658825Y-74843549D01*
X146652864Y-74819751D01*
X146649264Y-74795482D01*
X146648060Y-74770978D01*
X146648060Y-73520978D01*
X146649264Y-73496474D01*
X146652864Y-73472205D01*
X146658825Y-73448407D01*
X146667090Y-73425307D01*
X146677580Y-73403129D01*
X146690193Y-73382085D01*
X146704807Y-73362380D01*
X146721283Y-73344201D01*
X146739462Y-73327725D01*
X146759167Y-73313111D01*
X146780211Y-73300498D01*
X146802389Y-73290008D01*
X146825489Y-73281743D01*
X146849287Y-73275782D01*
X146873556Y-73272182D01*
X146898060Y-73270978D01*
X147648060Y-73270978D01*
X147672564Y-73272182D01*
X147672564Y-73272182D01*
G37*
D18*
X147273060Y-74145978D03*
D22*
X183362393Y-133220079D03*
X121596902Y-146736707D03*
X140773061Y-86464977D03*
X156573063Y-86464973D03*
X113692320Y-133029658D03*
X175468636Y-146909926D03*
X128441975Y-121971939D03*
X158755550Y-104713977D03*
X149071834Y-121283467D03*
X147559620Y-122124338D03*
X148561520Y-122120204D03*
X156352045Y-157759973D03*
X144930608Y-88039773D03*
X147098265Y-88039773D03*
X179912989Y-136062473D03*
X178835502Y-137928747D03*
X120868841Y-142310164D03*
X119793533Y-140447676D03*
X175622274Y-97505670D03*
X183522272Y-111188874D03*
X140547079Y-157787411D03*
X113795540Y-111019326D03*
X121695545Y-97336121D03*
X168654484Y-122288034D03*
X138662364Y-104630836D03*
X138514336Y-139522442D03*
X176340514Y-101899302D03*
X177421055Y-103770856D03*
X118321961Y-106328936D03*
X117240375Y-108193148D03*
X152181766Y-156212617D03*
X150021883Y-156212610D03*
X158576396Y-139480639D03*
X149089497Y-123048848D03*
D23*
X156473060Y-86464977D02*
X156573063Y-86464973D01*
X140773061Y-86464977D02*
X140773061Y-86464977D01*
X176510758Y-145104918D02*
X175461917Y-146921567D01*
X175461917Y-146921567D02*
X175468636Y-146909926D01*
X175332642Y-140708149D02*
X176510758Y-145104918D01*
X113692320Y-133029658D02*
X113742316Y-133116259D01*
X156573063Y-86464973D02*
X156573063Y-86464973D01*
X154475378Y-86464974D02*
X151256719Y-89683639D01*
X156573063Y-86464973D02*
X154475378Y-86464974D01*
X119137927Y-136024416D02*
X114741156Y-134846309D01*
X113692320Y-133029658D02*
X113692320Y-133029658D01*
X113692320Y-133029658D02*
X113692320Y-133029658D01*
X113692312Y-133029659D02*
X114741156Y-134846309D01*
X175461917Y-146921567D02*
X175461917Y-146921567D01*
X175468636Y-146909926D02*
X175511913Y-146834963D01*
X119137927Y-136024416D02*
X128441975Y-130652719D01*
X175332642Y-140708149D02*
X166032429Y-135338671D01*
X151256719Y-89683639D02*
X151256722Y-100384526D01*
X128441975Y-130652719D02*
X128441975Y-121971939D01*
X128441975Y-121971939D02*
X128441975Y-121971939D01*
X151256722Y-100384526D02*
X158755550Y-104713977D01*
X158755550Y-104713977D02*
X158755550Y-104713977D01*
X166032429Y-135338671D02*
X164316374Y-136721829D01*
X164316374Y-136721829D02*
X159871373Y-132505432D01*
X159871373Y-132505432D02*
X159881210Y-122152067D01*
X165038775Y-122193215D02*
X159881210Y-122152067D01*
X159881210Y-122152067D02*
X154788637Y-122131531D01*
X153422225Y-124480506D02*
X151302224Y-124480508D01*
X154788637Y-123114092D02*
X153422225Y-124480506D01*
X154788637Y-122131531D02*
X154788637Y-123114092D01*
X147706030Y-121577929D02*
X147559620Y-122124338D01*
X148487323Y-121126849D02*
X147706030Y-121577929D01*
X149071834Y-121283467D02*
X148487323Y-121126849D01*
X147271067Y-123201233D02*
X148091487Y-124622247D01*
X147559620Y-122124338D02*
X147271067Y-123201233D01*
X150116780Y-125164921D02*
X151302224Y-124480508D01*
X148091487Y-124622247D02*
X150116780Y-125164921D01*
X121645543Y-97422726D02*
X121695545Y-97336121D01*
X140647081Y-157787417D02*
X140547079Y-157787411D01*
X113795540Y-111019326D02*
X113795540Y-111019326D01*
X183522272Y-111188874D02*
X183522272Y-111188874D01*
X175622274Y-97505670D02*
X175622274Y-97505670D01*
X179912989Y-136062473D02*
X179375625Y-135752225D01*
X179375625Y-135752225D02*
X177696401Y-136202174D01*
X183522272Y-111188874D02*
X183472270Y-111102271D01*
X182473427Y-109372225D02*
X183522272Y-111188874D01*
X178076661Y-108194115D02*
X182473427Y-109372225D01*
X121695545Y-97336121D02*
X121695545Y-97336121D01*
X140547079Y-157787411D02*
X140547079Y-157787411D01*
X113795540Y-111019326D02*
X113795540Y-111019326D01*
X121695545Y-97336121D02*
X121695545Y-97336121D01*
X120868841Y-142310164D02*
X121409996Y-141997728D01*
X121409996Y-141997728D02*
X121858336Y-140324475D01*
X178076661Y-108194115D02*
X168740730Y-113584217D01*
X177696401Y-136202174D02*
X168568830Y-130932377D01*
X168568830Y-130932377D02*
X168654484Y-122288034D01*
X140547079Y-157787411D02*
X140595494Y-157787412D01*
X121858336Y-140324475D02*
X130948061Y-135076522D01*
X140595494Y-157787412D02*
X142644763Y-157787416D01*
X142644763Y-157787416D02*
X145863423Y-154568755D01*
X144930607Y-88647603D02*
X144930608Y-88039773D01*
X120646702Y-99152770D02*
X121824809Y-103549540D01*
X121695545Y-97336121D02*
X120646702Y-99152770D01*
X121824809Y-103549540D02*
X131130679Y-108922283D01*
X131130679Y-108922283D02*
X138675063Y-104652835D01*
X146172554Y-100409924D02*
X146172552Y-89889551D01*
X146172552Y-89889551D02*
X144930607Y-88647603D01*
X145863423Y-154568755D02*
X145863424Y-143843502D01*
X130948061Y-135076522D02*
X138379778Y-139444753D01*
X168654484Y-122288034D02*
X168740730Y-113584217D01*
X138675063Y-104652835D02*
X146172554Y-100409924D01*
X138379778Y-139444753D02*
X145863424Y-143843502D01*
X117781476Y-108505559D02*
X117240375Y-108193148D01*
X119461057Y-108055510D02*
X117781476Y-108505559D01*
X175808423Y-102206506D02*
X176340514Y-101899302D01*
X175356246Y-103894056D02*
X175808423Y-102206506D01*
X175356246Y-103894056D02*
X166206644Y-109176581D01*
X119461057Y-108055510D02*
X128604912Y-113334714D01*
X157020929Y-142688091D02*
X162043877Y-139788088D01*
X156365654Y-141553120D02*
X157020929Y-142688091D01*
X152181771Y-155597010D02*
X150947590Y-154362838D01*
X150947590Y-154362838D02*
X150947590Y-143843927D01*
X152181766Y-156212617D02*
X152181771Y-155597010D01*
X150947590Y-143843927D02*
X152033065Y-143217228D01*
X152033065Y-143217228D02*
X152994032Y-143474719D01*
X156336068Y-141545192D02*
X156365654Y-141553120D01*
X152994032Y-143474719D02*
X156336068Y-141545192D01*
X122075092Y-122009466D02*
X120873012Y-122009466D01*
X128604912Y-115479646D02*
X122075092Y-122009466D01*
X128604912Y-113334714D02*
X128604912Y-115479646D01*
X164341502Y-108099740D02*
X166206644Y-109176581D01*
X161947720Y-99166024D02*
X164341502Y-108099740D01*
X161264451Y-140238090D02*
X162043875Y-139788089D01*
X160523904Y-143001856D02*
X161264451Y-140238090D01*
X162390713Y-146235264D02*
X160523904Y-143001856D01*
X162512829Y-98187225D02*
X162548081Y-98177780D01*
X161947720Y-99166024D02*
X162512829Y-98187225D01*
X128604912Y-116772124D02*
X129592558Y-117759770D01*
X128604912Y-115479646D02*
X128604912Y-116772124D01*
X150070060Y-89652977D02*
X150070061Y-102085977D01*
X150998061Y-88724976D02*
X150070060Y-89652977D01*
X150073062Y-74145977D02*
X150998064Y-75070977D01*
X150998064Y-75070977D02*
X150998061Y-88724976D01*
X150070061Y-102085977D02*
X150070061Y-102085977D01*
X150070062Y-102085974D02*
X159064956Y-107302248D01*
X159064956Y-107302248D02*
X165342587Y-110942736D01*
X107776974Y-96805788D02*
X109040550Y-96467213D01*
X120865262Y-103294211D02*
X121204933Y-104561889D01*
X121204933Y-104561889D02*
X131972223Y-110778386D01*
X109040550Y-96467213D02*
X120865262Y-103294211D01*
X147270065Y-89646975D02*
X147270061Y-102085979D01*
X146348062Y-88724976D02*
X147270065Y-89646975D01*
X147273056Y-74145976D02*
X146348064Y-75070969D01*
X146348064Y-75070969D02*
X146348062Y-88724976D01*
X147270061Y-102085979D02*
X147270061Y-102085979D01*
X131972223Y-110778386D02*
X131972223Y-110778386D01*
X147270065Y-102085975D02*
X131972223Y-110778386D01*
X151415807Y-104030860D02*
X161794605Y-109917061D01*
X165655403Y-116604165D02*
X165655403Y-116604165D01*
X161794605Y-109917061D02*
X165655403Y-116604165D01*
X147270062Y-103060971D02*
X147281050Y-103071958D01*
X147270063Y-102085972D02*
X147270062Y-103060971D01*
X147281050Y-103071958D02*
X147281050Y-103568268D01*
X147743639Y-104030859D02*
X151415807Y-104030860D01*
X147281050Y-103568268D02*
X147743639Y-104030859D01*
X147047083Y-170106415D02*
X146122080Y-169181415D01*
X146122086Y-155527411D02*
X147050085Y-154599413D01*
X146122080Y-169181415D02*
X146122086Y-155527411D01*
X147050085Y-154599413D02*
X147050080Y-142166417D01*
X106273752Y-144818323D02*
X106612324Y-143554744D01*
X118437033Y-136727749D02*
X119704704Y-137067424D01*
X106612324Y-143554744D02*
X118437033Y-136727749D01*
X119704704Y-137067424D02*
X130472002Y-130850917D01*
X147050080Y-142166417D02*
X147050080Y-142166417D01*
X106715550Y-100494231D02*
X118540263Y-107321231D01*
X106376971Y-99230659D02*
X106715550Y-100494231D01*
X119799735Y-106983758D02*
X130572222Y-113203255D01*
X118540263Y-107321231D02*
X119799735Y-106983758D01*
X130572222Y-113203255D02*
X130572222Y-113203255D01*
X130472002Y-130850917D02*
X130472002Y-130850917D01*
X130471996Y-130850921D02*
X130572221Y-113203255D01*
X130471999Y-130850918D02*
X131956774Y-130041630D01*
X131956774Y-130041630D02*
X133861771Y-133292829D01*
X133861771Y-133292829D02*
X147044374Y-141014428D01*
X147044374Y-141014428D02*
X147050085Y-142166415D01*
X177509878Y-107151106D02*
X166742588Y-113367612D01*
X190602264Y-100663784D02*
X178777549Y-107490783D01*
X178777549Y-107490783D02*
X177509878Y-107151106D01*
X190940833Y-99400207D02*
X190602264Y-100663784D01*
X190780481Y-145027027D02*
X190441907Y-143763457D01*
X190441907Y-143763457D02*
X178617197Y-136936457D01*
X177357717Y-137273930D02*
X166585231Y-131054433D01*
X178617197Y-136936457D02*
X177357717Y-137273930D01*
X166742588Y-113367612D02*
X166742588Y-113367612D01*
X166585231Y-131054433D02*
X166585231Y-131054433D01*
X163328308Y-123401140D02*
X166653320Y-123401142D01*
X160827922Y-125901525D02*
X163328308Y-123401140D01*
X166585227Y-131054430D02*
X166653320Y-123401142D01*
X166653320Y-123401142D02*
X166742588Y-113367607D01*
X156775255Y-108147597D02*
X151819574Y-116605030D01*
X152362222Y-123355504D02*
X153925037Y-122029932D01*
X153925037Y-122029932D02*
X153899639Y-119566133D01*
X151237222Y-117187380D02*
X151819574Y-116605030D01*
X151237224Y-119335507D02*
X151237222Y-117187380D01*
X151467851Y-119566133D02*
X151237224Y-119335507D01*
X153899639Y-119566133D02*
X151467851Y-119566133D01*
X140552497Y-108036081D02*
X145517479Y-116737143D01*
X147050374Y-119392200D02*
X152362222Y-120815504D01*
X145517479Y-116737143D02*
X147050374Y-119392200D01*
X144742223Y-121865505D02*
X144742225Y-120815504D01*
X144650021Y-121957706D02*
X144742223Y-121865505D01*
X132403354Y-121957709D02*
X144650021Y-121957706D01*
X140923453Y-135662735D02*
X140495868Y-136090320D01*
X145867224Y-130718964D02*
X140923453Y-135662735D01*
X145867223Y-123430507D02*
X145867224Y-130718964D01*
X145792222Y-123355504D02*
X145867223Y-123430507D01*
X144742224Y-123355505D02*
X145792222Y-123355504D01*
X153412223Y-118275503D02*
X152362222Y-118275505D01*
X156311304Y-121174583D02*
X153412223Y-118275503D01*
X156311303Y-121210247D02*
X156311304Y-121174583D01*
X157836752Y-119684800D02*
X156311303Y-121210247D01*
X159255000Y-119684800D02*
X157836752Y-119684800D01*
X162063413Y-119693213D02*
X162055000Y-119684800D01*
X165038780Y-119693213D02*
X162063413Y-119693213D01*
X153501044Y-125895504D02*
X156311303Y-123085249D01*
X152362222Y-125895507D02*
X153501044Y-125895504D01*
X159264454Y-136773990D02*
X155020929Y-139223988D01*
X160043875Y-136323989D02*
X159264454Y-136773990D01*
X154326929Y-126421947D02*
X160043875Y-136323989D01*
X152362222Y-125895506D02*
X154326929Y-126421947D01*
X176292199Y-140963476D02*
X175952523Y-139695802D01*
X189380483Y-147451898D02*
X188116904Y-147790476D01*
X175952523Y-139695802D02*
X165185230Y-133479306D01*
X188116904Y-147790476D02*
X176292199Y-140963476D01*
X165185230Y-133479306D02*
X165185230Y-133479306D01*
X165604605Y-127780166D02*
X163122571Y-132302230D01*
X163122571Y-132302230D02*
X165185232Y-133479301D01*
X167643773Y-127781031D02*
X167643773Y-127781031D01*
X167694575Y-116605028D02*
X167643773Y-127781031D01*
X107673750Y-147243194D02*
X108937325Y-147581768D01*
X120762041Y-140754768D02*
X121099508Y-139495294D01*
X121099508Y-139495294D02*
X131871998Y-133275794D01*
X108937325Y-147581768D02*
X120762041Y-140754768D01*
X131871998Y-133275794D02*
X131871998Y-133275794D01*
X131872000Y-133275790D02*
X139558370Y-137714118D01*
X143747641Y-140173388D02*
X139558368Y-137714116D01*
X176115077Y-104723236D02*
X165342582Y-110942741D01*
X189540833Y-96975338D02*
X188277260Y-96636763D01*
X176452554Y-103463764D02*
X176115077Y-104723236D01*
X188277260Y-96636763D02*
X176452554Y-103463764D01*
X165342582Y-110942741D02*
X165342582Y-110942741D01*
X149847080Y-170106419D02*
X150772081Y-169181415D01*
X150772084Y-155527416D02*
X149850080Y-154605417D01*
X149850080Y-154605417D02*
X149850082Y-142166416D01*
X150772081Y-169181415D02*
X150772084Y-155527416D01*
X149850082Y-142166416D02*
X149850082Y-142166416D01*
X153077118Y-106031524D02*
X152493975Y-105448379D01*
X138586181Y-111264517D02*
X139590971Y-107514590D01*
X143381056Y-119569488D02*
X138586181Y-111264517D01*
X145819525Y-119569486D02*
X143381056Y-119569488D01*
X152493975Y-105448379D02*
X143336507Y-105448377D01*
X149447412Y-122842204D02*
X149878996Y-121231514D01*
X149878996Y-121231514D02*
X149486744Y-120552118D01*
X149486744Y-120552118D02*
X145819525Y-119569486D01*
X143222616Y-105417860D02*
X143336507Y-105448377D01*
X139590971Y-107514590D02*
X143222616Y-105417860D01*
X149089497Y-123048846D02*
X149089497Y-123048848D01*
X149447412Y-122842204D02*
X149089497Y-123048846D01*
X152632956Y-142912085D02*
X149850084Y-142166415D01*
X158576396Y-139480639D02*
X152632956Y-142912085D01*
X144687729Y-138550284D02*
X144685142Y-138549589D01*
X156333517Y-131826584D02*
X144687729Y-138550284D01*
X158952923Y-129893479D02*
X157957312Y-130889085D01*
X158952921Y-125901524D02*
X158952923Y-129893479D01*
X134586824Y-125895504D02*
X131444458Y-122753137D01*
X144742222Y-125895505D02*
X134586824Y-125895504D01*
X131467559Y-122730038D02*
X131444458Y-122753137D01*
X131467558Y-117759770D02*
X131467559Y-122730038D01*
M02*
