M48
INCH,TZ
T1C0.0157
T2C0.0394
%
G90
G05
T1
X44761Y-52374
X44801Y-43708
X46158Y-42596
X46583Y-41862
X47163Y-55294
X47586Y-56028
X47873Y-57770
X47912Y-38321
X50568Y-48020
X54533Y-54930
X54591Y-41193
X55333Y-62121
X55422Y-34041
X57059Y-34661
X57913Y-34661
X58094Y-48080
X58489Y-48079
X58690Y-47749
X58697Y-48444
X59064Y-61501
X59914Y-61501
X61556Y-62110
X61643Y-34041
X62432Y-54914
X62502Y-41226
X66399Y-48145
X69082Y-57839
X69143Y-38388
X69425Y-40118
X69851Y-40855
X70408Y-54303
X70832Y-53568
X72190Y-52449
X72253Y-43775
T2
X47588Y-48035
X63995Y-38653
X63933Y-57573
T0
M30
